%TF.GenerationSoftware,KiCad,Pcbnew,(6.0.11)*%
%TF.CreationDate,2023-02-02T14:22:02-08:00*%
%TF.ProjectId,Luzy,4c757a79-2e6b-4696-9361-645f70636258,1.0a*%
%TF.SameCoordinates,Original*%
%TF.FileFunction,Copper,L2,Bot*%
%TF.FilePolarity,Positive*%
%FSLAX46Y46*%
G04 Gerber Fmt 4.6, Leading zero omitted, Abs format (unit mm)*
G04 Created by KiCad (PCBNEW (6.0.11)) date 2023-02-02 14:22:02*
%MOMM*%
%LPD*%
G01*
G04 APERTURE LIST*
%TA.AperFunction,ComponentPad*%
%ADD10R,1.700000X1.700000*%
%TD*%
%TA.AperFunction,ComponentPad*%
%ADD11O,1.700000X1.700000*%
%TD*%
%TA.AperFunction,ComponentPad*%
%ADD12O,2.100000X1.000000*%
%TD*%
%TA.AperFunction,ComponentPad*%
%ADD13O,1.600000X1.000000*%
%TD*%
%TA.AperFunction,ViaPad*%
%ADD14C,0.508000*%
%TD*%
%TA.AperFunction,ViaPad*%
%ADD15C,0.400000*%
%TD*%
%TA.AperFunction,ViaPad*%
%ADD16C,0.762000*%
%TD*%
%TA.AperFunction,Conductor*%
%ADD17C,0.152400*%
%TD*%
%TA.AperFunction,Conductor*%
%ADD18C,0.200000*%
%TD*%
%TA.AperFunction,Conductor*%
%ADD19C,0.254000*%
%TD*%
%TA.AperFunction,Conductor*%
%ADD20C,0.250000*%
%TD*%
%TA.AperFunction,Conductor*%
%ADD21C,0.508000*%
%TD*%
G04 APERTURE END LIST*
D10*
%TO.P,J1,1,Pin_1*%
%TO.N,/GND*%
X100290509Y-40501000D03*
D11*
%TO.P,J1,2,Pin_2*%
%TO.N,/V_{BATT}*%
X97750509Y-40501000D03*
%TD*%
D12*
%TO.P,P1,S1,SHIELD*%
%TO.N,/GND*%
X87620509Y-41109000D03*
D13*
X83440509Y-41109000D03*
D12*
X87620509Y-49749000D03*
D13*
X83440509Y-49749000D03*
%TD*%
D14*
%TO.N,/GND*%
X108418509Y-64225000D03*
X108418509Y-71845000D03*
X108418509Y-70575000D03*
X107148509Y-70575000D03*
X109688509Y-87085000D03*
X108418509Y-85815000D03*
X107148509Y-85815000D03*
X103338509Y-87085000D03*
X103338509Y-85815000D03*
X102068509Y-85815000D03*
X100798509Y-85815000D03*
X96988509Y-85815000D03*
X98258509Y-87085000D03*
X95718509Y-85815000D03*
X91908509Y-87085000D03*
X91908509Y-85815000D03*
X90638509Y-85815000D03*
X86828509Y-87085000D03*
X108418509Y-78195000D03*
X107148509Y-78195000D03*
X102068509Y-78195000D03*
X103338509Y-79465000D03*
X103338509Y-78195000D03*
X100798509Y-78195000D03*
X98258509Y-79465000D03*
X96988509Y-78195000D03*
X95718509Y-78195000D03*
X91908509Y-79465000D03*
X91908509Y-78195000D03*
X90638509Y-78195000D03*
X86828509Y-79465000D03*
X103235518Y-71845000D03*
X103235518Y-70575000D03*
X101965518Y-70575000D03*
X96885518Y-70575000D03*
X98155518Y-71845000D03*
X95615518Y-70575000D03*
X90535518Y-70575000D03*
X91805518Y-70575000D03*
X91805518Y-71845000D03*
X86725518Y-71845000D03*
X108315518Y-62955000D03*
X107045518Y-62955000D03*
X103235518Y-64225000D03*
X103235518Y-62955000D03*
X101965518Y-62955000D03*
X91805518Y-64225000D03*
X98155518Y-64225000D03*
X96885518Y-62955000D03*
X95615518Y-62955000D03*
X91805518Y-62955000D03*
X90535518Y-62955000D03*
X87995518Y-62955000D03*
X86725518Y-62955000D03*
X85455518Y-62955000D03*
X84288509Y-80735000D03*
X84236318Y-79465000D03*
X84236318Y-78195000D03*
X84236318Y-73115000D03*
X84185518Y-71845000D03*
X84185518Y-70575000D03*
X84185518Y-66765000D03*
X84082527Y-65495000D03*
X84185518Y-64225000D03*
X84185518Y-59145000D03*
X83018509Y-59145000D03*
X83018509Y-60415000D03*
X83018509Y-61685000D03*
X83018509Y-62955000D03*
X83018509Y-64225000D03*
X83018509Y-65495000D03*
X83018509Y-66765000D03*
X83018509Y-68035000D03*
X83018509Y-69305000D03*
X83018509Y-70575000D03*
X83018509Y-71845000D03*
X83018509Y-73115000D03*
X83018509Y-74385000D03*
X83018509Y-75655000D03*
X83018509Y-76925000D03*
X83018509Y-79465000D03*
X83018509Y-78195000D03*
X83018509Y-80735000D03*
X83018509Y-82005000D03*
X83018509Y-83275000D03*
X83018509Y-84545000D03*
X83018509Y-87085000D03*
X83018509Y-85815000D03*
X112228509Y-87085000D03*
X84288509Y-87085000D03*
X84288509Y-88355000D03*
X85558509Y-88355000D03*
X112228509Y-88355000D03*
X110958509Y-88355000D03*
X109688509Y-88355000D03*
X108418509Y-88355000D03*
X107148509Y-88355000D03*
X105878509Y-88355000D03*
X104608509Y-88355000D03*
X103338509Y-88355000D03*
X102068509Y-88355000D03*
X100798509Y-88355000D03*
X99528509Y-88355000D03*
X98258509Y-88355000D03*
X96988509Y-88355000D03*
X96988509Y-88355000D03*
X95718509Y-88355000D03*
X93178509Y-88355000D03*
X94448509Y-88355000D03*
X91908509Y-88355000D03*
X90638509Y-88355000D03*
X89368509Y-88355000D03*
X88098509Y-88355000D03*
X86828509Y-88355000D03*
X108926509Y-57367000D03*
X106894509Y-57367000D03*
X103846509Y-57367000D03*
X100798509Y-57367000D03*
X92162509Y-57367000D03*
X97750509Y-57367000D03*
D15*
X92035509Y-41978000D03*
%TO.N,Net-(P1-PadA5)*%
X90130509Y-57094500D03*
X87336509Y-44159000D03*
%TO.N,/GND*%
X106716709Y-48266800D03*
X107656509Y-48985000D03*
X105878509Y-48985000D03*
X105878509Y-47461000D03*
X107656509Y-47461000D03*
%TO.N,/V_{BATT}*%
X102068509Y-40857000D03*
X98512509Y-43143000D03*
D16*
%TO.N,/V_{DD}*%
X108855709Y-43834200D03*
X105644928Y-53049000D03*
D15*
X113399259Y-54799250D03*
D16*
X102322509Y-45175000D03*
D15*
X89368509Y-52287000D03*
X112482509Y-51779000D03*
X111847509Y-57367000D03*
%TO.N,Net-(R3-Pad2)*%
X91781509Y-40166000D03*
X93551009Y-41737500D03*
%TO.N,Net-(R4-Pad2)*%
X96226509Y-52287000D03*
X100417509Y-52305500D03*
%TO.N,Net-(D2-Pad2)*%
X99377500Y-63500000D03*
X91757500Y-60325000D03*
%TO.N,Net-(D3-Pad2)*%
X97472500Y-60325000D03*
X105092500Y-63500000D03*
%TO.N,/LED Grid/LED Row/DATA_OUT*%
X88098509Y-71120000D03*
X108672509Y-60198000D03*
%TO.N,Net-(D6-Pad2)*%
X93662500Y-71120000D03*
X86042500Y-68580000D03*
%TO.N,Net-(D7-Pad2)*%
X99377500Y-71120000D03*
X91757500Y-67945000D03*
%TO.N,Net-(D8-Pad2)*%
X105092500Y-71120000D03*
X97472500Y-67945000D03*
%TO.N,Net-(D10-Pad4)*%
X103187500Y-67945000D03*
X110807500Y-71120000D03*
%TO.N,/LED Grid/LED Row1/DATA_OUT*%
X108672509Y-67945000D03*
X87895309Y-78613000D03*
%TO.N,Net-(D11-Pad2)*%
X93678989Y-78740000D03*
X86058989Y-76200000D03*
%TO.N,Net-(D12-Pad2)*%
X99393989Y-78740000D03*
X91773989Y-75565000D03*
%TO.N,Net-(D13-Pad2)*%
X105108989Y-78740000D03*
X97488989Y-75565000D03*
%TO.N,Net-(D14-Pad2)*%
X110823989Y-78740000D03*
X103203989Y-75565000D03*
%TO.N,/LED Grid/LED Row2/DATA_OUT*%
X87717509Y-86069000D03*
X108596309Y-75438000D03*
%TO.N,Net-(D16-Pad2)*%
X86042500Y-83820000D03*
X93211505Y-85909004D03*
%TO.N,Net-(D17-Pad2)*%
X98926505Y-85909004D03*
X91757500Y-83185000D03*
%TO.N,Net-(D18-Pad2)*%
X97472500Y-83185000D03*
X104705005Y-85972504D03*
%TO.N,Net-(D19-Pad2)*%
X103187500Y-83185000D03*
X110807500Y-86360000D03*
%TO.N,Net-(D1-Pad2)*%
X93662500Y-63500000D03*
X86042500Y-60960000D03*
%TO.N,Net-(D4-Pad2)*%
X103187500Y-60325000D03*
X110807500Y-63500000D03*
%TO.N,/Controller/VBATTSENSE*%
X102449509Y-43016000D03*
X103283717Y-46626792D03*
%TO.N,/BOOST_EN*%
X109180509Y-51779000D03*
X96226509Y-50001000D03*
%TO.N,/Controller/~{RESET}*%
X85304509Y-52541000D03*
X104608509Y-42889000D03*
X84796509Y-55589000D03*
%TO.N,/CHRG_PG*%
X92599344Y-40346749D03*
X103084509Y-48731000D03*
%TO.N,/CHRG_STAT*%
X103084509Y-48016300D03*
X93675574Y-40492014D03*
%TO.N,/D-*%
X87332509Y-45705500D03*
X109891709Y-50178800D03*
%TO.N,/D+*%
X87336509Y-44921000D03*
X110018709Y-49543800D03*
%TO.N,/DATA*%
X87741518Y-64225000D03*
X110577509Y-57621000D03*
%TO.N,/POWER*%
X99909509Y-55589000D03*
X103965009Y-42889000D03*
X95718509Y-55589000D03*
%TO.N,/LEFT*%
X105225545Y-41422014D03*
X92670509Y-55589000D03*
X87336509Y-55589000D03*
%TO.N,/RIGHT*%
X108183009Y-55589000D03*
X104100509Y-55589000D03*
X103338509Y-42889000D03*
%TD*%
D17*
%TO.N,/LEFT*%
X92670509Y-55589000D02*
X87336509Y-55589000D01*
X110577509Y-56605000D02*
X94804109Y-56605000D01*
X94804109Y-56605000D02*
X93686509Y-56605000D01*
X93686509Y-56605000D02*
X92670509Y-55589000D01*
%TO.N,/POWER*%
X99909509Y-55589000D02*
X95718509Y-55589000D01*
%TO.N,/RIGHT*%
X108183009Y-55589000D02*
X104100509Y-55589000D01*
%TO.N,/Controller/~{RESET}*%
X104608509Y-42889000D02*
X112482509Y-42889000D01*
X112482509Y-42889000D02*
X113012709Y-43419200D01*
X113012709Y-51998616D02*
X110832625Y-54178700D01*
X86828509Y-52541000D02*
X85304509Y-52541000D01*
X113012709Y-43419200D02*
X113012709Y-51998616D01*
X110832625Y-54178700D02*
X88466209Y-54178700D01*
X88466209Y-54178700D02*
X86828509Y-52541000D01*
D18*
%TO.N,/LED Grid/LED Row2/DATA_OUT*%
X110807500Y-81280000D02*
X111104705Y-80982796D01*
X111644309Y-76327000D02*
X111644309Y-80443192D01*
X108596309Y-75438000D02*
X110755309Y-75438000D01*
X110755309Y-75438000D02*
X111644309Y-76327000D01*
X111644309Y-80443192D02*
X111104705Y-80982796D01*
%TO.N,/LED Grid/LED Row1/DATA_OUT*%
X87895309Y-78613000D02*
X86027309Y-78613000D01*
X86027309Y-78613000D02*
X84339309Y-76925000D01*
X84339309Y-76925000D02*
X84339309Y-74549000D01*
X84339309Y-74549000D02*
X85482309Y-73406000D01*
X85482309Y-73406000D02*
X111136309Y-73406000D01*
X111625404Y-72969095D02*
X111188500Y-73406000D01*
X108672509Y-67945000D02*
X110831509Y-67945000D01*
X110831509Y-67945000D02*
X111974509Y-69088000D01*
X111974509Y-69088000D02*
X111974509Y-72619990D01*
X111974509Y-72619990D02*
X111625404Y-72969095D01*
D19*
%TO.N,/DATA*%
X87741518Y-64225000D02*
X85455518Y-64225000D01*
X85455518Y-64225000D02*
X84566518Y-63336000D01*
X84566518Y-63336000D02*
X84566518Y-60034000D01*
X109204518Y-58891000D02*
X110474518Y-57621000D01*
X84566518Y-60034000D02*
X85709518Y-58891000D01*
X85709518Y-58891000D02*
X109204518Y-58891000D01*
D18*
%TO.N,Net-(R3-Pad2)*%
X93297009Y-41737500D02*
X93178509Y-41619000D01*
X93551009Y-41737500D02*
X93297009Y-41737500D01*
X91781509Y-40236021D02*
X91781509Y-40166000D01*
X93178509Y-41619000D02*
X93164488Y-41619000D01*
X93164488Y-41619000D02*
X91781509Y-40236021D01*
%TO.N,/CHRG_PG*%
X103084509Y-48731000D02*
X101560509Y-48731000D01*
X101560509Y-48731000D02*
X94067509Y-41238000D01*
X94067509Y-41238000D02*
X93490595Y-41238000D01*
X93490595Y-41238000D02*
X92599344Y-40346749D01*
D20*
%TO.N,Net-(P1-PadA5)*%
X84034509Y-52033000D02*
X84034509Y-56097000D01*
X84542509Y-56605000D02*
X85032009Y-57094500D01*
X85032009Y-57094500D02*
X90130509Y-57094500D01*
X85050509Y-46445000D02*
X85050509Y-50509000D01*
X87336509Y-44159000D02*
X85050509Y-46445000D01*
X85050509Y-50509000D02*
X85050509Y-51017000D01*
X85050509Y-51017000D02*
X84034509Y-52033000D01*
X84034509Y-56097000D02*
X84542509Y-56605000D01*
D18*
%TO.N,/V_{BATT}*%
X98512509Y-43143000D02*
X99020509Y-42635000D01*
X99020509Y-42635000D02*
X100290509Y-42635000D01*
X100290509Y-42635000D02*
X102068509Y-40857000D01*
D21*
%TO.N,/V_{DD}*%
X102830509Y-43905000D02*
X111593509Y-43905000D01*
D19*
X113399259Y-57212250D02*
X113244509Y-57367000D01*
D21*
X112482509Y-44794000D02*
X112482509Y-51779000D01*
X102322509Y-45175000D02*
X102322509Y-44413000D01*
D19*
X113399259Y-54799250D02*
X113399259Y-57212250D01*
D21*
X111212509Y-53049000D02*
X112482509Y-51779000D01*
X107148509Y-53049000D02*
X111212509Y-53049000D01*
X90130509Y-53049000D02*
X89368509Y-52287000D01*
D19*
X113244509Y-57367000D02*
X111847509Y-57367000D01*
D21*
X105644928Y-53049000D02*
X107148509Y-53049000D01*
X107148509Y-53049000D02*
X90130509Y-53049000D01*
X111593509Y-43905000D02*
X112482509Y-44794000D01*
X102322509Y-44413000D02*
X102830509Y-43905000D01*
D19*
%TO.N,Net-(R4-Pad2)*%
X100417509Y-52305500D02*
X96245009Y-52305500D01*
X96245009Y-52305500D02*
X96226509Y-52287000D01*
%TO.N,Net-(D2-Pad2)*%
X93662500Y-62230000D02*
X98107500Y-62230000D01*
X98107500Y-62230000D02*
X99377500Y-63500000D01*
X91757500Y-60325000D02*
X93662500Y-62230000D01*
%TO.N,Net-(D3-Pad2)*%
X103822500Y-62230000D02*
X105092500Y-63500000D01*
X99377500Y-62230000D02*
X103822500Y-62230000D01*
X97472500Y-60325000D02*
X99377500Y-62230000D01*
D18*
%TO.N,/LED Grid/LED Row/DATA_OUT*%
X110958509Y-60198000D02*
X111974509Y-61214000D01*
X111974509Y-61214000D02*
X111974509Y-65278000D01*
X111974509Y-65278000D02*
X110958509Y-66294000D01*
X84796509Y-67183000D02*
X84796509Y-70104000D01*
X85558509Y-70866000D02*
X87844509Y-70866000D01*
X87844509Y-70866000D02*
X88098509Y-71120000D01*
X108672509Y-60198000D02*
X110958509Y-60198000D01*
X84796509Y-70104000D02*
X85558509Y-70866000D01*
X85685509Y-66294000D02*
X84796509Y-67183000D01*
X110958509Y-66294000D02*
X85685509Y-66294000D01*
D19*
%TO.N,Net-(D6-Pad2)*%
X86042500Y-68580000D02*
X87312500Y-69850000D01*
X87312500Y-69850000D02*
X92392500Y-69850000D01*
X92392500Y-69850000D02*
X93662500Y-71120000D01*
%TO.N,Net-(D7-Pad2)*%
X91757500Y-67945000D02*
X93662500Y-69850000D01*
X98107500Y-69850000D02*
X99377500Y-71120000D01*
X93662500Y-69850000D02*
X98107500Y-69850000D01*
%TO.N,Net-(D8-Pad2)*%
X97472500Y-67945000D02*
X99377500Y-69850000D01*
X99377500Y-69850000D02*
X103822500Y-69850000D01*
X103822500Y-69850000D02*
X105092500Y-71120000D01*
%TO.N,Net-(D10-Pad4)*%
X103187500Y-67945000D02*
X105092500Y-69850000D01*
X105092500Y-69850000D02*
X109537500Y-69850000D01*
X109537500Y-69850000D02*
X110807500Y-71120000D01*
%TO.N,Net-(D11-Pad2)*%
X86058989Y-76200000D02*
X87328989Y-77470000D01*
X92408989Y-77470000D02*
X93678989Y-78740000D01*
X87328989Y-77470000D02*
X92408989Y-77470000D01*
%TO.N,Net-(D12-Pad2)*%
X93678989Y-77470000D02*
X98123989Y-77470000D01*
X98123989Y-77470000D02*
X99393989Y-78740000D01*
X91773989Y-75565000D02*
X93678989Y-77470000D01*
%TO.N,Net-(D13-Pad2)*%
X99393989Y-77470000D02*
X103838989Y-77470000D01*
X97488989Y-75565000D02*
X99393989Y-77470000D01*
X103838989Y-77470000D02*
X105108989Y-78740000D01*
%TO.N,Net-(D14-Pad2)*%
X109553989Y-77470000D02*
X110823989Y-78740000D01*
X105108989Y-77470000D02*
X109553989Y-77470000D01*
X103203989Y-75565000D02*
X105108989Y-77470000D01*
D18*
%TO.N,/LED Grid/LED Row2/DATA_OUT*%
X87717509Y-86069000D02*
X85116500Y-86069000D01*
X85407500Y-81280000D02*
X110807500Y-81280000D01*
X85116500Y-86069000D02*
X84518500Y-85471000D01*
X84518500Y-85471000D02*
X84518500Y-82169000D01*
X84518500Y-82169000D02*
X85407500Y-81280000D01*
D19*
%TO.N,Net-(D16-Pad2)*%
X93211505Y-85909004D02*
X92392501Y-85090000D01*
X92392501Y-85090000D02*
X87312500Y-85090000D01*
X87312500Y-85090000D02*
X86042500Y-83820000D01*
%TO.N,Net-(D17-Pad2)*%
X93662500Y-85090000D02*
X91757500Y-83185000D01*
X98107501Y-85090000D02*
X93662500Y-85090000D01*
X98926505Y-85909004D02*
X98107501Y-85090000D01*
%TO.N,Net-(D18-Pad2)*%
X99377500Y-85090000D02*
X97472500Y-83185000D01*
X104705005Y-85972504D02*
X103822501Y-85090000D01*
X103822501Y-85090000D02*
X99377500Y-85090000D01*
%TO.N,Net-(D19-Pad2)*%
X109537500Y-85090000D02*
X110807500Y-86360000D01*
X105092500Y-85090000D02*
X109537500Y-85090000D01*
X103187500Y-83185000D02*
X105092500Y-85090000D01*
%TO.N,Net-(D1-Pad2)*%
X86042500Y-60960000D02*
X87312500Y-62230000D01*
X87312500Y-62230000D02*
X92392500Y-62230000D01*
X92392500Y-62230000D02*
X93662500Y-63500000D01*
%TO.N,Net-(D4-Pad2)*%
X105092500Y-62230000D02*
X109537500Y-62230000D01*
X103187500Y-60325000D02*
X105092500Y-62230000D01*
X109537500Y-62230000D02*
X110807500Y-63500000D01*
D18*
%TO.N,/Controller/VBATTSENSE*%
X101560509Y-45556000D02*
X101560509Y-43905000D01*
X102830509Y-45937000D02*
X103283717Y-46390208D01*
X103283717Y-46626792D02*
X103283717Y-46390208D01*
X101560509Y-43905000D02*
X102449509Y-43016000D01*
X101941509Y-45937000D02*
X102830509Y-45937000D01*
X101941509Y-45937000D02*
X101560509Y-45556000D01*
D19*
%TO.N,/BOOST_EN*%
X109180509Y-51779000D02*
X98004509Y-51779000D01*
X98004509Y-51779000D02*
X96226509Y-50001000D01*
D17*
%TO.N,/Controller/~{RESET}*%
X84796509Y-55589000D02*
X84796509Y-53049000D01*
X84796509Y-53049000D02*
X85304509Y-52541000D01*
D18*
%TO.N,/CHRG_STAT*%
X102115809Y-48016300D02*
X94591523Y-40492014D01*
X103084509Y-48016300D02*
X102115809Y-48016300D01*
X94591523Y-40492014D02*
X93675574Y-40492014D01*
%TO.N,/D-*%
X100537457Y-50890000D02*
X101433509Y-50890000D01*
D19*
X98762983Y-49115526D02*
X100537457Y-50890000D01*
D18*
X99080483Y-49433026D02*
X100537457Y-50890000D01*
D19*
X109180509Y-50890000D02*
X109891709Y-50178800D01*
X87482009Y-45556000D02*
X95203457Y-45556000D01*
X95203457Y-45556000D02*
X98762983Y-49115526D01*
X100537457Y-50890000D02*
X103338509Y-50890000D01*
X99080483Y-49433026D02*
X98762983Y-49115526D01*
X103338509Y-50890000D02*
X101433509Y-50890000D01*
X87332509Y-45705500D02*
X87482009Y-45556000D01*
X103338509Y-50890000D02*
X109180509Y-50890000D01*
%TO.N,/D+*%
X109764709Y-49543800D02*
X110018709Y-49543800D01*
X108872509Y-50436000D02*
X109764709Y-49543800D01*
X87517509Y-45102000D02*
X95391509Y-45102000D01*
X87336509Y-44921000D02*
X87517509Y-45102000D01*
X100725509Y-50436000D02*
X108872509Y-50436000D01*
X95391509Y-45102000D02*
X100725509Y-50436000D01*
D17*
%TO.N,/POWER*%
X112990509Y-42381000D02*
X104354509Y-42381000D01*
X113365109Y-42755600D02*
X112990509Y-42381000D01*
X104354509Y-42381000D02*
X103965009Y-42770500D01*
X101560509Y-54827000D02*
X110958509Y-54827000D01*
X99909509Y-55589000D02*
X100798509Y-55589000D01*
X100798509Y-55589000D02*
X101560509Y-54827000D01*
X103965009Y-42770500D02*
X103965009Y-42889000D01*
X110958509Y-54827000D02*
X113365109Y-52420400D01*
X113365109Y-52420400D02*
X113365109Y-42755600D01*
%TO.N,/LEFT*%
X114133509Y-53049000D02*
X110577509Y-56605000D01*
X113174523Y-41422014D02*
X114133509Y-42381000D01*
X105098545Y-41422014D02*
X113174523Y-41422014D01*
X114133509Y-42381000D02*
X114133509Y-53049000D01*
%TO.N,/RIGHT*%
X104142102Y-42004800D02*
X103338509Y-42808393D01*
X108183009Y-55589000D02*
X110958509Y-55589000D01*
X113741309Y-42599772D02*
X113146337Y-42004800D01*
X113146337Y-42004800D02*
X104142102Y-42004800D01*
X110958509Y-55589000D02*
X113741309Y-52806200D01*
X103338509Y-42808393D02*
X103338509Y-42889000D01*
X113741309Y-52806200D02*
X113741309Y-42599772D01*
%TD*%
%TA.AperFunction,Conductor*%
%TO.N,/GND*%
G36*
X97522988Y-39351093D02*
G01*
X97548708Y-39395642D01*
X97539775Y-39446300D01*
X97495882Y-39480840D01*
X97358610Y-39521241D01*
X97358607Y-39521242D01*
X97355081Y-39522280D01*
X97351824Y-39523983D01*
X97351821Y-39523984D01*
X97175770Y-39616022D01*
X97172511Y-39617726D01*
X97169645Y-39620030D01*
X97169644Y-39620031D01*
X97014826Y-39744507D01*
X97014823Y-39744510D01*
X97011956Y-39746815D01*
X97009593Y-39749631D01*
X97009590Y-39749634D01*
X96881897Y-39901812D01*
X96881894Y-39901816D01*
X96879533Y-39904630D01*
X96877762Y-39907852D01*
X96877761Y-39907853D01*
X96816823Y-40018699D01*
X96780285Y-40085162D01*
X96773852Y-40105442D01*
X96724898Y-40259766D01*
X96717993Y-40281532D01*
X96695029Y-40486262D01*
X96695337Y-40489930D01*
X96695337Y-40489933D01*
X96705025Y-40605303D01*
X96712268Y-40691553D01*
X96769053Y-40889586D01*
X96863221Y-41072818D01*
X96991186Y-41234270D01*
X97148073Y-41367791D01*
X97151274Y-41369580D01*
X97151277Y-41369582D01*
X97324696Y-41466503D01*
X97324701Y-41466505D01*
X97327907Y-41468297D01*
X97523838Y-41531959D01*
X97637652Y-41545530D01*
X97724745Y-41555915D01*
X97724747Y-41555915D01*
X97728403Y-41556351D01*
X97933809Y-41540546D01*
X98080093Y-41499703D01*
X98128689Y-41486135D01*
X98128691Y-41486134D01*
X98132234Y-41485145D01*
X98316119Y-41392258D01*
X98345143Y-41369582D01*
X98354443Y-41362316D01*
X99288109Y-41362316D01*
X99288830Y-41369637D01*
X99295506Y-41403198D01*
X99301067Y-41416623D01*
X99326523Y-41454720D01*
X99336789Y-41464986D01*
X99374886Y-41490442D01*
X99388311Y-41496003D01*
X99421872Y-41502679D01*
X99429193Y-41503400D01*
X99769250Y-41503400D01*
X99779407Y-41499703D01*
X99782509Y-41494331D01*
X99782509Y-41022259D01*
X99778812Y-41012102D01*
X99773440Y-41009000D01*
X99301368Y-41009000D01*
X99291211Y-41012697D01*
X99288109Y-41018069D01*
X99288109Y-41362316D01*
X98354443Y-41362316D01*
X98475567Y-41267685D01*
X98475571Y-41267681D01*
X98478460Y-41265424D01*
X98613073Y-41109472D01*
X98646285Y-41051009D01*
X98713014Y-40933545D01*
X98713016Y-40933542D01*
X98714832Y-40930344D01*
X98779860Y-40734863D01*
X98802922Y-40552305D01*
X98805416Y-40532565D01*
X98805416Y-40532562D01*
X98805680Y-40530474D01*
X98806092Y-40501000D01*
X98805211Y-40492014D01*
X98786349Y-40299637D01*
X98786348Y-40299632D01*
X98785989Y-40295970D01*
X98726444Y-40098749D01*
X98723449Y-40093115D01*
X98663167Y-39979741D01*
X99288109Y-39979741D01*
X99291806Y-39989898D01*
X99297178Y-39993000D01*
X99769250Y-39993000D01*
X99779407Y-39989303D01*
X99782509Y-39983931D01*
X99782509Y-39979741D01*
X100798509Y-39979741D01*
X100802206Y-39989898D01*
X100807578Y-39993000D01*
X101279650Y-39993000D01*
X101289807Y-39989303D01*
X101292909Y-39983931D01*
X101292909Y-39639684D01*
X101292188Y-39632363D01*
X101285512Y-39598802D01*
X101279951Y-39585377D01*
X101254495Y-39547280D01*
X101244229Y-39537014D01*
X101206132Y-39511558D01*
X101192707Y-39505997D01*
X101159146Y-39499321D01*
X101151825Y-39498600D01*
X100811768Y-39498600D01*
X100801611Y-39502297D01*
X100798509Y-39507669D01*
X100798509Y-39979741D01*
X99782509Y-39979741D01*
X99782509Y-39511859D01*
X99778812Y-39501702D01*
X99773440Y-39498600D01*
X99429193Y-39498600D01*
X99421872Y-39499321D01*
X99388311Y-39505997D01*
X99374886Y-39511558D01*
X99336789Y-39537014D01*
X99326523Y-39547280D01*
X99301067Y-39585377D01*
X99295506Y-39598802D01*
X99288830Y-39632363D01*
X99288109Y-39639684D01*
X99288109Y-39979741D01*
X98663167Y-39979741D01*
X98637903Y-39932226D01*
X98629727Y-39916849D01*
X98499520Y-39757200D01*
X98340784Y-39625882D01*
X98159564Y-39527897D01*
X98006568Y-39480537D01*
X97965594Y-39449437D01*
X97954198Y-39399275D01*
X97977711Y-39353524D01*
X98028805Y-39333500D01*
X112183072Y-39333500D01*
X112194642Y-39334395D01*
X112222231Y-39338691D01*
X112227538Y-39337997D01*
X112227539Y-39337997D01*
X112232225Y-39337384D01*
X112243459Y-39335915D01*
X112258124Y-39335441D01*
X112374430Y-39343065D01*
X112488754Y-39350559D01*
X112498506Y-39351843D01*
X112623984Y-39376802D01*
X112749466Y-39401762D01*
X112758960Y-39404306D01*
X112880112Y-39445432D01*
X113001259Y-39486557D01*
X113010346Y-39490321D01*
X113086543Y-39527897D01*
X113239839Y-39603495D01*
X113248353Y-39608411D01*
X113452035Y-39744507D01*
X113461103Y-39750566D01*
X113468905Y-39756553D01*
X113655386Y-39920092D01*
X113661280Y-39925261D01*
X113668233Y-39932213D01*
X113741721Y-40016010D01*
X113836954Y-40124604D01*
X113842936Y-40132400D01*
X113985092Y-40345151D01*
X113990010Y-40353670D01*
X114103183Y-40583162D01*
X114106947Y-40592250D01*
X114189194Y-40834541D01*
X114191740Y-40844043D01*
X114241658Y-41095003D01*
X114242942Y-41104755D01*
X114257632Y-41328877D01*
X114256898Y-41345363D01*
X114256371Y-41348748D01*
X114254818Y-41358724D01*
X114255512Y-41364031D01*
X114255512Y-41364034D01*
X114259374Y-41393565D01*
X114260009Y-41403316D01*
X114260009Y-41934639D01*
X114242416Y-41982977D01*
X114197867Y-42008697D01*
X114147209Y-41999764D01*
X114131635Y-41987813D01*
X113405499Y-41261677D01*
X113402444Y-41258138D01*
X113400510Y-41254181D01*
X113389074Y-41243572D01*
X113366891Y-41222995D01*
X113364859Y-41221037D01*
X113351981Y-41208159D01*
X113349123Y-41206198D01*
X113347445Y-41204804D01*
X113344366Y-41202100D01*
X113330030Y-41188801D01*
X113330028Y-41188800D01*
X113324939Y-41184079D01*
X113313442Y-41179493D01*
X113298771Y-41171658D01*
X113288567Y-41164658D01*
X113263566Y-41158725D01*
X113253067Y-41155404D01*
X113246965Y-41152970D01*
X113229199Y-41145882D01*
X113223406Y-41145314D01*
X113215856Y-41145314D01*
X113198493Y-41143282D01*
X113195028Y-41142460D01*
X113188273Y-41140857D01*
X113181395Y-41141793D01*
X113181394Y-41141793D01*
X113160571Y-41144627D01*
X113150430Y-41145314D01*
X105546385Y-41145314D01*
X105498047Y-41127721D01*
X105493211Y-41123288D01*
X105463887Y-41093964D01*
X105350849Y-41036368D01*
X105285892Y-41026080D01*
X105231392Y-41017448D01*
X105225545Y-41016522D01*
X105219698Y-41017448D01*
X105165198Y-41026080D01*
X105100241Y-41036368D01*
X104987203Y-41093964D01*
X104897495Y-41183672D01*
X104839899Y-41296710D01*
X104833051Y-41339951D01*
X104832392Y-41344109D01*
X104830353Y-41353253D01*
X104818395Y-41394545D01*
X104818994Y-41401462D01*
X104820519Y-41419070D01*
X104820127Y-41419104D01*
X104820303Y-41420434D01*
X104820053Y-41422014D01*
X104820979Y-41427860D01*
X104820979Y-41427861D01*
X104821228Y-41429433D01*
X104821874Y-41434709D01*
X104827290Y-41497240D01*
X104830340Y-41503479D01*
X104832195Y-41510168D01*
X104832079Y-41510200D01*
X104835974Y-41522533D01*
X104838827Y-41540546D01*
X104839899Y-41547318D01*
X104842585Y-41552589D01*
X104842585Y-41552590D01*
X104849185Y-41565542D01*
X104874997Y-41616200D01*
X104876301Y-41618760D01*
X104882570Y-41669816D01*
X104854554Y-41712957D01*
X104809297Y-41728100D01*
X104192052Y-41728100D01*
X104187391Y-41727758D01*
X104183223Y-41726327D01*
X104137407Y-41728047D01*
X104134586Y-41728100D01*
X104116366Y-41728100D01*
X104112955Y-41728735D01*
X104110792Y-41728935D01*
X104106704Y-41729200D01*
X104080217Y-41730194D01*
X104068845Y-41735080D01*
X104052935Y-41739914D01*
X104040765Y-41742180D01*
X104024298Y-41752331D01*
X104018891Y-41755664D01*
X104009113Y-41760743D01*
X103990386Y-41768788D01*
X103990382Y-41768791D01*
X103985509Y-41770884D01*
X103981011Y-41774578D01*
X103975673Y-41779916D01*
X103961959Y-41790757D01*
X103958928Y-41792625D01*
X103958927Y-41792626D01*
X103953017Y-41796269D01*
X103936094Y-41818524D01*
X103929409Y-41826180D01*
X103276858Y-42478731D01*
X103235448Y-42499831D01*
X103225753Y-42501367D01*
X103213205Y-42503354D01*
X103100167Y-42560950D01*
X103010459Y-42650658D01*
X103007771Y-42655934D01*
X103007770Y-42655935D01*
X102991458Y-42687950D01*
X102952863Y-42763696D01*
X102951937Y-42769543D01*
X102945811Y-42808221D01*
X102920873Y-42853211D01*
X102872850Y-42871646D01*
X102824212Y-42854898D01*
X102804533Y-42830597D01*
X102780248Y-42782935D01*
X102780247Y-42782934D01*
X102777559Y-42777658D01*
X102687851Y-42687950D01*
X102663011Y-42675293D01*
X102625018Y-42655935D01*
X102574813Y-42630354D01*
X102449509Y-42610508D01*
X102324205Y-42630354D01*
X102274000Y-42655935D01*
X102236008Y-42675293D01*
X102211167Y-42687950D01*
X102121459Y-42777658D01*
X102063863Y-42890696D01*
X102060816Y-42909935D01*
X102051505Y-42968723D01*
X102030405Y-43010133D01*
X101386576Y-43653962D01*
X101382468Y-43657508D01*
X101378240Y-43659575D01*
X101373519Y-43664664D01*
X101373518Y-43664665D01*
X101344283Y-43696181D01*
X101342325Y-43698213D01*
X101328261Y-43712277D01*
X101326304Y-43715129D01*
X101324165Y-43717703D01*
X101321465Y-43720778D01*
X101312256Y-43730706D01*
X101302108Y-43741646D01*
X101299536Y-43748092D01*
X101299535Y-43748094D01*
X101296862Y-43754795D01*
X101289028Y-43769468D01*
X101281017Y-43781146D01*
X101279414Y-43787901D01*
X101274464Y-43808761D01*
X101271145Y-43819255D01*
X101260626Y-43845622D01*
X101260009Y-43851915D01*
X101260009Y-43860870D01*
X101257977Y-43878233D01*
X101255169Y-43890066D01*
X101256105Y-43896944D01*
X101256105Y-43896945D01*
X101259322Y-43920582D01*
X101260009Y-43930723D01*
X101260009Y-45501484D01*
X101259612Y-45506891D01*
X101258084Y-45511342D01*
X101258345Y-45518282D01*
X101259956Y-45561214D01*
X101260009Y-45564035D01*
X101260009Y-45583948D01*
X101260641Y-45587344D01*
X101260950Y-45590691D01*
X101261215Y-45594775D01*
X101262022Y-45616270D01*
X101262023Y-45616273D01*
X101262283Y-45623208D01*
X101267874Y-45636221D01*
X101272707Y-45652131D01*
X101275300Y-45666053D01*
X101278944Y-45671964D01*
X101278944Y-45671965D01*
X101290193Y-45690216D01*
X101295269Y-45699988D01*
X101304373Y-45721177D01*
X101304376Y-45721181D01*
X101306473Y-45726063D01*
X101310487Y-45730949D01*
X101316817Y-45737279D01*
X101327658Y-45750993D01*
X101334041Y-45761348D01*
X101358554Y-45779988D01*
X101366211Y-45786673D01*
X101690478Y-46110941D01*
X101694018Y-46115042D01*
X101696084Y-46119269D01*
X101732677Y-46153214D01*
X101734709Y-46155172D01*
X101748785Y-46169248D01*
X101751642Y-46171208D01*
X101754226Y-46173355D01*
X101757306Y-46176060D01*
X101773065Y-46190680D01*
X101773068Y-46190682D01*
X101778155Y-46195401D01*
X101791309Y-46200649D01*
X101805977Y-46208481D01*
X101817655Y-46216492D01*
X101824412Y-46218095D01*
X101824413Y-46218096D01*
X101836880Y-46221054D01*
X101845272Y-46223046D01*
X101855764Y-46226364D01*
X101882131Y-46236883D01*
X101888424Y-46237500D01*
X101897379Y-46237500D01*
X101914742Y-46239532D01*
X101926575Y-46242340D01*
X101933453Y-46241404D01*
X101933454Y-46241404D01*
X101957091Y-46238187D01*
X101967232Y-46237500D01*
X102674890Y-46237500D01*
X102723228Y-46255093D01*
X102728064Y-46259526D01*
X102883867Y-46415329D01*
X102905607Y-46461949D01*
X102902212Y-46491744D01*
X102900761Y-46496208D01*
X102898071Y-46501488D01*
X102897145Y-46507335D01*
X102897144Y-46507339D01*
X102880730Y-46610974D01*
X102878225Y-46626792D01*
X102898071Y-46752096D01*
X102955667Y-46865134D01*
X103045375Y-46954842D01*
X103158413Y-47012438D01*
X103283717Y-47032284D01*
X103409021Y-47012438D01*
X103522059Y-46954842D01*
X103611767Y-46865134D01*
X103669363Y-46752096D01*
X103689209Y-46626792D01*
X103669363Y-46501488D01*
X103611767Y-46388450D01*
X103604199Y-46380882D01*
X103584816Y-46336466D01*
X103583730Y-46336711D01*
X103582456Y-46331060D01*
X103582226Y-46330532D01*
X103582204Y-46329939D01*
X103582203Y-46329937D01*
X103581943Y-46323000D01*
X103576352Y-46309987D01*
X103571519Y-46294077D01*
X103570197Y-46286980D01*
X103568926Y-46280155D01*
X103564286Y-46272627D01*
X103554033Y-46255992D01*
X103548957Y-46246220D01*
X103539853Y-46225031D01*
X103539850Y-46225027D01*
X103537753Y-46220145D01*
X103533739Y-46215259D01*
X103527409Y-46208929D01*
X103516568Y-46195215D01*
X103513829Y-46190771D01*
X103513828Y-46190770D01*
X103510185Y-46184860D01*
X103485659Y-46166210D01*
X103478012Y-46159532D01*
X103081547Y-45763067D01*
X103078001Y-45758959D01*
X103075934Y-45754731D01*
X103049256Y-45729983D01*
X103039328Y-45720774D01*
X103037296Y-45718816D01*
X103023232Y-45704752D01*
X103020380Y-45702795D01*
X103017806Y-45700656D01*
X103014731Y-45697956D01*
X102998952Y-45683320D01*
X102993863Y-45678599D01*
X102987417Y-45676027D01*
X102987415Y-45676026D01*
X102980714Y-45673353D01*
X102966041Y-45665519D01*
X102965706Y-45665289D01*
X102954363Y-45657508D01*
X102926746Y-45650954D01*
X102916254Y-45647636D01*
X102889887Y-45637117D01*
X102883594Y-45636500D01*
X102874639Y-45636500D01*
X102857275Y-45634468D01*
X102845443Y-45631660D01*
X102845740Y-45630410D01*
X102805150Y-45613347D01*
X102781637Y-45567596D01*
X102793033Y-45517434D01*
X102796584Y-45512393D01*
X102827447Y-45472171D01*
X102827449Y-45472167D01*
X102830448Y-45468259D01*
X102889042Y-45326802D01*
X102893413Y-45293607D01*
X102908384Y-45179884D01*
X102909027Y-45175000D01*
X102898115Y-45092112D01*
X102889685Y-45028079D01*
X102889684Y-45028076D01*
X102889042Y-45023198D01*
X102830448Y-44881741D01*
X102792547Y-44832347D01*
X102777009Y-44786571D01*
X102777009Y-44632408D01*
X102794602Y-44584070D01*
X102799035Y-44579234D01*
X102996743Y-44381526D01*
X103043363Y-44359786D01*
X103049917Y-44359500D01*
X108589404Y-44359500D01*
X108618182Y-44365224D01*
X108703907Y-44400733D01*
X108708785Y-44401375D01*
X108708788Y-44401376D01*
X108850825Y-44420075D01*
X108855709Y-44420718D01*
X108860593Y-44420075D01*
X109002630Y-44401376D01*
X109002633Y-44401375D01*
X109007511Y-44400733D01*
X109093236Y-44365224D01*
X109122014Y-44359500D01*
X111374101Y-44359500D01*
X111422439Y-44377093D01*
X111427275Y-44381526D01*
X112005983Y-44960234D01*
X112027723Y-45006854D01*
X112028009Y-45013408D01*
X112028009Y-51559592D01*
X112010416Y-51607930D01*
X112005983Y-51612766D01*
X111046275Y-52572474D01*
X110999655Y-52594214D01*
X110993101Y-52594500D01*
X106033357Y-52594500D01*
X105987581Y-52578962D01*
X105938187Y-52541061D01*
X105796730Y-52482467D01*
X105791852Y-52481825D01*
X105791849Y-52481824D01*
X105649812Y-52463125D01*
X105644928Y-52462482D01*
X105640044Y-52463125D01*
X105498007Y-52481824D01*
X105498004Y-52481825D01*
X105493126Y-52482467D01*
X105351669Y-52541061D01*
X105302275Y-52578962D01*
X105256499Y-52594500D01*
X100842463Y-52594500D01*
X100794125Y-52576907D01*
X100768405Y-52532358D01*
X100775459Y-52485160D01*
X100777159Y-52481824D01*
X100803155Y-52430804D01*
X100823001Y-52305500D01*
X100805256Y-52193463D01*
X100815071Y-52142969D01*
X100855047Y-52110597D01*
X100879530Y-52106500D01*
X108923033Y-52106500D01*
X108957173Y-52114696D01*
X109055205Y-52164646D01*
X109180509Y-52184492D01*
X109305813Y-52164646D01*
X109418851Y-52107050D01*
X109508559Y-52017342D01*
X109511919Y-52010749D01*
X109549245Y-51937492D01*
X109566155Y-51904304D01*
X109586001Y-51779000D01*
X109566155Y-51653696D01*
X109534077Y-51590740D01*
X109511248Y-51545935D01*
X109511247Y-51545934D01*
X109508559Y-51540658D01*
X109418851Y-51450950D01*
X109385403Y-51433907D01*
X109366382Y-51424215D01*
X109305813Y-51393354D01*
X109180509Y-51373508D01*
X109055205Y-51393354D01*
X108984316Y-51429474D01*
X108957173Y-51443304D01*
X108923033Y-51451500D01*
X98171312Y-51451500D01*
X98122974Y-51433907D01*
X98118138Y-51429474D01*
X96638428Y-49949765D01*
X96617328Y-49908356D01*
X96613081Y-49881542D01*
X96612155Y-49875696D01*
X96554559Y-49762658D01*
X96464851Y-49672950D01*
X96351813Y-49615354D01*
X96226509Y-49595508D01*
X96101205Y-49615354D01*
X95988167Y-49672950D01*
X95898459Y-49762658D01*
X95840863Y-49875696D01*
X95821017Y-50001000D01*
X95840863Y-50126304D01*
X95898459Y-50239342D01*
X95988167Y-50329050D01*
X96101205Y-50386646D01*
X96107051Y-50387572D01*
X96133865Y-50391819D01*
X96175274Y-50412919D01*
X97611980Y-51849626D01*
X97633720Y-51896246D01*
X97620406Y-51945933D01*
X97578269Y-51975438D01*
X97558806Y-51978000D01*
X96513929Y-51978000D01*
X96469725Y-51963636D01*
X96469038Y-51963137D01*
X96464851Y-51958950D01*
X96351813Y-51901354D01*
X96226509Y-51881508D01*
X96101205Y-51901354D01*
X96094185Y-51904931D01*
X96030281Y-51937492D01*
X95988167Y-51958950D01*
X95898459Y-52048658D01*
X95840863Y-52161696D01*
X95834959Y-52198974D01*
X95824592Y-52264431D01*
X95821017Y-52287000D01*
X95840863Y-52412304D01*
X95843550Y-52417577D01*
X95877985Y-52485160D01*
X95884254Y-52536216D01*
X95856237Y-52579357D01*
X95810981Y-52594500D01*
X90349917Y-52594500D01*
X90301579Y-52576907D01*
X90296743Y-52572474D01*
X89665742Y-51941473D01*
X89583585Y-51880791D01*
X89578283Y-51878929D01*
X89578281Y-51878928D01*
X89494840Y-51849626D01*
X89454635Y-51835507D01*
X89449020Y-51835286D01*
X89449018Y-51835286D01*
X89372788Y-51832292D01*
X89318072Y-51830142D01*
X89290811Y-51837370D01*
X89191405Y-51863726D01*
X89191404Y-51863726D01*
X89185967Y-51865168D01*
X89181196Y-51868144D01*
X89181195Y-51868144D01*
X89087736Y-51926431D01*
X89070000Y-51937492D01*
X89066317Y-51941736D01*
X89066315Y-51941738D01*
X89017635Y-51997837D01*
X88980427Y-52040715D01*
X88952953Y-52102860D01*
X88928558Y-52158041D01*
X88925165Y-52165715D01*
X88909102Y-52301438D01*
X88910112Y-52306968D01*
X88910112Y-52306971D01*
X88932645Y-52430348D01*
X88933656Y-52435883D01*
X88996657Y-52557166D01*
X89001003Y-52562254D01*
X89786878Y-53348129D01*
X89792760Y-53354747D01*
X89815868Y-53384059D01*
X89820488Y-53387252D01*
X89820489Y-53387253D01*
X89865250Y-53418189D01*
X89867172Y-53419563D01*
X89915433Y-53455209D01*
X89920549Y-53457006D01*
X89920822Y-53457172D01*
X89921133Y-53457324D01*
X89923227Y-53458391D01*
X89923536Y-53458555D01*
X89923836Y-53458681D01*
X89928298Y-53461764D01*
X89975678Y-53476748D01*
X89985515Y-53479859D01*
X89987756Y-53480607D01*
X90039080Y-53498631D01*
X90039082Y-53498631D01*
X90044383Y-53500493D01*
X90049800Y-53500706D01*
X90050798Y-53500958D01*
X90054521Y-53501683D01*
X90058606Y-53502975D01*
X90063236Y-53503339D01*
X90063799Y-53503384D01*
X90063807Y-53503384D01*
X90065277Y-53503500D01*
X90119448Y-53503500D01*
X90122401Y-53503558D01*
X90180946Y-53505858D01*
X90186379Y-53504418D01*
X90190580Y-53503954D01*
X90198831Y-53503500D01*
X105256499Y-53503500D01*
X105302275Y-53519038D01*
X105351669Y-53556939D01*
X105493126Y-53615533D01*
X105498004Y-53616175D01*
X105498007Y-53616176D01*
X105640044Y-53634875D01*
X105644928Y-53635518D01*
X105649812Y-53634875D01*
X105791849Y-53616176D01*
X105791852Y-53616175D01*
X105796730Y-53615533D01*
X105938187Y-53556939D01*
X105987581Y-53519038D01*
X106033357Y-53503500D01*
X110934964Y-53503500D01*
X110983302Y-53521093D01*
X111009022Y-53565642D01*
X111000089Y-53616300D01*
X110988138Y-53631874D01*
X110740038Y-53879974D01*
X110693418Y-53901714D01*
X110686864Y-53902000D01*
X88611970Y-53902000D01*
X88563632Y-53884407D01*
X88558796Y-53879974D01*
X87059485Y-52380663D01*
X87056430Y-52377124D01*
X87054496Y-52373167D01*
X87020876Y-52341980D01*
X87018845Y-52340023D01*
X87005967Y-52327145D01*
X87003109Y-52325184D01*
X87001431Y-52323790D01*
X86998352Y-52321086D01*
X86984016Y-52307787D01*
X86984014Y-52307786D01*
X86978925Y-52303065D01*
X86967428Y-52298479D01*
X86952757Y-52290644D01*
X86942553Y-52283644D01*
X86917552Y-52277711D01*
X86907053Y-52274390D01*
X86900951Y-52271956D01*
X86883185Y-52264868D01*
X86877392Y-52264300D01*
X86869842Y-52264300D01*
X86852479Y-52262268D01*
X86849014Y-52261446D01*
X86842259Y-52259843D01*
X86835381Y-52260779D01*
X86835380Y-52260779D01*
X86814557Y-52263613D01*
X86804416Y-52264300D01*
X85625349Y-52264300D01*
X85577011Y-52246707D01*
X85572175Y-52242274D01*
X85542851Y-52212950D01*
X85429813Y-52155354D01*
X85304509Y-52135508D01*
X85179205Y-52155354D01*
X85066167Y-52212950D01*
X84976459Y-52302658D01*
X84918863Y-52415696D01*
X84908390Y-52481824D01*
X84900171Y-52533715D01*
X84879071Y-52575125D01*
X84636172Y-52818024D01*
X84632633Y-52821079D01*
X84628676Y-52823013D01*
X84623957Y-52828100D01*
X84623956Y-52828101D01*
X84597490Y-52856632D01*
X84595532Y-52858664D01*
X84582654Y-52871542D01*
X84580693Y-52874400D01*
X84579299Y-52876078D01*
X84576595Y-52879157D01*
X84563296Y-52893493D01*
X84563295Y-52893495D01*
X84558574Y-52898584D01*
X84553988Y-52910081D01*
X84546153Y-52924752D01*
X84539153Y-52934956D01*
X84533220Y-52959956D01*
X84529899Y-52970456D01*
X84520377Y-52994324D01*
X84519809Y-53000117D01*
X84519809Y-53007667D01*
X84517777Y-53025030D01*
X84515352Y-53035250D01*
X84516288Y-53042128D01*
X84516288Y-53042129D01*
X84519122Y-53062952D01*
X84519809Y-53073093D01*
X84519809Y-55268160D01*
X84502216Y-55316498D01*
X84497783Y-55321334D01*
X84488383Y-55330734D01*
X84441763Y-55352474D01*
X84392076Y-55339160D01*
X84362571Y-55297023D01*
X84360009Y-55277560D01*
X84360009Y-52198974D01*
X84377602Y-52150636D01*
X84382035Y-52145800D01*
X85268290Y-51259545D01*
X85273127Y-51255112D01*
X85298661Y-51233687D01*
X85298665Y-51233683D01*
X85303703Y-51229455D01*
X85323661Y-51194887D01*
X85327174Y-51189373D01*
X85346287Y-51162077D01*
X85346288Y-51162076D01*
X85350063Y-51156684D01*
X85351767Y-51150326D01*
X85354218Y-51145069D01*
X85355827Y-51141185D01*
X85357809Y-51135740D01*
X85361097Y-51130045D01*
X85368026Y-51090747D01*
X85369443Y-51084357D01*
X85379773Y-51045807D01*
X85376295Y-51006055D01*
X85376009Y-50999501D01*
X85376009Y-50251960D01*
X86655043Y-50251960D01*
X86655435Y-50254182D01*
X86680538Y-50277755D01*
X86688139Y-50283278D01*
X86824290Y-50358128D01*
X86833019Y-50361584D01*
X86983506Y-50400222D01*
X86992826Y-50401400D01*
X87107250Y-50401400D01*
X87117407Y-50397703D01*
X87120509Y-50392331D01*
X87120509Y-50388141D01*
X88120509Y-50388141D01*
X88124206Y-50398298D01*
X88129578Y-50401400D01*
X88209183Y-50401400D01*
X88213904Y-50401103D01*
X88329352Y-50386519D01*
X88338442Y-50384185D01*
X88482904Y-50326988D01*
X88491131Y-50322465D01*
X88581519Y-50256794D01*
X88586359Y-50249619D01*
X88586106Y-50249375D01*
X88584343Y-50249000D01*
X88133768Y-50249000D01*
X88123611Y-50252697D01*
X88120509Y-50258069D01*
X88120509Y-50388141D01*
X87120509Y-50388141D01*
X87120509Y-50262259D01*
X87116812Y-50252102D01*
X87111440Y-50249000D01*
X86663176Y-50249000D01*
X86655043Y-50251960D01*
X85376009Y-50251960D01*
X85376009Y-49248381D01*
X86654659Y-49248381D01*
X86654912Y-49248625D01*
X86656675Y-49249000D01*
X87107250Y-49249000D01*
X87117407Y-49245303D01*
X87120509Y-49239931D01*
X87120509Y-49235741D01*
X88120509Y-49235741D01*
X88124206Y-49245898D01*
X88129578Y-49249000D01*
X88577842Y-49249000D01*
X88585975Y-49246040D01*
X88585583Y-49243818D01*
X88560480Y-49220245D01*
X88552879Y-49214722D01*
X88416728Y-49139872D01*
X88407999Y-49136416D01*
X88257512Y-49097778D01*
X88248192Y-49096600D01*
X88133768Y-49096600D01*
X88123611Y-49100297D01*
X88120509Y-49105669D01*
X88120509Y-49235741D01*
X87120509Y-49235741D01*
X87120509Y-49109859D01*
X87116812Y-49099702D01*
X87111440Y-49096600D01*
X87031835Y-49096600D01*
X87027114Y-49096897D01*
X86911666Y-49111481D01*
X86902576Y-49113815D01*
X86758114Y-49171012D01*
X86749887Y-49175535D01*
X86659499Y-49241206D01*
X86654659Y-49248381D01*
X85376009Y-49248381D01*
X85376009Y-48319000D01*
X86506009Y-48319000D01*
X86525925Y-48470280D01*
X86527810Y-48474832D01*
X86527811Y-48474834D01*
X86535194Y-48492658D01*
X86584317Y-48611250D01*
X86677205Y-48732304D01*
X86681112Y-48735302D01*
X86737732Y-48778748D01*
X86798259Y-48825192D01*
X86859254Y-48850457D01*
X86934675Y-48881698D01*
X86934677Y-48881699D01*
X86939229Y-48883584D01*
X87052529Y-48898500D01*
X87128489Y-48898500D01*
X87241789Y-48883584D01*
X87246341Y-48881699D01*
X87246343Y-48881698D01*
X87321764Y-48850457D01*
X87382759Y-48825192D01*
X87443286Y-48778748D01*
X87499906Y-48735302D01*
X87503813Y-48732304D01*
X87596701Y-48611250D01*
X87645824Y-48492658D01*
X87653207Y-48474834D01*
X87653208Y-48474832D01*
X87655093Y-48470280D01*
X87675009Y-48319000D01*
X87655093Y-48167720D01*
X87644276Y-48141604D01*
X87598585Y-48031299D01*
X87596701Y-48026750D01*
X87503813Y-47905696D01*
X87382759Y-47812808D01*
X87288509Y-47773768D01*
X87246343Y-47756302D01*
X87246341Y-47756301D01*
X87241789Y-47754416D01*
X87128489Y-47739500D01*
X87052529Y-47739500D01*
X86939229Y-47754416D01*
X86934677Y-47756301D01*
X86934675Y-47756302D01*
X86892509Y-47773768D01*
X86798259Y-47812808D01*
X86677205Y-47905696D01*
X86584317Y-48026750D01*
X86582433Y-48031299D01*
X86536743Y-48141604D01*
X86525925Y-48167720D01*
X86506009Y-48319000D01*
X85376009Y-48319000D01*
X85376009Y-46610974D01*
X85393602Y-46562636D01*
X85398035Y-46557800D01*
X86863724Y-45092112D01*
X86910344Y-45070372D01*
X86960031Y-45083686D01*
X86983902Y-45111145D01*
X87008459Y-45159342D01*
X87098167Y-45249050D01*
X87102610Y-45251314D01*
X87131135Y-45293607D01*
X87125756Y-45344765D01*
X87102371Y-45372634D01*
X87099442Y-45374762D01*
X87094167Y-45377450D01*
X87004459Y-45467158D01*
X87001771Y-45472434D01*
X87001770Y-45472435D01*
X86981372Y-45512468D01*
X86946863Y-45580196D01*
X86940051Y-45623208D01*
X86932109Y-45673353D01*
X86927017Y-45705500D01*
X86946863Y-45830804D01*
X86949550Y-45836077D01*
X87001769Y-45938562D01*
X87004459Y-45943842D01*
X87094167Y-46033550D01*
X87207205Y-46091146D01*
X87332509Y-46110992D01*
X87457813Y-46091146D01*
X87570851Y-46033550D01*
X87660559Y-45943842D01*
X87663248Y-45938565D01*
X87663250Y-45938562D01*
X87670385Y-45924559D01*
X87708006Y-45889478D01*
X87737388Y-45883500D01*
X95036655Y-45883500D01*
X95084993Y-45901093D01*
X95089829Y-45905526D01*
X96869863Y-47685561D01*
X98551668Y-49367366D01*
X98869155Y-49684854D01*
X98869176Y-49684873D01*
X100293446Y-51109144D01*
X100297874Y-51113975D01*
X100323697Y-51144750D01*
X100329394Y-51148039D01*
X100329395Y-51148040D01*
X100358483Y-51164834D01*
X100364015Y-51168358D01*
X100396914Y-51191394D01*
X100403271Y-51193097D01*
X100408308Y-51195446D01*
X100412839Y-51197322D01*
X100418023Y-51199209D01*
X100423718Y-51202497D01*
X100438652Y-51205130D01*
X100463272Y-51209472D01*
X100469674Y-51210891D01*
X100495410Y-51217786D01*
X100508473Y-51221286D01*
X100515025Y-51220713D01*
X100515027Y-51220713D01*
X100548478Y-51217786D01*
X100555032Y-51217500D01*
X109162926Y-51217500D01*
X109169481Y-51217786D01*
X109202940Y-51220714D01*
X109202942Y-51220714D01*
X109209493Y-51221287D01*
X109215848Y-51219584D01*
X109215850Y-51219584D01*
X109248296Y-51210890D01*
X109254673Y-51209475D01*
X109294248Y-51202497D01*
X109299946Y-51199207D01*
X109305146Y-51197315D01*
X109309675Y-51195439D01*
X109314698Y-51193097D01*
X109321052Y-51191394D01*
X109326439Y-51187622D01*
X109326443Y-51187620D01*
X109353948Y-51168360D01*
X109359481Y-51164835D01*
X109388572Y-51148039D01*
X109394269Y-51144750D01*
X109420092Y-51113974D01*
X109424525Y-51109138D01*
X109942945Y-50590719D01*
X109984354Y-50569619D01*
X110011167Y-50565372D01*
X110017013Y-50564446D01*
X110130051Y-50506850D01*
X110219759Y-50417142D01*
X110230715Y-50395641D01*
X110266779Y-50324860D01*
X110277355Y-50304104D01*
X110297201Y-50178800D01*
X110277355Y-50053496D01*
X110233054Y-49966551D01*
X110226785Y-49915495D01*
X110254972Y-49872909D01*
X110257051Y-49871850D01*
X110346759Y-49782142D01*
X110404355Y-49669104D01*
X110424201Y-49543800D01*
X110404355Y-49418496D01*
X110355356Y-49322330D01*
X110349448Y-49310735D01*
X110349447Y-49310734D01*
X110346759Y-49305458D01*
X110257051Y-49215750D01*
X110144013Y-49158154D01*
X110018709Y-49138308D01*
X109893405Y-49158154D01*
X109868170Y-49171012D01*
X109798458Y-49206532D01*
X109757765Y-49214442D01*
X109742281Y-49213087D01*
X109742277Y-49213087D01*
X109735724Y-49212514D01*
X109708011Y-49219940D01*
X109696942Y-49222906D01*
X109690537Y-49224327D01*
X109650970Y-49231303D01*
X109645271Y-49234593D01*
X109640091Y-49236478D01*
X109635514Y-49238374D01*
X109630518Y-49240704D01*
X109624166Y-49242406D01*
X109618779Y-49246178D01*
X109591267Y-49265442D01*
X109585735Y-49268966D01*
X109556647Y-49285760D01*
X109550949Y-49289050D01*
X109546720Y-49294090D01*
X109525131Y-49319819D01*
X109520698Y-49324656D01*
X108758881Y-50086474D01*
X108712261Y-50108214D01*
X108705707Y-50108500D01*
X100892312Y-50108500D01*
X100843974Y-50090907D01*
X100839138Y-50086474D01*
X95635525Y-44882862D01*
X95631092Y-44878025D01*
X95609498Y-44852290D01*
X95605269Y-44847250D01*
X95592511Y-44839884D01*
X95570481Y-44827165D01*
X95564948Y-44823640D01*
X95537443Y-44804380D01*
X95537439Y-44804378D01*
X95532052Y-44800606D01*
X95525698Y-44798903D01*
X95520675Y-44796561D01*
X95516146Y-44794685D01*
X95510946Y-44792793D01*
X95505248Y-44789503D01*
X95465673Y-44782525D01*
X95459296Y-44781110D01*
X95426850Y-44772416D01*
X95426848Y-44772416D01*
X95420493Y-44770713D01*
X95413942Y-44771286D01*
X95413940Y-44771286D01*
X95380481Y-44774214D01*
X95373926Y-44774500D01*
X87757438Y-44774500D01*
X87709100Y-44756907D01*
X87690434Y-44733440D01*
X87667248Y-44687935D01*
X87667247Y-44687934D01*
X87664559Y-44682658D01*
X87575075Y-44593174D01*
X87553335Y-44546554D01*
X87566649Y-44496867D01*
X87575075Y-44486826D01*
X87664559Y-44397342D01*
X87674877Y-44377093D01*
X87693217Y-44341097D01*
X87722155Y-44284304D01*
X87742001Y-44159000D01*
X87722155Y-44033696D01*
X87691294Y-43973127D01*
X87667248Y-43925935D01*
X87667247Y-43925934D01*
X87664559Y-43920658D01*
X87574851Y-43830950D01*
X87461813Y-43773354D01*
X87336509Y-43753508D01*
X87211205Y-43773354D01*
X87098167Y-43830950D01*
X87008459Y-43920658D01*
X87005771Y-43925934D01*
X87005770Y-43925935D01*
X86981724Y-43973127D01*
X86950863Y-44033696D01*
X86949937Y-44039543D01*
X86945158Y-44069714D01*
X86924058Y-44111124D01*
X84832728Y-46202455D01*
X84827891Y-46206888D01*
X84802357Y-46228313D01*
X84802353Y-46228317D01*
X84797315Y-46232545D01*
X84777357Y-46267113D01*
X84773844Y-46272627D01*
X84754731Y-46299923D01*
X84750955Y-46305316D01*
X84749251Y-46311674D01*
X84746800Y-46316931D01*
X84745191Y-46320815D01*
X84743209Y-46326260D01*
X84739921Y-46331955D01*
X84738779Y-46338430D01*
X84738779Y-46338431D01*
X84732993Y-46371249D01*
X84731575Y-46377643D01*
X84721245Y-46416193D01*
X84721819Y-46422749D01*
X84724723Y-46455945D01*
X84725009Y-46462499D01*
X84725009Y-50851026D01*
X84707416Y-50899364D01*
X84702983Y-50904200D01*
X83816728Y-51790455D01*
X83811891Y-51794888D01*
X83786357Y-51816313D01*
X83786353Y-51816317D01*
X83781315Y-51820545D01*
X83761357Y-51855113D01*
X83757844Y-51860627D01*
X83738731Y-51887923D01*
X83734955Y-51893316D01*
X83733251Y-51899674D01*
X83730800Y-51904931D01*
X83729191Y-51908815D01*
X83727209Y-51914260D01*
X83723921Y-51919955D01*
X83722779Y-51926430D01*
X83722779Y-51926431D01*
X83716993Y-51959249D01*
X83715575Y-51965643D01*
X83705245Y-52004193D01*
X83706762Y-52021532D01*
X83708723Y-52043945D01*
X83709009Y-52050499D01*
X83709009Y-53924690D01*
X83691416Y-53973028D01*
X83646867Y-53998748D01*
X83596209Y-53989815D01*
X83582331Y-53979508D01*
X83535913Y-53935917D01*
X83535910Y-53935915D01*
X83532461Y-53932676D01*
X83528312Y-53930395D01*
X83397231Y-53858333D01*
X83397229Y-53858332D01*
X83393085Y-53856054D01*
X83388504Y-53854878D01*
X83388502Y-53854877D01*
X83337103Y-53841680D01*
X83239033Y-53816500D01*
X83119906Y-53816500D01*
X83117555Y-53816797D01*
X83006407Y-53830838D01*
X83006405Y-53830839D01*
X83001715Y-53831431D01*
X82997319Y-53833171D01*
X82997317Y-53833172D01*
X82858234Y-53888239D01*
X82858232Y-53888240D01*
X82853835Y-53889981D01*
X82850008Y-53892761D01*
X82850007Y-53892762D01*
X82795070Y-53932676D01*
X82725162Y-53983467D01*
X82722144Y-53987115D01*
X82722141Y-53987118D01*
X82719910Y-53989815D01*
X82623780Y-54106016D01*
X82556061Y-54249928D01*
X82526258Y-54406159D01*
X82526555Y-54410880D01*
X82526555Y-54410881D01*
X82535731Y-54556718D01*
X82536245Y-54564894D01*
X82585394Y-54716158D01*
X82587926Y-54720148D01*
X82587927Y-54720150D01*
X82641836Y-54805097D01*
X82670616Y-54850447D01*
X82786557Y-54959324D01*
X82790706Y-54961605D01*
X82864220Y-55002019D01*
X82925933Y-55035946D01*
X82930514Y-55037122D01*
X82930516Y-55037123D01*
X82981915Y-55050320D01*
X83079985Y-55075500D01*
X83199112Y-55075500D01*
X83208437Y-55074322D01*
X83312611Y-55061162D01*
X83312613Y-55061161D01*
X83317303Y-55060569D01*
X83321699Y-55058829D01*
X83321701Y-55058828D01*
X83460784Y-55003761D01*
X83460786Y-55003760D01*
X83465183Y-55002019D01*
X83589609Y-54911619D01*
X83639055Y-54897440D01*
X83686047Y-54918363D01*
X83708597Y-54964596D01*
X83709009Y-54972457D01*
X83709009Y-56079501D01*
X83708723Y-56086055D01*
X83705245Y-56125807D01*
X83715575Y-56164357D01*
X83716992Y-56170747D01*
X83723921Y-56210045D01*
X83727209Y-56215740D01*
X83729191Y-56221185D01*
X83730800Y-56225069D01*
X83733251Y-56230326D01*
X83734955Y-56236684D01*
X83738730Y-56242076D01*
X83738731Y-56242077D01*
X83757844Y-56269373D01*
X83761357Y-56274887D01*
X83781315Y-56309455D01*
X83786356Y-56313685D01*
X83811887Y-56335108D01*
X83816723Y-56339540D01*
X84332480Y-56855298D01*
X84332482Y-56855299D01*
X84789464Y-57312281D01*
X84793897Y-57317118D01*
X84815322Y-57342652D01*
X84815326Y-57342656D01*
X84819554Y-57347694D01*
X84854122Y-57367652D01*
X84859636Y-57371165D01*
X84886932Y-57390278D01*
X84892325Y-57394054D01*
X84898683Y-57395758D01*
X84903940Y-57398209D01*
X84907818Y-57399816D01*
X84913268Y-57401800D01*
X84918964Y-57405088D01*
X84958272Y-57412019D01*
X84964632Y-57413429D01*
X85003203Y-57423764D01*
X85009755Y-57423191D01*
X85009757Y-57423191D01*
X85042959Y-57420286D01*
X85049513Y-57420000D01*
X89869108Y-57420000D01*
X89903248Y-57428196D01*
X90005205Y-57480146D01*
X90130509Y-57499992D01*
X90255813Y-57480146D01*
X90353763Y-57430238D01*
X90363574Y-57425239D01*
X90363575Y-57425238D01*
X90368851Y-57422550D01*
X90458559Y-57332842D01*
X90469036Y-57312281D01*
X90508575Y-57234680D01*
X90516155Y-57219804D01*
X90536001Y-57094500D01*
X90516155Y-56969196D01*
X90473844Y-56886157D01*
X90461248Y-56861435D01*
X90461247Y-56861434D01*
X90458559Y-56856158D01*
X90368851Y-56766450D01*
X90357771Y-56760804D01*
X90316382Y-56739715D01*
X90255813Y-56708854D01*
X90130509Y-56689008D01*
X90005205Y-56708854D01*
X89903248Y-56760804D01*
X89869108Y-56769000D01*
X85197983Y-56769000D01*
X85149645Y-56751407D01*
X85144809Y-56746974D01*
X84792809Y-56394974D01*
X84792807Y-56394971D01*
X84382035Y-55984200D01*
X84360295Y-55937580D01*
X84360009Y-55931026D01*
X84360009Y-55900440D01*
X84377602Y-55852102D01*
X84422151Y-55826382D01*
X84472809Y-55835315D01*
X84488383Y-55847266D01*
X84558167Y-55917050D01*
X84671205Y-55974646D01*
X84731527Y-55984200D01*
X84789223Y-55993338D01*
X84796509Y-55994492D01*
X84803796Y-55993338D01*
X84861491Y-55984200D01*
X84921813Y-55974646D01*
X85034851Y-55917050D01*
X85124559Y-55827342D01*
X85128697Y-55819222D01*
X85179468Y-55719577D01*
X85182155Y-55714304D01*
X85202001Y-55589000D01*
X85182155Y-55463696D01*
X85124559Y-55350658D01*
X85095235Y-55321334D01*
X85073495Y-55274714D01*
X85073209Y-55268160D01*
X85073209Y-54406159D01*
X85276258Y-54406159D01*
X85276555Y-54410880D01*
X85276555Y-54410881D01*
X85285731Y-54556718D01*
X85286245Y-54564894D01*
X85335394Y-54716158D01*
X85337926Y-54720148D01*
X85337927Y-54720150D01*
X85391836Y-54805097D01*
X85420616Y-54850447D01*
X85536557Y-54959324D01*
X85540706Y-54961605D01*
X85614220Y-55002019D01*
X85675933Y-55035946D01*
X85680514Y-55037122D01*
X85680516Y-55037123D01*
X85731915Y-55050320D01*
X85829985Y-55075500D01*
X85949112Y-55075500D01*
X85958437Y-55074322D01*
X86062611Y-55061162D01*
X86062613Y-55061161D01*
X86067303Y-55060569D01*
X86071699Y-55058829D01*
X86071701Y-55058828D01*
X86210784Y-55003761D01*
X86210786Y-55003760D01*
X86215183Y-55002019D01*
X86270809Y-54961605D01*
X86340023Y-54911318D01*
X86340024Y-54911317D01*
X86343856Y-54908533D01*
X86346874Y-54904885D01*
X86346877Y-54904882D01*
X86442219Y-54789633D01*
X86445238Y-54785984D01*
X86495207Y-54679793D01*
X86510943Y-54646353D01*
X86510944Y-54646350D01*
X86512957Y-54642072D01*
X86542760Y-54485841D01*
X86542463Y-54481118D01*
X86533070Y-54331823D01*
X86533070Y-54331821D01*
X86532773Y-54327106D01*
X86483624Y-54175842D01*
X86398402Y-54041553D01*
X86282461Y-53932676D01*
X86278312Y-53930395D01*
X86147231Y-53858333D01*
X86147229Y-53858332D01*
X86143085Y-53856054D01*
X86138504Y-53854878D01*
X86138502Y-53854877D01*
X86087103Y-53841680D01*
X85989033Y-53816500D01*
X85869906Y-53816500D01*
X85867555Y-53816797D01*
X85756407Y-53830838D01*
X85756405Y-53830839D01*
X85751715Y-53831431D01*
X85747319Y-53833171D01*
X85747317Y-53833172D01*
X85608234Y-53888239D01*
X85608232Y-53888240D01*
X85603835Y-53889981D01*
X85600008Y-53892761D01*
X85600007Y-53892762D01*
X85545070Y-53932676D01*
X85475162Y-53983467D01*
X85472144Y-53987115D01*
X85472141Y-53987118D01*
X85469910Y-53989815D01*
X85373780Y-54106016D01*
X85306061Y-54249928D01*
X85276258Y-54406159D01*
X85073209Y-54406159D01*
X85073209Y-53194761D01*
X85090802Y-53146423D01*
X85095235Y-53141587D01*
X85270384Y-52966438D01*
X85311793Y-52945338D01*
X85429813Y-52926646D01*
X85542851Y-52869050D01*
X85572175Y-52839726D01*
X85618795Y-52817986D01*
X85625349Y-52817700D01*
X86682748Y-52817700D01*
X86731086Y-52835293D01*
X86735922Y-52839726D01*
X88235233Y-54339037D01*
X88238288Y-54342576D01*
X88240222Y-54346533D01*
X88245309Y-54351252D01*
X88245310Y-54351253D01*
X88273841Y-54377719D01*
X88275873Y-54379677D01*
X88288751Y-54392555D01*
X88291609Y-54394516D01*
X88293287Y-54395910D01*
X88296366Y-54398614D01*
X88310702Y-54411913D01*
X88310704Y-54411914D01*
X88315793Y-54416635D01*
X88327287Y-54421220D01*
X88341959Y-54429055D01*
X88352165Y-54436057D01*
X88358921Y-54437660D01*
X88377164Y-54441989D01*
X88387667Y-54445311D01*
X88406600Y-54452865D01*
X88406608Y-54452867D01*
X88411533Y-54454832D01*
X88417326Y-54455400D01*
X88424877Y-54455400D01*
X88442240Y-54457432D01*
X88452459Y-54459857D01*
X88459337Y-54458921D01*
X88459338Y-54458921D01*
X88480161Y-54456087D01*
X88490302Y-54455400D01*
X101363370Y-54455400D01*
X101411708Y-54472993D01*
X101437428Y-54517542D01*
X101428495Y-54568200D01*
X101404374Y-54592886D01*
X101403916Y-54593083D01*
X101399418Y-54596778D01*
X101394080Y-54602116D01*
X101380366Y-54612957D01*
X101377335Y-54614825D01*
X101377334Y-54614826D01*
X101371424Y-54618469D01*
X101357010Y-54637425D01*
X101354501Y-54640724D01*
X101347816Y-54648380D01*
X100705922Y-55290274D01*
X100659302Y-55312014D01*
X100652748Y-55312300D01*
X100230349Y-55312300D01*
X100182011Y-55294707D01*
X100177175Y-55290274D01*
X100147851Y-55260950D01*
X100034813Y-55203354D01*
X99909509Y-55183508D01*
X99784205Y-55203354D01*
X99671167Y-55260950D01*
X99641843Y-55290274D01*
X99595223Y-55312014D01*
X99588669Y-55312300D01*
X96039349Y-55312300D01*
X95991011Y-55294707D01*
X95986175Y-55290274D01*
X95956851Y-55260950D01*
X95843813Y-55203354D01*
X95718509Y-55183508D01*
X95593205Y-55203354D01*
X95480167Y-55260950D01*
X95390459Y-55350658D01*
X95332863Y-55463696D01*
X95313017Y-55589000D01*
X95332863Y-55714304D01*
X95335550Y-55719577D01*
X95386322Y-55819222D01*
X95390459Y-55827342D01*
X95480167Y-55917050D01*
X95593205Y-55974646D01*
X95653527Y-55984200D01*
X95711223Y-55993338D01*
X95718509Y-55994492D01*
X95725796Y-55993338D01*
X95783491Y-55984200D01*
X95843813Y-55974646D01*
X95956851Y-55917050D01*
X95986175Y-55887726D01*
X96032795Y-55865986D01*
X96039349Y-55865700D01*
X99588669Y-55865700D01*
X99637007Y-55883293D01*
X99641843Y-55887726D01*
X99671167Y-55917050D01*
X99784205Y-55974646D01*
X99844527Y-55984200D01*
X99902223Y-55993338D01*
X99909509Y-55994492D01*
X99916796Y-55993338D01*
X99974491Y-55984200D01*
X100034813Y-55974646D01*
X100147851Y-55917050D01*
X100177175Y-55887726D01*
X100223795Y-55865986D01*
X100230349Y-55865700D01*
X100748559Y-55865700D01*
X100753220Y-55866042D01*
X100757388Y-55867473D01*
X100803204Y-55865753D01*
X100806025Y-55865700D01*
X100824245Y-55865700D01*
X100827656Y-55865065D01*
X100829819Y-55864865D01*
X100833907Y-55864600D01*
X100860394Y-55863606D01*
X100866774Y-55860865D01*
X100871763Y-55858722D01*
X100887678Y-55853886D01*
X100899846Y-55851620D01*
X100921720Y-55838137D01*
X100931494Y-55833060D01*
X100935050Y-55831532D01*
X100955102Y-55822917D01*
X100959600Y-55819222D01*
X100964938Y-55813884D01*
X100978652Y-55803043D01*
X100981683Y-55801175D01*
X100981684Y-55801174D01*
X100987594Y-55797531D01*
X101004517Y-55775276D01*
X101011202Y-55767620D01*
X101653096Y-55125726D01*
X101699716Y-55103986D01*
X101706270Y-55103700D01*
X103857556Y-55103700D01*
X103905894Y-55121293D01*
X103931614Y-55165842D01*
X103922681Y-55216500D01*
X103891696Y-55245903D01*
X103867449Y-55258258D01*
X103867446Y-55258260D01*
X103862167Y-55260950D01*
X103772459Y-55350658D01*
X103714863Y-55463696D01*
X103695017Y-55589000D01*
X103714863Y-55714304D01*
X103717550Y-55719577D01*
X103768322Y-55819222D01*
X103772459Y-55827342D01*
X103862167Y-55917050D01*
X103975205Y-55974646D01*
X104035527Y-55984200D01*
X104093223Y-55993338D01*
X104100509Y-55994492D01*
X104107796Y-55993338D01*
X104165491Y-55984200D01*
X104225813Y-55974646D01*
X104338851Y-55917050D01*
X104368175Y-55887726D01*
X104414795Y-55865986D01*
X104421349Y-55865700D01*
X107862169Y-55865700D01*
X107910507Y-55883293D01*
X107915343Y-55887726D01*
X107944667Y-55917050D01*
X108057705Y-55974646D01*
X108118027Y-55984200D01*
X108175723Y-55993338D01*
X108183009Y-55994492D01*
X108190296Y-55993338D01*
X108247991Y-55984200D01*
X108308313Y-55974646D01*
X108421351Y-55917050D01*
X108450675Y-55887726D01*
X108497295Y-55865986D01*
X108503849Y-55865700D01*
X110743948Y-55865700D01*
X110792286Y-55883293D01*
X110818006Y-55927842D01*
X110809073Y-55978500D01*
X110797122Y-55994074D01*
X110484922Y-56306274D01*
X110438302Y-56328014D01*
X110431748Y-56328300D01*
X93832270Y-56328300D01*
X93783932Y-56310707D01*
X93779096Y-56306274D01*
X93095947Y-55623125D01*
X93074847Y-55581715D01*
X93057081Y-55469543D01*
X93056155Y-55463696D01*
X92998559Y-55350658D01*
X92908851Y-55260950D01*
X92795813Y-55203354D01*
X92670509Y-55183508D01*
X92545205Y-55203354D01*
X92432167Y-55260950D01*
X92402843Y-55290274D01*
X92356223Y-55312014D01*
X92349669Y-55312300D01*
X87657349Y-55312300D01*
X87609011Y-55294707D01*
X87604175Y-55290274D01*
X87574851Y-55260950D01*
X87461813Y-55203354D01*
X87336509Y-55183508D01*
X87211205Y-55203354D01*
X87098167Y-55260950D01*
X87008459Y-55350658D01*
X86950863Y-55463696D01*
X86931017Y-55589000D01*
X86950863Y-55714304D01*
X86953550Y-55719577D01*
X87004322Y-55819222D01*
X87008459Y-55827342D01*
X87098167Y-55917050D01*
X87211205Y-55974646D01*
X87271527Y-55984200D01*
X87329223Y-55993338D01*
X87336509Y-55994492D01*
X87343796Y-55993338D01*
X87401491Y-55984200D01*
X87461813Y-55974646D01*
X87574851Y-55917050D01*
X87604175Y-55887726D01*
X87650795Y-55865986D01*
X87657349Y-55865700D01*
X92349669Y-55865700D01*
X92398007Y-55883293D01*
X92402843Y-55887726D01*
X92432167Y-55917050D01*
X92545205Y-55974646D01*
X92663225Y-55993338D01*
X92704634Y-56014438D01*
X93455533Y-56765337D01*
X93458588Y-56768876D01*
X93460522Y-56772833D01*
X93465609Y-56777552D01*
X93465610Y-56777553D01*
X93494141Y-56804019D01*
X93496173Y-56805977D01*
X93509051Y-56818855D01*
X93511909Y-56820816D01*
X93513587Y-56822210D01*
X93516666Y-56824914D01*
X93531002Y-56838213D01*
X93531004Y-56838214D01*
X93536093Y-56842935D01*
X93547590Y-56847521D01*
X93562261Y-56855356D01*
X93572465Y-56862356D01*
X93594646Y-56867620D01*
X93597465Y-56868289D01*
X93607965Y-56871610D01*
X93631833Y-56881132D01*
X93637626Y-56881700D01*
X93645176Y-56881700D01*
X93662539Y-56883732D01*
X93666004Y-56884554D01*
X93672759Y-56886157D01*
X93679637Y-56885221D01*
X93679638Y-56885221D01*
X93700461Y-56882387D01*
X93710602Y-56881700D01*
X110527559Y-56881700D01*
X110532220Y-56882042D01*
X110536388Y-56883473D01*
X110582204Y-56881753D01*
X110585025Y-56881700D01*
X110603245Y-56881700D01*
X110606656Y-56881065D01*
X110608819Y-56880865D01*
X110612907Y-56880600D01*
X110639394Y-56879606D01*
X110645774Y-56876865D01*
X110650763Y-56874722D01*
X110666678Y-56869886D01*
X110678846Y-56867620D01*
X110700720Y-56854137D01*
X110710494Y-56849060D01*
X110710635Y-56849000D01*
X110734102Y-56838917D01*
X110738600Y-56835222D01*
X110743938Y-56829884D01*
X110757652Y-56819043D01*
X110760683Y-56817175D01*
X110760684Y-56817174D01*
X110766594Y-56813531D01*
X110783517Y-56791276D01*
X110790202Y-56783620D01*
X112871364Y-54702458D01*
X112917984Y-54680718D01*
X112967671Y-54694032D01*
X112997176Y-54736169D01*
X112998812Y-54767395D01*
X112995868Y-54785984D01*
X112993767Y-54799250D01*
X113013613Y-54924554D01*
X113031329Y-54959324D01*
X113063563Y-55022586D01*
X113071759Y-55056726D01*
X113071759Y-56964300D01*
X113054166Y-57012638D01*
X113009617Y-57038358D01*
X112996559Y-57039500D01*
X112104985Y-57039500D01*
X112070845Y-57031304D01*
X112034211Y-57012638D01*
X111972813Y-56981354D01*
X111847509Y-56961508D01*
X111722205Y-56981354D01*
X111609167Y-57038950D01*
X111519459Y-57128658D01*
X111461863Y-57241696D01*
X111442017Y-57367000D01*
X111461863Y-57492304D01*
X111465780Y-57499992D01*
X111512142Y-57590981D01*
X111519459Y-57605342D01*
X111609167Y-57695050D01*
X111722205Y-57752646D01*
X111847509Y-57772492D01*
X111972813Y-57752646D01*
X112070845Y-57702696D01*
X112104985Y-57694500D01*
X113226926Y-57694500D01*
X113233481Y-57694786D01*
X113266940Y-57697714D01*
X113266942Y-57697714D01*
X113273493Y-57698287D01*
X113279848Y-57696584D01*
X113279850Y-57696584D01*
X113312296Y-57687890D01*
X113318673Y-57686475D01*
X113358248Y-57679497D01*
X113363946Y-57676207D01*
X113369146Y-57674315D01*
X113373675Y-57672439D01*
X113378698Y-57670097D01*
X113385052Y-57668394D01*
X113390439Y-57664622D01*
X113390443Y-57664620D01*
X113417948Y-57645360D01*
X113423481Y-57641835D01*
X113452572Y-57625039D01*
X113458269Y-57621750D01*
X113484087Y-57590981D01*
X113488520Y-57586143D01*
X113618403Y-57456261D01*
X113623239Y-57451829D01*
X113648971Y-57430238D01*
X113648973Y-57430236D01*
X113654009Y-57426010D01*
X113658426Y-57418360D01*
X113674091Y-57391229D01*
X113677614Y-57385698D01*
X113696879Y-57358184D01*
X113700654Y-57352793D01*
X113702358Y-57346434D01*
X113704698Y-57341415D01*
X113706568Y-57336900D01*
X113708465Y-57331689D01*
X113711756Y-57325989D01*
X113718729Y-57286446D01*
X113720148Y-57280044D01*
X113728843Y-57247590D01*
X113730546Y-57241234D01*
X113729133Y-57225077D01*
X113727045Y-57201217D01*
X113726759Y-57194663D01*
X113726759Y-55056726D01*
X113734955Y-55022586D01*
X113767189Y-54959324D01*
X113784905Y-54924554D01*
X113804751Y-54799250D01*
X113784905Y-54673946D01*
X113731632Y-54569392D01*
X113729998Y-54566185D01*
X113729997Y-54566184D01*
X113727309Y-54560908D01*
X113637601Y-54471200D01*
X113604781Y-54454477D01*
X113535559Y-54419207D01*
X113524563Y-54413604D01*
X113429919Y-54398614D01*
X113405106Y-54394684D01*
X113399259Y-54393758D01*
X113393412Y-54394684D01*
X113393411Y-54394684D01*
X113367404Y-54398803D01*
X113316910Y-54388988D01*
X113284538Y-54349011D01*
X113285436Y-54297579D01*
X113302467Y-54271355D01*
X114131635Y-53442187D01*
X114178255Y-53420447D01*
X114227942Y-53433761D01*
X114257447Y-53475898D01*
X114260009Y-53495361D01*
X114260009Y-87039564D01*
X114259114Y-87051134D01*
X114254818Y-87078724D01*
X114255512Y-87084031D01*
X114255512Y-87084033D01*
X114257594Y-87099951D01*
X114258068Y-87114618D01*
X114257418Y-87124533D01*
X114242951Y-87345247D01*
X114241667Y-87354999D01*
X114191748Y-87605960D01*
X114189202Y-87615461D01*
X114106955Y-87857753D01*
X114103191Y-87866841D01*
X113990021Y-88096329D01*
X113985103Y-88104848D01*
X113842942Y-88317608D01*
X113836958Y-88325406D01*
X113835875Y-88326641D01*
X113668245Y-88517786D01*
X113661290Y-88524741D01*
X113468913Y-88693453D01*
X113461109Y-88699441D01*
X113248360Y-88841596D01*
X113239844Y-88846513D01*
X113173311Y-88879324D01*
X113010348Y-88959689D01*
X113001260Y-88963453D01*
X112758967Y-89045700D01*
X112749466Y-89048246D01*
X112498507Y-89098166D01*
X112488755Y-89099450D01*
X112333390Y-89109634D01*
X112264712Y-89114136D01*
X112248226Y-89113402D01*
X112234783Y-89111309D01*
X112229476Y-89112003D01*
X112229473Y-89112003D01*
X112199942Y-89115865D01*
X112190191Y-89116500D01*
X84333944Y-89116500D01*
X84322375Y-89115605D01*
X84316427Y-89114679D01*
X84294783Y-89111309D01*
X84289476Y-89112003D01*
X84289474Y-89112003D01*
X84280198Y-89113216D01*
X84273554Y-89114085D01*
X84258889Y-89114559D01*
X84163929Y-89108335D01*
X84028260Y-89099443D01*
X84018508Y-89098159D01*
X83893029Y-89073200D01*
X83767546Y-89048241D01*
X83758051Y-89045697D01*
X83641569Y-89006157D01*
X83515754Y-88963448D01*
X83506666Y-88959684D01*
X83277177Y-88846514D01*
X83268658Y-88841596D01*
X83216770Y-88806926D01*
X83055893Y-88699432D01*
X83048099Y-88693451D01*
X82855713Y-88524733D01*
X82848772Y-88517792D01*
X82680053Y-88325404D01*
X82674066Y-88317602D01*
X82531911Y-88104853D01*
X82526992Y-88096334D01*
X82493458Y-88028333D01*
X82413818Y-87866841D01*
X82410054Y-87857753D01*
X82327807Y-87615461D01*
X82325261Y-87605960D01*
X82275342Y-87354999D01*
X82274058Y-87345247D01*
X82259591Y-87124533D01*
X82260472Y-87107142D01*
X82262085Y-87097552D01*
X82262238Y-87085000D01*
X82261340Y-87078724D01*
X82257768Y-87053787D01*
X82257009Y-87043126D01*
X82257009Y-82154066D01*
X84213160Y-82154066D01*
X84214096Y-82160944D01*
X84214096Y-82160945D01*
X84217313Y-82184582D01*
X84218000Y-82194723D01*
X84218000Y-85416484D01*
X84217603Y-85421891D01*
X84216075Y-85426342D01*
X84216570Y-85439526D01*
X84217947Y-85476214D01*
X84218000Y-85479035D01*
X84218000Y-85498948D01*
X84218632Y-85502344D01*
X84218941Y-85505691D01*
X84219206Y-85509775D01*
X84220013Y-85531270D01*
X84220014Y-85531273D01*
X84220274Y-85538208D01*
X84225865Y-85551221D01*
X84230698Y-85567131D01*
X84233291Y-85581053D01*
X84236935Y-85586964D01*
X84236935Y-85586965D01*
X84248184Y-85605216D01*
X84253260Y-85614988D01*
X84262364Y-85636177D01*
X84262367Y-85636181D01*
X84264464Y-85641063D01*
X84268478Y-85645949D01*
X84274808Y-85652279D01*
X84285649Y-85665993D01*
X84292032Y-85676348D01*
X84316558Y-85694998D01*
X84324205Y-85701676D01*
X84865462Y-86242933D01*
X84869008Y-86247041D01*
X84871075Y-86251269D01*
X84876164Y-86255990D01*
X84876165Y-86255991D01*
X84907681Y-86285226D01*
X84909713Y-86287184D01*
X84923777Y-86301248D01*
X84926629Y-86303205D01*
X84929203Y-86305344D01*
X84932278Y-86308044D01*
X84948056Y-86322680D01*
X84948058Y-86322681D01*
X84953146Y-86327401D01*
X84959591Y-86329972D01*
X84959592Y-86329973D01*
X84966295Y-86332647D01*
X84980965Y-86340480D01*
X84986922Y-86344567D01*
X84986924Y-86344568D01*
X84992646Y-86348493D01*
X85016497Y-86354153D01*
X85020264Y-86355047D01*
X85030763Y-86358368D01*
X85052187Y-86366915D01*
X85052192Y-86366916D01*
X85057122Y-86368883D01*
X85063415Y-86369500D01*
X85072370Y-86369500D01*
X85089733Y-86371532D01*
X85101566Y-86374340D01*
X85108444Y-86373404D01*
X85108445Y-86373404D01*
X85132082Y-86370187D01*
X85142223Y-86369500D01*
X87420469Y-86369500D01*
X87468807Y-86387093D01*
X87473643Y-86391526D01*
X87479167Y-86397050D01*
X87592205Y-86454646D01*
X87717509Y-86474492D01*
X87842813Y-86454646D01*
X87955851Y-86397050D01*
X88045559Y-86307342D01*
X88103155Y-86194304D01*
X88123001Y-86069000D01*
X88116581Y-86028462D01*
X88104081Y-85949543D01*
X88103155Y-85943696D01*
X88045559Y-85830658D01*
X87955851Y-85740950D01*
X87842813Y-85683354D01*
X87762678Y-85670662D01*
X87723356Y-85664434D01*
X87717509Y-85663508D01*
X87711662Y-85664434D01*
X87672340Y-85670662D01*
X87592205Y-85683354D01*
X87479167Y-85740950D01*
X87473643Y-85746474D01*
X87472241Y-85747128D01*
X87470197Y-85748613D01*
X87469908Y-85748216D01*
X87427023Y-85768214D01*
X87420469Y-85768500D01*
X85272120Y-85768500D01*
X85223782Y-85750907D01*
X85218957Y-85746485D01*
X84841025Y-85368554D01*
X84819286Y-85321935D01*
X84819000Y-85315381D01*
X84819000Y-83820000D01*
X85637008Y-83820000D01*
X85656854Y-83945304D01*
X85714450Y-84058342D01*
X85804158Y-84148050D01*
X85917196Y-84205646D01*
X85923042Y-84206572D01*
X85949855Y-84210819D01*
X85991264Y-84231919D01*
X87068489Y-85309144D01*
X87072922Y-85313981D01*
X87098740Y-85344750D01*
X87104437Y-85348039D01*
X87104438Y-85348040D01*
X87133526Y-85364834D01*
X87139055Y-85368356D01*
X87171957Y-85391394D01*
X87178314Y-85393097D01*
X87183351Y-85395446D01*
X87187882Y-85397322D01*
X87193066Y-85399209D01*
X87198761Y-85402497D01*
X87213695Y-85405130D01*
X87238315Y-85409472D01*
X87244717Y-85410891D01*
X87270453Y-85417786D01*
X87283516Y-85421286D01*
X87290068Y-85420713D01*
X87290070Y-85420713D01*
X87323521Y-85417786D01*
X87330075Y-85417500D01*
X92225699Y-85417500D01*
X92274037Y-85435093D01*
X92278873Y-85439526D01*
X92541022Y-85701676D01*
X92799586Y-85960240D01*
X92820686Y-86001649D01*
X92825859Y-86034308D01*
X92883455Y-86147346D01*
X92973163Y-86237054D01*
X92978439Y-86239742D01*
X92978440Y-86239743D01*
X93001061Y-86251269D01*
X93086201Y-86294650D01*
X93211505Y-86314496D01*
X93336809Y-86294650D01*
X93421949Y-86251269D01*
X93444570Y-86239743D01*
X93444571Y-86239742D01*
X93449847Y-86237054D01*
X93539555Y-86147346D01*
X93597151Y-86034308D01*
X93616997Y-85909004D01*
X93597151Y-85783700D01*
X93566290Y-85723131D01*
X93542244Y-85675939D01*
X93542243Y-85675938D01*
X93539555Y-85670662D01*
X93449847Y-85580954D01*
X93336809Y-85523358D01*
X93330963Y-85522432D01*
X93304150Y-85518185D01*
X93262741Y-85497085D01*
X92636517Y-84870862D01*
X92632084Y-84866025D01*
X92610490Y-84840290D01*
X92606261Y-84835250D01*
X92593503Y-84827884D01*
X92571473Y-84815165D01*
X92565940Y-84811640D01*
X92538435Y-84792380D01*
X92538431Y-84792378D01*
X92533044Y-84788606D01*
X92526690Y-84786903D01*
X92521667Y-84784561D01*
X92517138Y-84782685D01*
X92511938Y-84780793D01*
X92506240Y-84777503D01*
X92466665Y-84770525D01*
X92460288Y-84769110D01*
X92427842Y-84760416D01*
X92427840Y-84760416D01*
X92421485Y-84758713D01*
X92414934Y-84759286D01*
X92414932Y-84759286D01*
X92381473Y-84762214D01*
X92374918Y-84762500D01*
X87479303Y-84762500D01*
X87430965Y-84744907D01*
X87426129Y-84740474D01*
X86454419Y-83768764D01*
X86433319Y-83727355D01*
X86429072Y-83700542D01*
X86428146Y-83694696D01*
X86370550Y-83581658D01*
X86280842Y-83491950D01*
X86167804Y-83434354D01*
X86098276Y-83423342D01*
X86048347Y-83415434D01*
X86042500Y-83414508D01*
X86036653Y-83415434D01*
X85986724Y-83423342D01*
X85917196Y-83434354D01*
X85804158Y-83491950D01*
X85714450Y-83581658D01*
X85656854Y-83694696D01*
X85637008Y-83820000D01*
X84819000Y-83820000D01*
X84819000Y-83185000D01*
X91352008Y-83185000D01*
X91371854Y-83310304D01*
X91374541Y-83315577D01*
X91425421Y-83415434D01*
X91429450Y-83423342D01*
X91519158Y-83513050D01*
X91632196Y-83570646D01*
X91638042Y-83571572D01*
X91664856Y-83575819D01*
X91706265Y-83596919D01*
X93418489Y-85309144D01*
X93422922Y-85313981D01*
X93448740Y-85344750D01*
X93454436Y-85348039D01*
X93454439Y-85348041D01*
X93483521Y-85364831D01*
X93489053Y-85368355D01*
X93493546Y-85371501D01*
X93516569Y-85387622D01*
X93516572Y-85387623D01*
X93521957Y-85391394D01*
X93528308Y-85393096D01*
X93533324Y-85395435D01*
X93537863Y-85397315D01*
X93543063Y-85399207D01*
X93548761Y-85402497D01*
X93588336Y-85409475D01*
X93594713Y-85410890D01*
X93627159Y-85419584D01*
X93627161Y-85419584D01*
X93633516Y-85421287D01*
X93640067Y-85420714D01*
X93640069Y-85420714D01*
X93673528Y-85417786D01*
X93680083Y-85417500D01*
X97940699Y-85417500D01*
X97989037Y-85435093D01*
X97993873Y-85439526D01*
X98256022Y-85701676D01*
X98514586Y-85960240D01*
X98535686Y-86001649D01*
X98540859Y-86034308D01*
X98598455Y-86147346D01*
X98688163Y-86237054D01*
X98693439Y-86239742D01*
X98693440Y-86239743D01*
X98716061Y-86251269D01*
X98801201Y-86294650D01*
X98926505Y-86314496D01*
X99051809Y-86294650D01*
X99136949Y-86251269D01*
X99159570Y-86239743D01*
X99159571Y-86239742D01*
X99164847Y-86237054D01*
X99254555Y-86147346D01*
X99312151Y-86034308D01*
X99331997Y-85909004D01*
X99312151Y-85783700D01*
X99281290Y-85723131D01*
X99257244Y-85675939D01*
X99257243Y-85675938D01*
X99254555Y-85670662D01*
X99164847Y-85580954D01*
X99051809Y-85523358D01*
X99045963Y-85522432D01*
X99019150Y-85518185D01*
X98977741Y-85497085D01*
X98351517Y-84870862D01*
X98347084Y-84866025D01*
X98325490Y-84840290D01*
X98321261Y-84835250D01*
X98308503Y-84827884D01*
X98286473Y-84815165D01*
X98280940Y-84811640D01*
X98253435Y-84792380D01*
X98253431Y-84792378D01*
X98248044Y-84788606D01*
X98241690Y-84786903D01*
X98236667Y-84784561D01*
X98232138Y-84782685D01*
X98226938Y-84780793D01*
X98221240Y-84777503D01*
X98181665Y-84770525D01*
X98175288Y-84769110D01*
X98142842Y-84760416D01*
X98142840Y-84760416D01*
X98136485Y-84758713D01*
X98129934Y-84759286D01*
X98129932Y-84759286D01*
X98096473Y-84762214D01*
X98089918Y-84762500D01*
X93829303Y-84762500D01*
X93780965Y-84744907D01*
X93776129Y-84740474D01*
X92220654Y-83185000D01*
X97067008Y-83185000D01*
X97086854Y-83310304D01*
X97089541Y-83315577D01*
X97140421Y-83415434D01*
X97144450Y-83423342D01*
X97234158Y-83513050D01*
X97347196Y-83570646D01*
X97353042Y-83571572D01*
X97379856Y-83575819D01*
X97421265Y-83596919D01*
X99133489Y-85309144D01*
X99137922Y-85313981D01*
X99163740Y-85344750D01*
X99169436Y-85348039D01*
X99169439Y-85348041D01*
X99198521Y-85364831D01*
X99204053Y-85368355D01*
X99208546Y-85371501D01*
X99231569Y-85387622D01*
X99231572Y-85387623D01*
X99236957Y-85391394D01*
X99243308Y-85393096D01*
X99248324Y-85395435D01*
X99252863Y-85397315D01*
X99258063Y-85399207D01*
X99263761Y-85402497D01*
X99303336Y-85409475D01*
X99309713Y-85410890D01*
X99342159Y-85419584D01*
X99342161Y-85419584D01*
X99348516Y-85421287D01*
X99355067Y-85420714D01*
X99355069Y-85420714D01*
X99388528Y-85417786D01*
X99395083Y-85417500D01*
X103655699Y-85417500D01*
X103704037Y-85435093D01*
X103708873Y-85439526D01*
X104003508Y-85734162D01*
X104293086Y-86023740D01*
X104314186Y-86065149D01*
X104319359Y-86097808D01*
X104376955Y-86210846D01*
X104466663Y-86300554D01*
X104471939Y-86303242D01*
X104471940Y-86303243D01*
X104519132Y-86327289D01*
X104579701Y-86358150D01*
X104635042Y-86366915D01*
X104681922Y-86374340D01*
X104705005Y-86377996D01*
X104728089Y-86374340D01*
X104774968Y-86366915D01*
X104830309Y-86358150D01*
X104890878Y-86327289D01*
X104938070Y-86303243D01*
X104938071Y-86303242D01*
X104943347Y-86300554D01*
X105033055Y-86210846D01*
X105090651Y-86097808D01*
X105110497Y-85972504D01*
X105090651Y-85847200D01*
X105050551Y-85768500D01*
X105035744Y-85739439D01*
X105035743Y-85739438D01*
X105033055Y-85734162D01*
X104943347Y-85644454D01*
X104830309Y-85586858D01*
X104819488Y-85585144D01*
X104797650Y-85581685D01*
X104756241Y-85560585D01*
X104066517Y-84870862D01*
X104062084Y-84866025D01*
X104040490Y-84840290D01*
X104036261Y-84835250D01*
X104023503Y-84827884D01*
X104001473Y-84815165D01*
X103995940Y-84811640D01*
X103968435Y-84792380D01*
X103968431Y-84792378D01*
X103963044Y-84788606D01*
X103956690Y-84786903D01*
X103951667Y-84784561D01*
X103947138Y-84782685D01*
X103941938Y-84780793D01*
X103936240Y-84777503D01*
X103896665Y-84770525D01*
X103890288Y-84769110D01*
X103857842Y-84760416D01*
X103857840Y-84760416D01*
X103851485Y-84758713D01*
X103844934Y-84759286D01*
X103844932Y-84759286D01*
X103811473Y-84762214D01*
X103804918Y-84762500D01*
X99544303Y-84762500D01*
X99495965Y-84744907D01*
X99491129Y-84740474D01*
X97935654Y-83185000D01*
X102782008Y-83185000D01*
X102801854Y-83310304D01*
X102804541Y-83315577D01*
X102855421Y-83415434D01*
X102859450Y-83423342D01*
X102949158Y-83513050D01*
X103062196Y-83570646D01*
X103068042Y-83571572D01*
X103094856Y-83575819D01*
X103136265Y-83596919D01*
X104848489Y-85309144D01*
X104852922Y-85313981D01*
X104878740Y-85344750D01*
X104884436Y-85348039D01*
X104884439Y-85348041D01*
X104913521Y-85364831D01*
X104919053Y-85368355D01*
X104923546Y-85371501D01*
X104946569Y-85387622D01*
X104946572Y-85387623D01*
X104951957Y-85391394D01*
X104958308Y-85393096D01*
X104963324Y-85395435D01*
X104967863Y-85397315D01*
X104973063Y-85399207D01*
X104978761Y-85402497D01*
X105018336Y-85409475D01*
X105024713Y-85410890D01*
X105057159Y-85419584D01*
X105057161Y-85419584D01*
X105063516Y-85421287D01*
X105070067Y-85420714D01*
X105070069Y-85420714D01*
X105103528Y-85417786D01*
X105110083Y-85417500D01*
X109370698Y-85417500D01*
X109419036Y-85435093D01*
X109423872Y-85439526D01*
X110395581Y-86411236D01*
X110416681Y-86452645D01*
X110421854Y-86485304D01*
X110479450Y-86598342D01*
X110569158Y-86688050D01*
X110682196Y-86745646D01*
X110807500Y-86765492D01*
X110932804Y-86745646D01*
X111045842Y-86688050D01*
X111135550Y-86598342D01*
X111193146Y-86485304D01*
X111212992Y-86360000D01*
X111211170Y-86348493D01*
X111194072Y-86240543D01*
X111193146Y-86234696D01*
X111135550Y-86121658D01*
X111045842Y-86031950D01*
X111038997Y-86028462D01*
X110986373Y-86001649D01*
X110932804Y-85974354D01*
X110921124Y-85972504D01*
X110900145Y-85969181D01*
X110858736Y-85948081D01*
X109781516Y-84870862D01*
X109777083Y-84866025D01*
X109755489Y-84840290D01*
X109751260Y-84835250D01*
X109738502Y-84827884D01*
X109716472Y-84815165D01*
X109710939Y-84811640D01*
X109683434Y-84792380D01*
X109683430Y-84792378D01*
X109678043Y-84788606D01*
X109671689Y-84786903D01*
X109666666Y-84784561D01*
X109662137Y-84782685D01*
X109656937Y-84780793D01*
X109651239Y-84777503D01*
X109611664Y-84770525D01*
X109605287Y-84769110D01*
X109572841Y-84760416D01*
X109572839Y-84760416D01*
X109566484Y-84758713D01*
X109559933Y-84759286D01*
X109559931Y-84759286D01*
X109526472Y-84762214D01*
X109519917Y-84762500D01*
X105259303Y-84762500D01*
X105210965Y-84744907D01*
X105206129Y-84740474D01*
X103599419Y-83133765D01*
X103578319Y-83092356D01*
X103574072Y-83065542D01*
X103573146Y-83059696D01*
X103515550Y-82946658D01*
X103425842Y-82856950D01*
X103312804Y-82799354D01*
X103187500Y-82779508D01*
X103062196Y-82799354D01*
X102949158Y-82856950D01*
X102859450Y-82946658D01*
X102801854Y-83059696D01*
X102782008Y-83185000D01*
X97935654Y-83185000D01*
X97884419Y-83133765D01*
X97863319Y-83092356D01*
X97859072Y-83065542D01*
X97858146Y-83059696D01*
X97800550Y-82946658D01*
X97710842Y-82856950D01*
X97597804Y-82799354D01*
X97472500Y-82779508D01*
X97347196Y-82799354D01*
X97234158Y-82856950D01*
X97144450Y-82946658D01*
X97086854Y-83059696D01*
X97067008Y-83185000D01*
X92220654Y-83185000D01*
X92169419Y-83133765D01*
X92148319Y-83092356D01*
X92144072Y-83065542D01*
X92143146Y-83059696D01*
X92085550Y-82946658D01*
X91995842Y-82856950D01*
X91882804Y-82799354D01*
X91757500Y-82779508D01*
X91632196Y-82799354D01*
X91519158Y-82856950D01*
X91429450Y-82946658D01*
X91371854Y-83059696D01*
X91352008Y-83185000D01*
X84819000Y-83185000D01*
X84819000Y-82324619D01*
X84836593Y-82276281D01*
X84841026Y-82271445D01*
X85509945Y-81602526D01*
X85556565Y-81580786D01*
X85563119Y-81580500D01*
X110752983Y-81580500D01*
X110758390Y-81580897D01*
X110762841Y-81582425D01*
X110812714Y-81580553D01*
X110815535Y-81580500D01*
X110835448Y-81580500D01*
X110838844Y-81579868D01*
X110842191Y-81579559D01*
X110846275Y-81579294D01*
X110867770Y-81578487D01*
X110867773Y-81578486D01*
X110874708Y-81578226D01*
X110887721Y-81572635D01*
X110903631Y-81567802D01*
X110906002Y-81567360D01*
X110917553Y-81565209D01*
X110923462Y-81561567D01*
X110923464Y-81561566D01*
X110941713Y-81550317D01*
X110951488Y-81545239D01*
X110972687Y-81536131D01*
X110972689Y-81536130D01*
X110977562Y-81534036D01*
X110982448Y-81530023D01*
X110988779Y-81523692D01*
X111002493Y-81512851D01*
X111006937Y-81510112D01*
X111006938Y-81510111D01*
X111012848Y-81506468D01*
X111031488Y-81481955D01*
X111038173Y-81474298D01*
X111336953Y-81175519D01*
X111818250Y-80694223D01*
X111822351Y-80690683D01*
X111826578Y-80688617D01*
X111860524Y-80652023D01*
X111862481Y-80649992D01*
X111876557Y-80635916D01*
X111878517Y-80633059D01*
X111880664Y-80630475D01*
X111883369Y-80627395D01*
X111897989Y-80611636D01*
X111897991Y-80611633D01*
X111902710Y-80606546D01*
X111907958Y-80593392D01*
X111915790Y-80578724D01*
X111923801Y-80567046D01*
X111930355Y-80539429D01*
X111933673Y-80528937D01*
X111944192Y-80502570D01*
X111944809Y-80496277D01*
X111944809Y-80487322D01*
X111946841Y-80469958D01*
X111948046Y-80464879D01*
X111949649Y-80458126D01*
X111945496Y-80427610D01*
X111944809Y-80417469D01*
X111944809Y-76381516D01*
X111945206Y-76376109D01*
X111946734Y-76371658D01*
X111944862Y-76321786D01*
X111944809Y-76318965D01*
X111944809Y-76299052D01*
X111944177Y-76295656D01*
X111943868Y-76292309D01*
X111943603Y-76288225D01*
X111942796Y-76266730D01*
X111942795Y-76266727D01*
X111942535Y-76259792D01*
X111936944Y-76246779D01*
X111932111Y-76230869D01*
X111930789Y-76223772D01*
X111929518Y-76216947D01*
X111922676Y-76205847D01*
X111914625Y-76192784D01*
X111909549Y-76183012D01*
X111900445Y-76161823D01*
X111900442Y-76161819D01*
X111898345Y-76156937D01*
X111894331Y-76152051D01*
X111888001Y-76145721D01*
X111877160Y-76132007D01*
X111874421Y-76127563D01*
X111874420Y-76127562D01*
X111870777Y-76121652D01*
X111846251Y-76103002D01*
X111838604Y-76096324D01*
X111006347Y-75264067D01*
X111002801Y-75259959D01*
X111000734Y-75255731D01*
X110964127Y-75221773D01*
X110962096Y-75219816D01*
X110948032Y-75205752D01*
X110945180Y-75203795D01*
X110942606Y-75201656D01*
X110939531Y-75198956D01*
X110923752Y-75184320D01*
X110918663Y-75179599D01*
X110912217Y-75177027D01*
X110912215Y-75177026D01*
X110905514Y-75174353D01*
X110890841Y-75166519D01*
X110890506Y-75166289D01*
X110879163Y-75158508D01*
X110851546Y-75151954D01*
X110841054Y-75148636D01*
X110814687Y-75138117D01*
X110808394Y-75137500D01*
X110799439Y-75137500D01*
X110782075Y-75135468D01*
X110770243Y-75132660D01*
X110763365Y-75133596D01*
X110763364Y-75133596D01*
X110739727Y-75136813D01*
X110729586Y-75137500D01*
X108893349Y-75137500D01*
X108845011Y-75119907D01*
X108840175Y-75115474D01*
X108834651Y-75109950D01*
X108721613Y-75052354D01*
X108596309Y-75032508D01*
X108471005Y-75052354D01*
X108357967Y-75109950D01*
X108268259Y-75199658D01*
X108210663Y-75312696D01*
X108190817Y-75438000D01*
X108191743Y-75443847D01*
X108192012Y-75445543D01*
X108210663Y-75563304D01*
X108268259Y-75676342D01*
X108357967Y-75766050D01*
X108471005Y-75823646D01*
X108596309Y-75843492D01*
X108721613Y-75823646D01*
X108834651Y-75766050D01*
X108840175Y-75760526D01*
X108841577Y-75759872D01*
X108843621Y-75758387D01*
X108843910Y-75758784D01*
X108886795Y-75738786D01*
X108893349Y-75738500D01*
X110599690Y-75738500D01*
X110648028Y-75756093D01*
X110652864Y-75760526D01*
X111321783Y-76429445D01*
X111343523Y-76476065D01*
X111343809Y-76482619D01*
X111343809Y-78564796D01*
X111326216Y-78613134D01*
X111281667Y-78638854D01*
X111231009Y-78629921D01*
X111201605Y-78598936D01*
X111154728Y-78506935D01*
X111154727Y-78506934D01*
X111152039Y-78501658D01*
X111062331Y-78411950D01*
X110949293Y-78354354D01*
X110943447Y-78353428D01*
X110916634Y-78349181D01*
X110875225Y-78328081D01*
X109798005Y-77250862D01*
X109793572Y-77246025D01*
X109771978Y-77220290D01*
X109767749Y-77215250D01*
X109754991Y-77207884D01*
X109732961Y-77195165D01*
X109727428Y-77191640D01*
X109699923Y-77172380D01*
X109699919Y-77172378D01*
X109694532Y-77168606D01*
X109688178Y-77166903D01*
X109683155Y-77164561D01*
X109678626Y-77162685D01*
X109673426Y-77160793D01*
X109667728Y-77157503D01*
X109628153Y-77150525D01*
X109621776Y-77149110D01*
X109589330Y-77140416D01*
X109589328Y-77140416D01*
X109582973Y-77138713D01*
X109576422Y-77139286D01*
X109576420Y-77139286D01*
X109542961Y-77142214D01*
X109536406Y-77142500D01*
X105275792Y-77142500D01*
X105227454Y-77124907D01*
X105222618Y-77120474D01*
X103615908Y-75513765D01*
X103594808Y-75472356D01*
X103590561Y-75445542D01*
X103589635Y-75439696D01*
X103532039Y-75326658D01*
X103442331Y-75236950D01*
X103329293Y-75179354D01*
X103203989Y-75159508D01*
X103078685Y-75179354D01*
X102965647Y-75236950D01*
X102875939Y-75326658D01*
X102818343Y-75439696D01*
X102798497Y-75565000D01*
X102818343Y-75690304D01*
X102821030Y-75695577D01*
X102871910Y-75795434D01*
X102875939Y-75803342D01*
X102965647Y-75893050D01*
X103078685Y-75950646D01*
X103084531Y-75951572D01*
X103111345Y-75955819D01*
X103152754Y-75976919D01*
X104864978Y-77689144D01*
X104869411Y-77693981D01*
X104895229Y-77724750D01*
X104900925Y-77728039D01*
X104900928Y-77728041D01*
X104930010Y-77744831D01*
X104935544Y-77748356D01*
X104963058Y-77767622D01*
X104963061Y-77767623D01*
X104968446Y-77771394D01*
X104974797Y-77773096D01*
X104979813Y-77775435D01*
X104984352Y-77777315D01*
X104989552Y-77779207D01*
X104995250Y-77782497D01*
X105034825Y-77789475D01*
X105041202Y-77790890D01*
X105073648Y-77799584D01*
X105073650Y-77799584D01*
X105080005Y-77801287D01*
X105086556Y-77800714D01*
X105086558Y-77800714D01*
X105120017Y-77797786D01*
X105126572Y-77797500D01*
X109387187Y-77797500D01*
X109435525Y-77815093D01*
X109440361Y-77819526D01*
X110412070Y-78791236D01*
X110433170Y-78832645D01*
X110436242Y-78852039D01*
X110438343Y-78865304D01*
X110495939Y-78978342D01*
X110585647Y-79068050D01*
X110698685Y-79125646D01*
X110823989Y-79145492D01*
X110949293Y-79125646D01*
X111062331Y-79068050D01*
X111152039Y-78978342D01*
X111171041Y-78941050D01*
X111201605Y-78881064D01*
X111239226Y-78845982D01*
X111290596Y-78843290D01*
X111331677Y-78874247D01*
X111343809Y-78915204D01*
X111343809Y-80287573D01*
X111326216Y-80335911D01*
X111321783Y-80340747D01*
X110929757Y-80732773D01*
X110705055Y-80957474D01*
X110658435Y-80979214D01*
X110651881Y-80979500D01*
X85462016Y-80979500D01*
X85456609Y-80979103D01*
X85452158Y-80977575D01*
X85402286Y-80979447D01*
X85399465Y-80979500D01*
X85379552Y-80979500D01*
X85376156Y-80980132D01*
X85372809Y-80980441D01*
X85368725Y-80980706D01*
X85347230Y-80981513D01*
X85347227Y-80981514D01*
X85340292Y-80981774D01*
X85327279Y-80987365D01*
X85311368Y-80992198D01*
X85297447Y-80994791D01*
X85291536Y-80998435D01*
X85291535Y-80998435D01*
X85273284Y-81009684D01*
X85263512Y-81014760D01*
X85242323Y-81023864D01*
X85242319Y-81023867D01*
X85237437Y-81025964D01*
X85232551Y-81029978D01*
X85226221Y-81036308D01*
X85212507Y-81047149D01*
X85208063Y-81049888D01*
X85208062Y-81049889D01*
X85202152Y-81053532D01*
X85183502Y-81078058D01*
X85176824Y-81085705D01*
X84344567Y-81917962D01*
X84340459Y-81921508D01*
X84336231Y-81923575D01*
X84331510Y-81928664D01*
X84331509Y-81928665D01*
X84302274Y-81960181D01*
X84300316Y-81962213D01*
X84286252Y-81976277D01*
X84284295Y-81979129D01*
X84282156Y-81981703D01*
X84279456Y-81984778D01*
X84270247Y-81994706D01*
X84260099Y-82005646D01*
X84257527Y-82012092D01*
X84257526Y-82012094D01*
X84254853Y-82018795D01*
X84247019Y-82033468D01*
X84239008Y-82045146D01*
X84237405Y-82051901D01*
X84232455Y-82072761D01*
X84229136Y-82083255D01*
X84218617Y-82109622D01*
X84218000Y-82115915D01*
X84218000Y-82124870D01*
X84215968Y-82142233D01*
X84213160Y-82154066D01*
X82257009Y-82154066D01*
X82257009Y-74534066D01*
X84033969Y-74534066D01*
X84034905Y-74540944D01*
X84034905Y-74540945D01*
X84038122Y-74564582D01*
X84038809Y-74574723D01*
X84038809Y-76870484D01*
X84038412Y-76875891D01*
X84036884Y-76880342D01*
X84037145Y-76887282D01*
X84038756Y-76930214D01*
X84038809Y-76933035D01*
X84038809Y-76952948D01*
X84039441Y-76956344D01*
X84039750Y-76959691D01*
X84040015Y-76963775D01*
X84040822Y-76985270D01*
X84040823Y-76985273D01*
X84041083Y-76992208D01*
X84046674Y-77005221D01*
X84051507Y-77021131D01*
X84054100Y-77035053D01*
X84057744Y-77040964D01*
X84057744Y-77040965D01*
X84068993Y-77059216D01*
X84074069Y-77068988D01*
X84083173Y-77090177D01*
X84083176Y-77090181D01*
X84085273Y-77095063D01*
X84089287Y-77099949D01*
X84095617Y-77106279D01*
X84106458Y-77119993D01*
X84112841Y-77130348D01*
X84137367Y-77148998D01*
X84145014Y-77155676D01*
X85776271Y-78786933D01*
X85779817Y-78791041D01*
X85781884Y-78795269D01*
X85786973Y-78799990D01*
X85786974Y-78799991D01*
X85818490Y-78829226D01*
X85820522Y-78831184D01*
X85834585Y-78845247D01*
X85837451Y-78847213D01*
X85839997Y-78849328D01*
X85843069Y-78852026D01*
X85863955Y-78871401D01*
X85870405Y-78873974D01*
X85870406Y-78873975D01*
X85877104Y-78876647D01*
X85891777Y-78884481D01*
X85903455Y-78892492D01*
X85931072Y-78899046D01*
X85941564Y-78902364D01*
X85967931Y-78912883D01*
X85974224Y-78913500D01*
X85983179Y-78913500D01*
X86000542Y-78915532D01*
X86012375Y-78918340D01*
X86019253Y-78917404D01*
X86019254Y-78917404D01*
X86042891Y-78914187D01*
X86053032Y-78913500D01*
X87598269Y-78913500D01*
X87646607Y-78931093D01*
X87651443Y-78935526D01*
X87656967Y-78941050D01*
X87770005Y-78998646D01*
X87895309Y-79018492D01*
X88020613Y-78998646D01*
X88133651Y-78941050D01*
X88223359Y-78851342D01*
X88227717Y-78842790D01*
X88256177Y-78786933D01*
X88280955Y-78738304D01*
X88300801Y-78613000D01*
X88280955Y-78487696D01*
X88223359Y-78374658D01*
X88133651Y-78284950D01*
X88020613Y-78227354D01*
X87895309Y-78207508D01*
X87770005Y-78227354D01*
X87656967Y-78284950D01*
X87651443Y-78290474D01*
X87650041Y-78291128D01*
X87647997Y-78292613D01*
X87647708Y-78292216D01*
X87604823Y-78312214D01*
X87598269Y-78312500D01*
X86182928Y-78312500D01*
X86134590Y-78294907D01*
X86129754Y-78290474D01*
X84661835Y-76822555D01*
X84640095Y-76775935D01*
X84639809Y-76769381D01*
X84639809Y-76200000D01*
X85653497Y-76200000D01*
X85673343Y-76325304D01*
X85730939Y-76438342D01*
X85820647Y-76528050D01*
X85933685Y-76585646D01*
X85939531Y-76586572D01*
X85966344Y-76590819D01*
X86007753Y-76611919D01*
X87084978Y-77689144D01*
X87089411Y-77693981D01*
X87115229Y-77724750D01*
X87120926Y-77728039D01*
X87120927Y-77728040D01*
X87150015Y-77744834D01*
X87155544Y-77748356D01*
X87188446Y-77771394D01*
X87194803Y-77773097D01*
X87199840Y-77775446D01*
X87204371Y-77777322D01*
X87209555Y-77779209D01*
X87215250Y-77782497D01*
X87230184Y-77785130D01*
X87254804Y-77789472D01*
X87261206Y-77790891D01*
X87286942Y-77797786D01*
X87300005Y-77801286D01*
X87306557Y-77800713D01*
X87306559Y-77800713D01*
X87340010Y-77797786D01*
X87346564Y-77797500D01*
X92242187Y-77797500D01*
X92290525Y-77815093D01*
X92295361Y-77819526D01*
X93267070Y-78791236D01*
X93288170Y-78832645D01*
X93291242Y-78852039D01*
X93293343Y-78865304D01*
X93350939Y-78978342D01*
X93440647Y-79068050D01*
X93553685Y-79125646D01*
X93678989Y-79145492D01*
X93804293Y-79125646D01*
X93917331Y-79068050D01*
X94007039Y-78978342D01*
X94064635Y-78865304D01*
X94084481Y-78740000D01*
X94064635Y-78614696D01*
X94007039Y-78501658D01*
X93917331Y-78411950D01*
X93804293Y-78354354D01*
X93798447Y-78353428D01*
X93771634Y-78349181D01*
X93730225Y-78328081D01*
X92653005Y-77250862D01*
X92648572Y-77246025D01*
X92626978Y-77220290D01*
X92622749Y-77215250D01*
X92609991Y-77207884D01*
X92587961Y-77195165D01*
X92582428Y-77191640D01*
X92554923Y-77172380D01*
X92554919Y-77172378D01*
X92549532Y-77168606D01*
X92543178Y-77166903D01*
X92538155Y-77164561D01*
X92533626Y-77162685D01*
X92528426Y-77160793D01*
X92522728Y-77157503D01*
X92483153Y-77150525D01*
X92476776Y-77149110D01*
X92444330Y-77140416D01*
X92444328Y-77140416D01*
X92437973Y-77138713D01*
X92431422Y-77139286D01*
X92431420Y-77139286D01*
X92397961Y-77142214D01*
X92391406Y-77142500D01*
X87495792Y-77142500D01*
X87447454Y-77124907D01*
X87442618Y-77120474D01*
X86470908Y-76148764D01*
X86449808Y-76107355D01*
X86445561Y-76080542D01*
X86444635Y-76074696D01*
X86387039Y-75961658D01*
X86297331Y-75871950D01*
X86184293Y-75814354D01*
X86114765Y-75803342D01*
X86064836Y-75795434D01*
X86058989Y-75794508D01*
X86053142Y-75795434D01*
X86003213Y-75803342D01*
X85933685Y-75814354D01*
X85820647Y-75871950D01*
X85730939Y-75961658D01*
X85673343Y-76074696D01*
X85653497Y-76200000D01*
X84639809Y-76200000D01*
X84639809Y-75565000D01*
X91368497Y-75565000D01*
X91388343Y-75690304D01*
X91391030Y-75695577D01*
X91441910Y-75795434D01*
X91445939Y-75803342D01*
X91535647Y-75893050D01*
X91648685Y-75950646D01*
X91654531Y-75951572D01*
X91681345Y-75955819D01*
X91722754Y-75976919D01*
X93434978Y-77689144D01*
X93439411Y-77693981D01*
X93465229Y-77724750D01*
X93470925Y-77728039D01*
X93470928Y-77728041D01*
X93500010Y-77744831D01*
X93505544Y-77748356D01*
X93533058Y-77767622D01*
X93533061Y-77767623D01*
X93538446Y-77771394D01*
X93544797Y-77773096D01*
X93549813Y-77775435D01*
X93554352Y-77777315D01*
X93559552Y-77779207D01*
X93565250Y-77782497D01*
X93604825Y-77789475D01*
X93611202Y-77790890D01*
X93643648Y-77799584D01*
X93643650Y-77799584D01*
X93650005Y-77801287D01*
X93656556Y-77800714D01*
X93656558Y-77800714D01*
X93690017Y-77797786D01*
X93696572Y-77797500D01*
X97957187Y-77797500D01*
X98005525Y-77815093D01*
X98010361Y-77819526D01*
X98982070Y-78791236D01*
X99003170Y-78832645D01*
X99006242Y-78852039D01*
X99008343Y-78865304D01*
X99065939Y-78978342D01*
X99155647Y-79068050D01*
X99268685Y-79125646D01*
X99393989Y-79145492D01*
X99519293Y-79125646D01*
X99632331Y-79068050D01*
X99722039Y-78978342D01*
X99779635Y-78865304D01*
X99799481Y-78740000D01*
X99779635Y-78614696D01*
X99722039Y-78501658D01*
X99632331Y-78411950D01*
X99519293Y-78354354D01*
X99513447Y-78353428D01*
X99486634Y-78349181D01*
X99445225Y-78328081D01*
X98368005Y-77250862D01*
X98363572Y-77246025D01*
X98341978Y-77220290D01*
X98337749Y-77215250D01*
X98324991Y-77207884D01*
X98302961Y-77195165D01*
X98297428Y-77191640D01*
X98269923Y-77172380D01*
X98269919Y-77172378D01*
X98264532Y-77168606D01*
X98258178Y-77166903D01*
X98253155Y-77164561D01*
X98248626Y-77162685D01*
X98243426Y-77160793D01*
X98237728Y-77157503D01*
X98198153Y-77150525D01*
X98191776Y-77149110D01*
X98159330Y-77140416D01*
X98159328Y-77140416D01*
X98152973Y-77138713D01*
X98146422Y-77139286D01*
X98146420Y-77139286D01*
X98112961Y-77142214D01*
X98106406Y-77142500D01*
X93845792Y-77142500D01*
X93797454Y-77124907D01*
X93792618Y-77120474D01*
X92237143Y-75565000D01*
X97083497Y-75565000D01*
X97103343Y-75690304D01*
X97106030Y-75695577D01*
X97156910Y-75795434D01*
X97160939Y-75803342D01*
X97250647Y-75893050D01*
X97363685Y-75950646D01*
X97369531Y-75951572D01*
X97396345Y-75955819D01*
X97437754Y-75976919D01*
X99149978Y-77689144D01*
X99154411Y-77693981D01*
X99180229Y-77724750D01*
X99185925Y-77728039D01*
X99185928Y-77728041D01*
X99215010Y-77744831D01*
X99220544Y-77748356D01*
X99248058Y-77767622D01*
X99248061Y-77767623D01*
X99253446Y-77771394D01*
X99259797Y-77773096D01*
X99264813Y-77775435D01*
X99269352Y-77777315D01*
X99274552Y-77779207D01*
X99280250Y-77782497D01*
X99319825Y-77789475D01*
X99326202Y-77790890D01*
X99358648Y-77799584D01*
X99358650Y-77799584D01*
X99365005Y-77801287D01*
X99371556Y-77800714D01*
X99371558Y-77800714D01*
X99405017Y-77797786D01*
X99411572Y-77797500D01*
X103672187Y-77797500D01*
X103720525Y-77815093D01*
X103725361Y-77819526D01*
X104697070Y-78791236D01*
X104718170Y-78832645D01*
X104721242Y-78852039D01*
X104723343Y-78865304D01*
X104780939Y-78978342D01*
X104870647Y-79068050D01*
X104983685Y-79125646D01*
X105108989Y-79145492D01*
X105234293Y-79125646D01*
X105347331Y-79068050D01*
X105437039Y-78978342D01*
X105494635Y-78865304D01*
X105514481Y-78740000D01*
X105494635Y-78614696D01*
X105437039Y-78501658D01*
X105347331Y-78411950D01*
X105234293Y-78354354D01*
X105228447Y-78353428D01*
X105201634Y-78349181D01*
X105160225Y-78328081D01*
X104083005Y-77250862D01*
X104078572Y-77246025D01*
X104056978Y-77220290D01*
X104052749Y-77215250D01*
X104039991Y-77207884D01*
X104017961Y-77195165D01*
X104012428Y-77191640D01*
X103984923Y-77172380D01*
X103984919Y-77172378D01*
X103979532Y-77168606D01*
X103973178Y-77166903D01*
X103968155Y-77164561D01*
X103963626Y-77162685D01*
X103958426Y-77160793D01*
X103952728Y-77157503D01*
X103913153Y-77150525D01*
X103906776Y-77149110D01*
X103874330Y-77140416D01*
X103874328Y-77140416D01*
X103867973Y-77138713D01*
X103861422Y-77139286D01*
X103861420Y-77139286D01*
X103827961Y-77142214D01*
X103821406Y-77142500D01*
X99560792Y-77142500D01*
X99512454Y-77124907D01*
X99507618Y-77120474D01*
X97900908Y-75513765D01*
X97879808Y-75472356D01*
X97875561Y-75445542D01*
X97874635Y-75439696D01*
X97817039Y-75326658D01*
X97727331Y-75236950D01*
X97614293Y-75179354D01*
X97488989Y-75159508D01*
X97363685Y-75179354D01*
X97250647Y-75236950D01*
X97160939Y-75326658D01*
X97103343Y-75439696D01*
X97083497Y-75565000D01*
X92237143Y-75565000D01*
X92185908Y-75513765D01*
X92164808Y-75472356D01*
X92160561Y-75445542D01*
X92159635Y-75439696D01*
X92102039Y-75326658D01*
X92012331Y-75236950D01*
X91899293Y-75179354D01*
X91773989Y-75159508D01*
X91648685Y-75179354D01*
X91535647Y-75236950D01*
X91445939Y-75326658D01*
X91388343Y-75439696D01*
X91368497Y-75565000D01*
X84639809Y-75565000D01*
X84639809Y-74704619D01*
X84657402Y-74656281D01*
X84661835Y-74651445D01*
X85584754Y-73728526D01*
X85631374Y-73706786D01*
X85637928Y-73706500D01*
X111133984Y-73706500D01*
X111139391Y-73706897D01*
X111143842Y-73708425D01*
X111255709Y-73704226D01*
X111262086Y-73701486D01*
X111262087Y-73701486D01*
X111291382Y-73688900D01*
X111358563Y-73660036D01*
X111363449Y-73656022D01*
X111857652Y-73161818D01*
X112148442Y-72871028D01*
X112152550Y-72867482D01*
X112156778Y-72865415D01*
X112190736Y-72828808D01*
X112192693Y-72826777D01*
X112206757Y-72812713D01*
X112208714Y-72809861D01*
X112210853Y-72807287D01*
X112213553Y-72804212D01*
X112228189Y-72788433D01*
X112232910Y-72783344D01*
X112238156Y-72770195D01*
X112245990Y-72755522D01*
X112250074Y-72749568D01*
X112254001Y-72743844D01*
X112260555Y-72716227D01*
X112263873Y-72705735D01*
X112274392Y-72679368D01*
X112275009Y-72673075D01*
X112275009Y-72664120D01*
X112277041Y-72646756D01*
X112278246Y-72641677D01*
X112279849Y-72634924D01*
X112275696Y-72604408D01*
X112275009Y-72594267D01*
X112275009Y-69142516D01*
X112275406Y-69137109D01*
X112276934Y-69132658D01*
X112275062Y-69082786D01*
X112275009Y-69079965D01*
X112275009Y-69060052D01*
X112274377Y-69056656D01*
X112274068Y-69053309D01*
X112273803Y-69049225D01*
X112272996Y-69027730D01*
X112272995Y-69027727D01*
X112272735Y-69020792D01*
X112267144Y-69007779D01*
X112262311Y-68991869D01*
X112260989Y-68984772D01*
X112259718Y-68977947D01*
X112256074Y-68972035D01*
X112244825Y-68953784D01*
X112239749Y-68944012D01*
X112230645Y-68922823D01*
X112230642Y-68922819D01*
X112228545Y-68917937D01*
X112224531Y-68913051D01*
X112218201Y-68906721D01*
X112207360Y-68893007D01*
X112204621Y-68888563D01*
X112204620Y-68888562D01*
X112200977Y-68882652D01*
X112176451Y-68864002D01*
X112168804Y-68857324D01*
X111082547Y-67771067D01*
X111079001Y-67766959D01*
X111076934Y-67762731D01*
X111040327Y-67728773D01*
X111038296Y-67726816D01*
X111024232Y-67712752D01*
X111021380Y-67710795D01*
X111018806Y-67708656D01*
X111015731Y-67705956D01*
X110999952Y-67691320D01*
X110994863Y-67686599D01*
X110988417Y-67684027D01*
X110988415Y-67684026D01*
X110981714Y-67681353D01*
X110967041Y-67673519D01*
X110966706Y-67673289D01*
X110955363Y-67665508D01*
X110927746Y-67658954D01*
X110917254Y-67655636D01*
X110890887Y-67645117D01*
X110884594Y-67644500D01*
X110875639Y-67644500D01*
X110858275Y-67642468D01*
X110846443Y-67639660D01*
X110839565Y-67640596D01*
X110839564Y-67640596D01*
X110815927Y-67643813D01*
X110805786Y-67644500D01*
X108969549Y-67644500D01*
X108921211Y-67626907D01*
X108916375Y-67622474D01*
X108910851Y-67616950D01*
X108797813Y-67559354D01*
X108672509Y-67539508D01*
X108547205Y-67559354D01*
X108434167Y-67616950D01*
X108344459Y-67706658D01*
X108286863Y-67819696D01*
X108267017Y-67945000D01*
X108286863Y-68070304D01*
X108289550Y-68075577D01*
X108340430Y-68175434D01*
X108344459Y-68183342D01*
X108434167Y-68273050D01*
X108547205Y-68330646D01*
X108590278Y-68337468D01*
X108650051Y-68346935D01*
X108672509Y-68350492D01*
X108694968Y-68346935D01*
X108754740Y-68337468D01*
X108797813Y-68330646D01*
X108910851Y-68273050D01*
X108916375Y-68267526D01*
X108917777Y-68266872D01*
X108919821Y-68265387D01*
X108920110Y-68265784D01*
X108962995Y-68245786D01*
X108969549Y-68245500D01*
X110675890Y-68245500D01*
X110724228Y-68263093D01*
X110729064Y-68267526D01*
X111651983Y-69190445D01*
X111673723Y-69237065D01*
X111674009Y-69243619D01*
X111674009Y-72464371D01*
X111656416Y-72512709D01*
X111651983Y-72517545D01*
X111450455Y-72719073D01*
X111086055Y-73083474D01*
X111039435Y-73105214D01*
X111032881Y-73105500D01*
X85536825Y-73105500D01*
X85531418Y-73105103D01*
X85526967Y-73103575D01*
X85477095Y-73105447D01*
X85474274Y-73105500D01*
X85454361Y-73105500D01*
X85450965Y-73106132D01*
X85447618Y-73106441D01*
X85443534Y-73106706D01*
X85422039Y-73107513D01*
X85422036Y-73107514D01*
X85415101Y-73107774D01*
X85402088Y-73113365D01*
X85386177Y-73118198D01*
X85372256Y-73120791D01*
X85366345Y-73124435D01*
X85366344Y-73124435D01*
X85348093Y-73135684D01*
X85338321Y-73140760D01*
X85317132Y-73149864D01*
X85317128Y-73149867D01*
X85312246Y-73151964D01*
X85307360Y-73155978D01*
X85301030Y-73162308D01*
X85287316Y-73173149D01*
X85282872Y-73175888D01*
X85282871Y-73175889D01*
X85276961Y-73179532D01*
X85258311Y-73204058D01*
X85251633Y-73211705D01*
X84165376Y-74297962D01*
X84161268Y-74301508D01*
X84157040Y-74303575D01*
X84152319Y-74308664D01*
X84152318Y-74308665D01*
X84123083Y-74340181D01*
X84121125Y-74342213D01*
X84107061Y-74356277D01*
X84105104Y-74359129D01*
X84102965Y-74361703D01*
X84100265Y-74364778D01*
X84091056Y-74374706D01*
X84080908Y-74385646D01*
X84078336Y-74392092D01*
X84078335Y-74392094D01*
X84075662Y-74398795D01*
X84067828Y-74413468D01*
X84059817Y-74425146D01*
X84058214Y-74431901D01*
X84053264Y-74452761D01*
X84049945Y-74463255D01*
X84039426Y-74489622D01*
X84038809Y-74495915D01*
X84038809Y-74504870D01*
X84036777Y-74522233D01*
X84033969Y-74534066D01*
X82257009Y-74534066D01*
X82257009Y-67168066D01*
X84491169Y-67168066D01*
X84492105Y-67174944D01*
X84492105Y-67174945D01*
X84495322Y-67198582D01*
X84496009Y-67208723D01*
X84496009Y-70049484D01*
X84495612Y-70054891D01*
X84494084Y-70059342D01*
X84495599Y-70099710D01*
X84495956Y-70109214D01*
X84496009Y-70112035D01*
X84496009Y-70131948D01*
X84496641Y-70135344D01*
X84496950Y-70138691D01*
X84497215Y-70142775D01*
X84498022Y-70164270D01*
X84498023Y-70164273D01*
X84498283Y-70171208D01*
X84503874Y-70184221D01*
X84508707Y-70200131D01*
X84511300Y-70214053D01*
X84514944Y-70219964D01*
X84514944Y-70219965D01*
X84526193Y-70238216D01*
X84531269Y-70247988D01*
X84540373Y-70269177D01*
X84540376Y-70269181D01*
X84542473Y-70274063D01*
X84546487Y-70278949D01*
X84552817Y-70285279D01*
X84563658Y-70298993D01*
X84570041Y-70309348D01*
X84594567Y-70327998D01*
X84602214Y-70334676D01*
X85307471Y-71039933D01*
X85311017Y-71044041D01*
X85313084Y-71048269D01*
X85318173Y-71052990D01*
X85318174Y-71052991D01*
X85349690Y-71082226D01*
X85351722Y-71084184D01*
X85365786Y-71098248D01*
X85368638Y-71100205D01*
X85371212Y-71102344D01*
X85374287Y-71105044D01*
X85390065Y-71119680D01*
X85390067Y-71119681D01*
X85395155Y-71124401D01*
X85401600Y-71126972D01*
X85401601Y-71126973D01*
X85408304Y-71129647D01*
X85422974Y-71137480D01*
X85428931Y-71141567D01*
X85428933Y-71141568D01*
X85434655Y-71145493D01*
X85460448Y-71151614D01*
X85462273Y-71152047D01*
X85472772Y-71155368D01*
X85494196Y-71163915D01*
X85494201Y-71163916D01*
X85499131Y-71165883D01*
X85505424Y-71166500D01*
X85514379Y-71166500D01*
X85531742Y-71168532D01*
X85543575Y-71171340D01*
X85550453Y-71170404D01*
X85550454Y-71170404D01*
X85574091Y-71167187D01*
X85584232Y-71166500D01*
X87636155Y-71166500D01*
X87684493Y-71184093D01*
X87710429Y-71229936D01*
X87712863Y-71245304D01*
X87770459Y-71358342D01*
X87860167Y-71448050D01*
X87973205Y-71505646D01*
X88098509Y-71525492D01*
X88223813Y-71505646D01*
X88336851Y-71448050D01*
X88426559Y-71358342D01*
X88484155Y-71245304D01*
X88500585Y-71141567D01*
X88503075Y-71125847D01*
X88504001Y-71120000D01*
X88484155Y-70994696D01*
X88426559Y-70881658D01*
X88336851Y-70791950D01*
X88223813Y-70734354D01*
X88145786Y-70721996D01*
X88104376Y-70700896D01*
X88095547Y-70692067D01*
X88092001Y-70687959D01*
X88089934Y-70683731D01*
X88053327Y-70649773D01*
X88051296Y-70647816D01*
X88037232Y-70633752D01*
X88034380Y-70631795D01*
X88031806Y-70629656D01*
X88028731Y-70626956D01*
X88012952Y-70612320D01*
X88007863Y-70607599D01*
X88001417Y-70605027D01*
X88001415Y-70605026D01*
X87994714Y-70602353D01*
X87980041Y-70594519D01*
X87979706Y-70594289D01*
X87968363Y-70586508D01*
X87940746Y-70579954D01*
X87930254Y-70576636D01*
X87903887Y-70566117D01*
X87897594Y-70565500D01*
X87888639Y-70565500D01*
X87871275Y-70563468D01*
X87859443Y-70560660D01*
X87852565Y-70561596D01*
X87852564Y-70561596D01*
X87828927Y-70564813D01*
X87818786Y-70565500D01*
X85714129Y-70565500D01*
X85665791Y-70547907D01*
X85660955Y-70543474D01*
X85119035Y-70001555D01*
X85097295Y-69954935D01*
X85097009Y-69948381D01*
X85097009Y-68580000D01*
X85637008Y-68580000D01*
X85656854Y-68705304D01*
X85714450Y-68818342D01*
X85804158Y-68908050D01*
X85809434Y-68910738D01*
X85809435Y-68910739D01*
X85856627Y-68934785D01*
X85917196Y-68965646D01*
X85923042Y-68966572D01*
X85949855Y-68970819D01*
X85991264Y-68991919D01*
X87068489Y-70069144D01*
X87072922Y-70073981D01*
X87098740Y-70104750D01*
X87104437Y-70108039D01*
X87104438Y-70108040D01*
X87133526Y-70124834D01*
X87139055Y-70128356D01*
X87171957Y-70151394D01*
X87178314Y-70153097D01*
X87183351Y-70155446D01*
X87187882Y-70157322D01*
X87193066Y-70159209D01*
X87198761Y-70162497D01*
X87208816Y-70164270D01*
X87238315Y-70169472D01*
X87244717Y-70170891D01*
X87270453Y-70177786D01*
X87283516Y-70181286D01*
X87290068Y-70180713D01*
X87290070Y-70180713D01*
X87323521Y-70177786D01*
X87330075Y-70177500D01*
X92225698Y-70177500D01*
X92274036Y-70195093D01*
X92278872Y-70199526D01*
X92768403Y-70689058D01*
X93250581Y-71171236D01*
X93271681Y-71212645D01*
X93276854Y-71245304D01*
X93334450Y-71358342D01*
X93424158Y-71448050D01*
X93537196Y-71505646D01*
X93662500Y-71525492D01*
X93787804Y-71505646D01*
X93900842Y-71448050D01*
X93990550Y-71358342D01*
X94048146Y-71245304D01*
X94064576Y-71141567D01*
X94067066Y-71125847D01*
X94067992Y-71120000D01*
X94048146Y-70994696D01*
X93990550Y-70881658D01*
X93900842Y-70791950D01*
X93787804Y-70734354D01*
X93781958Y-70733428D01*
X93755145Y-70729181D01*
X93713736Y-70708081D01*
X92636516Y-69630862D01*
X92632083Y-69626025D01*
X92610489Y-69600290D01*
X92606260Y-69595250D01*
X92593502Y-69587884D01*
X92571472Y-69575165D01*
X92565939Y-69571640D01*
X92538434Y-69552380D01*
X92538430Y-69552378D01*
X92533043Y-69548606D01*
X92526689Y-69546903D01*
X92521666Y-69544561D01*
X92517137Y-69542685D01*
X92511937Y-69540793D01*
X92506239Y-69537503D01*
X92466664Y-69530525D01*
X92460287Y-69529110D01*
X92427841Y-69520416D01*
X92427839Y-69520416D01*
X92421484Y-69518713D01*
X92414933Y-69519286D01*
X92414931Y-69519286D01*
X92381472Y-69522214D01*
X92374917Y-69522500D01*
X87479303Y-69522500D01*
X87430965Y-69504907D01*
X87426129Y-69500474D01*
X86454419Y-68528764D01*
X86433319Y-68487355D01*
X86429072Y-68460542D01*
X86428146Y-68454696D01*
X86375051Y-68350492D01*
X86373239Y-68346935D01*
X86373238Y-68346934D01*
X86370550Y-68341658D01*
X86280842Y-68251950D01*
X86268184Y-68245500D01*
X86228373Y-68225215D01*
X86167804Y-68194354D01*
X86098276Y-68183342D01*
X86048347Y-68175434D01*
X86042500Y-68174508D01*
X86036653Y-68175434D01*
X85986724Y-68183342D01*
X85917196Y-68194354D01*
X85856627Y-68225215D01*
X85816817Y-68245500D01*
X85804158Y-68251950D01*
X85714450Y-68341658D01*
X85711762Y-68346934D01*
X85711761Y-68346935D01*
X85709949Y-68350492D01*
X85656854Y-68454696D01*
X85637008Y-68580000D01*
X85097009Y-68580000D01*
X85097009Y-67945000D01*
X91352008Y-67945000D01*
X91371854Y-68070304D01*
X91374541Y-68075577D01*
X91425421Y-68175434D01*
X91429450Y-68183342D01*
X91519158Y-68273050D01*
X91632196Y-68330646D01*
X91638042Y-68331572D01*
X91664856Y-68335819D01*
X91706265Y-68356919D01*
X92586410Y-69237065D01*
X93418489Y-70069144D01*
X93422922Y-70073981D01*
X93448740Y-70104750D01*
X93454436Y-70108039D01*
X93454439Y-70108041D01*
X93483521Y-70124831D01*
X93489055Y-70128356D01*
X93516569Y-70147622D01*
X93516572Y-70147623D01*
X93521957Y-70151394D01*
X93528308Y-70153096D01*
X93533324Y-70155435D01*
X93537863Y-70157315D01*
X93543063Y-70159207D01*
X93548761Y-70162497D01*
X93588336Y-70169475D01*
X93594713Y-70170890D01*
X93627159Y-70179584D01*
X93627161Y-70179584D01*
X93633516Y-70181287D01*
X93640067Y-70180714D01*
X93640069Y-70180714D01*
X93673528Y-70177786D01*
X93680083Y-70177500D01*
X97940698Y-70177500D01*
X97989036Y-70195093D01*
X97993872Y-70199526D01*
X98483403Y-70689058D01*
X98965581Y-71171236D01*
X98986681Y-71212645D01*
X98991854Y-71245304D01*
X99049450Y-71358342D01*
X99139158Y-71448050D01*
X99252196Y-71505646D01*
X99377500Y-71525492D01*
X99502804Y-71505646D01*
X99615842Y-71448050D01*
X99705550Y-71358342D01*
X99763146Y-71245304D01*
X99779576Y-71141567D01*
X99782066Y-71125847D01*
X99782992Y-71120000D01*
X99763146Y-70994696D01*
X99705550Y-70881658D01*
X99615842Y-70791950D01*
X99502804Y-70734354D01*
X99496958Y-70733428D01*
X99470145Y-70729181D01*
X99428736Y-70708081D01*
X98351516Y-69630862D01*
X98347083Y-69626025D01*
X98325489Y-69600290D01*
X98321260Y-69595250D01*
X98308502Y-69587884D01*
X98286472Y-69575165D01*
X98280939Y-69571640D01*
X98253434Y-69552380D01*
X98253430Y-69552378D01*
X98248043Y-69548606D01*
X98241689Y-69546903D01*
X98236666Y-69544561D01*
X98232137Y-69542685D01*
X98226937Y-69540793D01*
X98221239Y-69537503D01*
X98181664Y-69530525D01*
X98175287Y-69529110D01*
X98142841Y-69520416D01*
X98142839Y-69520416D01*
X98136484Y-69518713D01*
X98129933Y-69519286D01*
X98129931Y-69519286D01*
X98096472Y-69522214D01*
X98089917Y-69522500D01*
X93829303Y-69522500D01*
X93780965Y-69504907D01*
X93776129Y-69500474D01*
X92220654Y-67945000D01*
X97067008Y-67945000D01*
X97086854Y-68070304D01*
X97089541Y-68075577D01*
X97140421Y-68175434D01*
X97144450Y-68183342D01*
X97234158Y-68273050D01*
X97347196Y-68330646D01*
X97353042Y-68331572D01*
X97379856Y-68335819D01*
X97421265Y-68356919D01*
X98301410Y-69237065D01*
X99133489Y-70069144D01*
X99137922Y-70073981D01*
X99163740Y-70104750D01*
X99169436Y-70108039D01*
X99169439Y-70108041D01*
X99198521Y-70124831D01*
X99204055Y-70128356D01*
X99231569Y-70147622D01*
X99231572Y-70147623D01*
X99236957Y-70151394D01*
X99243308Y-70153096D01*
X99248324Y-70155435D01*
X99252863Y-70157315D01*
X99258063Y-70159207D01*
X99263761Y-70162497D01*
X99303336Y-70169475D01*
X99309713Y-70170890D01*
X99342159Y-70179584D01*
X99342161Y-70179584D01*
X99348516Y-70181287D01*
X99355067Y-70180714D01*
X99355069Y-70180714D01*
X99388528Y-70177786D01*
X99395083Y-70177500D01*
X103655698Y-70177500D01*
X103704036Y-70195093D01*
X103708872Y-70199526D01*
X104198403Y-70689058D01*
X104680581Y-71171236D01*
X104701681Y-71212645D01*
X104706854Y-71245304D01*
X104764450Y-71358342D01*
X104854158Y-71448050D01*
X104967196Y-71505646D01*
X105092500Y-71525492D01*
X105217804Y-71505646D01*
X105330842Y-71448050D01*
X105420550Y-71358342D01*
X105478146Y-71245304D01*
X105494576Y-71141567D01*
X105497066Y-71125847D01*
X105497992Y-71120000D01*
X105478146Y-70994696D01*
X105420550Y-70881658D01*
X105330842Y-70791950D01*
X105217804Y-70734354D01*
X105211958Y-70733428D01*
X105185145Y-70729181D01*
X105143736Y-70708081D01*
X104066516Y-69630862D01*
X104062083Y-69626025D01*
X104040489Y-69600290D01*
X104036260Y-69595250D01*
X104023502Y-69587884D01*
X104001472Y-69575165D01*
X103995939Y-69571640D01*
X103968434Y-69552380D01*
X103968430Y-69552378D01*
X103963043Y-69548606D01*
X103956689Y-69546903D01*
X103951666Y-69544561D01*
X103947137Y-69542685D01*
X103941937Y-69540793D01*
X103936239Y-69537503D01*
X103896664Y-69530525D01*
X103890287Y-69529110D01*
X103857841Y-69520416D01*
X103857839Y-69520416D01*
X103851484Y-69518713D01*
X103844933Y-69519286D01*
X103844931Y-69519286D01*
X103811472Y-69522214D01*
X103804917Y-69522500D01*
X99544303Y-69522500D01*
X99495965Y-69504907D01*
X99491129Y-69500474D01*
X97935654Y-67945000D01*
X102782008Y-67945000D01*
X102801854Y-68070304D01*
X102804541Y-68075577D01*
X102855421Y-68175434D01*
X102859450Y-68183342D01*
X102949158Y-68273050D01*
X103062196Y-68330646D01*
X103068042Y-68331572D01*
X103094856Y-68335819D01*
X103136265Y-68356919D01*
X104016410Y-69237065D01*
X104848489Y-70069144D01*
X104852922Y-70073981D01*
X104878740Y-70104750D01*
X104884436Y-70108039D01*
X104884439Y-70108041D01*
X104913521Y-70124831D01*
X104919055Y-70128356D01*
X104946569Y-70147622D01*
X104946572Y-70147623D01*
X104951957Y-70151394D01*
X104958308Y-70153096D01*
X104963324Y-70155435D01*
X104967863Y-70157315D01*
X104973063Y-70159207D01*
X104978761Y-70162497D01*
X105018336Y-70169475D01*
X105024713Y-70170890D01*
X105057159Y-70179584D01*
X105057161Y-70179584D01*
X105063516Y-70181287D01*
X105070067Y-70180714D01*
X105070069Y-70180714D01*
X105103528Y-70177786D01*
X105110083Y-70177500D01*
X109370698Y-70177500D01*
X109419036Y-70195093D01*
X109423872Y-70199526D01*
X109913403Y-70689058D01*
X110395581Y-71171236D01*
X110416681Y-71212645D01*
X110421854Y-71245304D01*
X110479450Y-71358342D01*
X110569158Y-71448050D01*
X110682196Y-71505646D01*
X110807500Y-71525492D01*
X110932804Y-71505646D01*
X111045842Y-71448050D01*
X111135550Y-71358342D01*
X111193146Y-71245304D01*
X111209576Y-71141567D01*
X111212066Y-71125847D01*
X111212992Y-71120000D01*
X111193146Y-70994696D01*
X111135550Y-70881658D01*
X111045842Y-70791950D01*
X110932804Y-70734354D01*
X110926958Y-70733428D01*
X110900145Y-70729181D01*
X110858736Y-70708081D01*
X109781516Y-69630862D01*
X109777083Y-69626025D01*
X109755489Y-69600290D01*
X109751260Y-69595250D01*
X109738502Y-69587884D01*
X109716472Y-69575165D01*
X109710939Y-69571640D01*
X109683434Y-69552380D01*
X109683430Y-69552378D01*
X109678043Y-69548606D01*
X109671689Y-69546903D01*
X109666666Y-69544561D01*
X109662137Y-69542685D01*
X109656937Y-69540793D01*
X109651239Y-69537503D01*
X109611664Y-69530525D01*
X109605287Y-69529110D01*
X109572841Y-69520416D01*
X109572839Y-69520416D01*
X109566484Y-69518713D01*
X109559933Y-69519286D01*
X109559931Y-69519286D01*
X109526472Y-69522214D01*
X109519917Y-69522500D01*
X105259303Y-69522500D01*
X105210965Y-69504907D01*
X105206129Y-69500474D01*
X103599419Y-67893765D01*
X103578319Y-67852356D01*
X103574072Y-67825542D01*
X103573146Y-67819696D01*
X103515550Y-67706658D01*
X103425842Y-67616950D01*
X103312804Y-67559354D01*
X103187500Y-67539508D01*
X103062196Y-67559354D01*
X102949158Y-67616950D01*
X102859450Y-67706658D01*
X102801854Y-67819696D01*
X102782008Y-67945000D01*
X97935654Y-67945000D01*
X97884419Y-67893765D01*
X97863319Y-67852356D01*
X97859072Y-67825542D01*
X97858146Y-67819696D01*
X97800550Y-67706658D01*
X97710842Y-67616950D01*
X97597804Y-67559354D01*
X97472500Y-67539508D01*
X97347196Y-67559354D01*
X97234158Y-67616950D01*
X97144450Y-67706658D01*
X97086854Y-67819696D01*
X97067008Y-67945000D01*
X92220654Y-67945000D01*
X92169419Y-67893765D01*
X92148319Y-67852356D01*
X92144072Y-67825542D01*
X92143146Y-67819696D01*
X92085550Y-67706658D01*
X91995842Y-67616950D01*
X91882804Y-67559354D01*
X91757500Y-67539508D01*
X91632196Y-67559354D01*
X91519158Y-67616950D01*
X91429450Y-67706658D01*
X91371854Y-67819696D01*
X91352008Y-67945000D01*
X85097009Y-67945000D01*
X85097009Y-67338619D01*
X85114602Y-67290281D01*
X85119035Y-67285445D01*
X85787954Y-66616526D01*
X85834574Y-66594786D01*
X85841128Y-66594500D01*
X110903993Y-66594500D01*
X110909400Y-66594897D01*
X110913851Y-66596425D01*
X110963723Y-66594553D01*
X110966544Y-66594500D01*
X110986457Y-66594500D01*
X110989853Y-66593868D01*
X110993200Y-66593559D01*
X110997284Y-66593294D01*
X111018779Y-66592487D01*
X111018782Y-66592486D01*
X111025717Y-66592226D01*
X111038730Y-66586635D01*
X111054640Y-66581802D01*
X111057011Y-66581360D01*
X111068562Y-66579209D01*
X111074474Y-66575565D01*
X111092725Y-66564316D01*
X111102497Y-66559240D01*
X111123686Y-66550136D01*
X111123690Y-66550133D01*
X111128572Y-66548036D01*
X111133458Y-66544022D01*
X111139788Y-66537692D01*
X111153502Y-66526851D01*
X111157946Y-66524112D01*
X111157947Y-66524111D01*
X111163857Y-66520468D01*
X111182507Y-66495942D01*
X111189185Y-66488295D01*
X112148442Y-65529038D01*
X112152550Y-65525492D01*
X112156778Y-65523425D01*
X112190736Y-65486818D01*
X112192693Y-65484787D01*
X112206757Y-65470723D01*
X112208714Y-65467871D01*
X112210853Y-65465297D01*
X112213553Y-65462222D01*
X112228189Y-65446443D01*
X112232910Y-65441354D01*
X112238156Y-65428205D01*
X112245990Y-65413532D01*
X112250074Y-65407578D01*
X112254001Y-65401854D01*
X112260555Y-65374237D01*
X112263873Y-65363745D01*
X112274392Y-65337378D01*
X112275009Y-65331085D01*
X112275009Y-65322130D01*
X112277041Y-65304766D01*
X112278246Y-65299687D01*
X112279849Y-65292934D01*
X112275696Y-65262418D01*
X112275009Y-65252277D01*
X112275009Y-61268516D01*
X112275406Y-61263109D01*
X112276934Y-61258658D01*
X112275062Y-61208786D01*
X112275009Y-61205965D01*
X112275009Y-61186052D01*
X112274377Y-61182656D01*
X112274068Y-61179309D01*
X112273803Y-61175225D01*
X112272996Y-61153730D01*
X112272995Y-61153727D01*
X112272735Y-61146792D01*
X112267144Y-61133779D01*
X112262311Y-61117869D01*
X112260989Y-61110772D01*
X112259718Y-61103947D01*
X112251477Y-61090577D01*
X112244825Y-61079784D01*
X112239749Y-61070012D01*
X112230645Y-61048823D01*
X112230642Y-61048819D01*
X112228545Y-61043937D01*
X112224531Y-61039051D01*
X112218201Y-61032721D01*
X112207360Y-61019007D01*
X112204621Y-61014563D01*
X112204620Y-61014562D01*
X112200977Y-61008652D01*
X112176451Y-60990002D01*
X112168804Y-60983324D01*
X111209547Y-60024067D01*
X111206001Y-60019959D01*
X111203934Y-60015731D01*
X111167327Y-59981773D01*
X111165296Y-59979816D01*
X111151232Y-59965752D01*
X111148380Y-59963795D01*
X111145806Y-59961656D01*
X111142731Y-59958956D01*
X111126952Y-59944320D01*
X111121863Y-59939599D01*
X111115417Y-59937027D01*
X111115415Y-59937026D01*
X111108714Y-59934353D01*
X111094041Y-59926519D01*
X111093706Y-59926289D01*
X111082363Y-59918508D01*
X111054746Y-59911954D01*
X111044254Y-59908636D01*
X111017887Y-59898117D01*
X111011594Y-59897500D01*
X111002639Y-59897500D01*
X110985275Y-59895468D01*
X110973443Y-59892660D01*
X110966565Y-59893596D01*
X110966564Y-59893596D01*
X110942927Y-59896813D01*
X110932786Y-59897500D01*
X108969549Y-59897500D01*
X108921211Y-59879907D01*
X108916375Y-59875474D01*
X108910851Y-59869950D01*
X108797813Y-59812354D01*
X108672509Y-59792508D01*
X108547205Y-59812354D01*
X108434167Y-59869950D01*
X108344459Y-59959658D01*
X108286863Y-60072696D01*
X108285937Y-60078543D01*
X108271507Y-60169654D01*
X108267017Y-60198000D01*
X108267943Y-60203847D01*
X108268212Y-60205543D01*
X108286863Y-60323304D01*
X108344459Y-60436342D01*
X108434167Y-60526050D01*
X108547205Y-60583646D01*
X108672509Y-60603492D01*
X108797813Y-60583646D01*
X108910851Y-60526050D01*
X108916375Y-60520526D01*
X108917777Y-60519872D01*
X108919821Y-60518387D01*
X108920110Y-60518784D01*
X108962995Y-60498786D01*
X108969549Y-60498500D01*
X110802890Y-60498500D01*
X110851228Y-60516093D01*
X110856064Y-60520526D01*
X111651983Y-61316445D01*
X111673723Y-61363065D01*
X111674009Y-61369619D01*
X111674009Y-65122381D01*
X111656416Y-65170719D01*
X111651983Y-65175555D01*
X110856064Y-65971474D01*
X110809444Y-65993214D01*
X110802890Y-65993500D01*
X85740025Y-65993500D01*
X85734618Y-65993103D01*
X85730167Y-65991575D01*
X85680295Y-65993447D01*
X85677474Y-65993500D01*
X85657561Y-65993500D01*
X85654165Y-65994132D01*
X85650818Y-65994441D01*
X85646734Y-65994706D01*
X85625239Y-65995513D01*
X85625236Y-65995514D01*
X85618301Y-65995774D01*
X85605288Y-66001365D01*
X85589377Y-66006198D01*
X85575456Y-66008791D01*
X85569545Y-66012435D01*
X85569544Y-66012435D01*
X85551293Y-66023684D01*
X85541521Y-66028760D01*
X85520332Y-66037864D01*
X85520328Y-66037867D01*
X85515446Y-66039964D01*
X85510560Y-66043978D01*
X85504230Y-66050308D01*
X85490516Y-66061149D01*
X85486072Y-66063888D01*
X85486071Y-66063889D01*
X85480161Y-66067532D01*
X85461511Y-66092058D01*
X85454833Y-66099705D01*
X84622576Y-66931962D01*
X84618468Y-66935508D01*
X84614240Y-66937575D01*
X84609519Y-66942664D01*
X84609518Y-66942665D01*
X84580283Y-66974181D01*
X84578325Y-66976213D01*
X84564261Y-66990277D01*
X84562304Y-66993129D01*
X84560165Y-66995703D01*
X84557465Y-66998778D01*
X84548256Y-67008706D01*
X84538108Y-67019646D01*
X84535536Y-67026092D01*
X84535535Y-67026094D01*
X84532862Y-67032795D01*
X84525028Y-67047468D01*
X84517017Y-67059146D01*
X84515414Y-67065901D01*
X84510464Y-67086761D01*
X84507145Y-67097255D01*
X84496626Y-67123622D01*
X84496009Y-67129915D01*
X84496009Y-67138870D01*
X84493977Y-67156233D01*
X84491169Y-67168066D01*
X82257009Y-67168066D01*
X82257009Y-63364984D01*
X84235231Y-63364984D01*
X84236934Y-63371339D01*
X84236934Y-63371341D01*
X84245628Y-63403787D01*
X84247043Y-63410164D01*
X84254021Y-63449739D01*
X84257311Y-63455437D01*
X84259203Y-63460637D01*
X84261079Y-63465166D01*
X84263421Y-63470189D01*
X84265124Y-63476543D01*
X84268896Y-63481930D01*
X84268898Y-63481934D01*
X84288158Y-63509439D01*
X84291683Y-63514972D01*
X84311768Y-63549760D01*
X84316808Y-63553989D01*
X84342543Y-63575583D01*
X84347380Y-63580016D01*
X85211507Y-64444144D01*
X85215940Y-64448981D01*
X85241758Y-64479750D01*
X85247454Y-64483039D01*
X85247457Y-64483041D01*
X85276539Y-64499831D01*
X85282073Y-64503356D01*
X85309587Y-64522622D01*
X85309590Y-64522623D01*
X85314975Y-64526394D01*
X85321326Y-64528096D01*
X85326342Y-64530435D01*
X85330881Y-64532315D01*
X85336081Y-64534207D01*
X85341779Y-64537497D01*
X85381354Y-64544475D01*
X85387731Y-64545890D01*
X85420177Y-64554584D01*
X85420179Y-64554584D01*
X85426534Y-64556287D01*
X85433085Y-64555714D01*
X85433087Y-64555714D01*
X85466546Y-64552786D01*
X85473101Y-64552500D01*
X87484042Y-64552500D01*
X87518182Y-64560696D01*
X87616214Y-64610646D01*
X87741518Y-64630492D01*
X87866822Y-64610646D01*
X87979860Y-64553050D01*
X88069568Y-64463342D01*
X88076886Y-64448981D01*
X88124477Y-64355577D01*
X88127164Y-64350304D01*
X88147010Y-64225000D01*
X88127164Y-64099696D01*
X88069568Y-63986658D01*
X87979860Y-63896950D01*
X87946412Y-63879907D01*
X87927391Y-63870215D01*
X87866822Y-63839354D01*
X87741518Y-63819508D01*
X87616214Y-63839354D01*
X87545325Y-63875474D01*
X87518182Y-63889304D01*
X87484042Y-63897500D01*
X85622321Y-63897500D01*
X85573983Y-63879907D01*
X85569147Y-63875474D01*
X84916044Y-63222372D01*
X84894304Y-63175752D01*
X84894018Y-63169198D01*
X84894018Y-60960000D01*
X85637008Y-60960000D01*
X85656854Y-61085304D01*
X85659541Y-61090577D01*
X85705446Y-61180670D01*
X85714450Y-61198342D01*
X85804158Y-61288050D01*
X85917196Y-61345646D01*
X85923042Y-61346572D01*
X85949855Y-61350819D01*
X85991264Y-61371919D01*
X87068489Y-62449144D01*
X87072922Y-62453981D01*
X87098740Y-62484750D01*
X87104437Y-62488039D01*
X87104438Y-62488040D01*
X87133526Y-62504834D01*
X87139055Y-62508356D01*
X87171957Y-62531394D01*
X87178314Y-62533097D01*
X87183351Y-62535446D01*
X87187882Y-62537322D01*
X87193066Y-62539209D01*
X87198761Y-62542497D01*
X87213695Y-62545130D01*
X87238315Y-62549472D01*
X87244717Y-62550891D01*
X87270453Y-62557786D01*
X87283516Y-62561286D01*
X87290068Y-62560713D01*
X87290070Y-62560713D01*
X87323521Y-62557786D01*
X87330075Y-62557500D01*
X92225698Y-62557500D01*
X92274036Y-62575093D01*
X92278872Y-62579526D01*
X93250581Y-63551236D01*
X93271681Y-63592645D01*
X93276854Y-63625304D01*
X93334450Y-63738342D01*
X93424158Y-63828050D01*
X93537196Y-63885646D01*
X93662500Y-63905492D01*
X93787804Y-63885646D01*
X93900842Y-63828050D01*
X93990550Y-63738342D01*
X94048146Y-63625304D01*
X94067992Y-63500000D01*
X94048146Y-63374696D01*
X93990550Y-63261658D01*
X93900842Y-63171950D01*
X93787804Y-63114354D01*
X93781958Y-63113428D01*
X93755145Y-63109181D01*
X93713736Y-63088081D01*
X92636516Y-62010862D01*
X92632083Y-62006025D01*
X92610489Y-61980290D01*
X92606260Y-61975250D01*
X92593502Y-61967884D01*
X92571472Y-61955165D01*
X92565939Y-61951640D01*
X92538434Y-61932380D01*
X92538430Y-61932378D01*
X92533043Y-61928606D01*
X92526689Y-61926903D01*
X92521666Y-61924561D01*
X92517137Y-61922685D01*
X92511937Y-61920793D01*
X92506239Y-61917503D01*
X92466664Y-61910525D01*
X92460287Y-61909110D01*
X92427841Y-61900416D01*
X92427839Y-61900416D01*
X92421484Y-61898713D01*
X92414933Y-61899286D01*
X92414931Y-61899286D01*
X92381472Y-61902214D01*
X92374917Y-61902500D01*
X87479303Y-61902500D01*
X87430965Y-61884907D01*
X87426129Y-61880474D01*
X86454419Y-60908764D01*
X86433319Y-60867355D01*
X86429072Y-60840542D01*
X86428146Y-60834696D01*
X86370550Y-60721658D01*
X86280842Y-60631950D01*
X86167804Y-60574354D01*
X86098276Y-60563342D01*
X86048347Y-60555434D01*
X86042500Y-60554508D01*
X86036653Y-60555434D01*
X85986724Y-60563342D01*
X85917196Y-60574354D01*
X85804158Y-60631950D01*
X85714450Y-60721658D01*
X85656854Y-60834696D01*
X85637008Y-60960000D01*
X84894018Y-60960000D01*
X84894018Y-60325000D01*
X91352008Y-60325000D01*
X91371854Y-60450304D01*
X91374541Y-60455577D01*
X91425421Y-60555434D01*
X91429450Y-60563342D01*
X91519158Y-60653050D01*
X91632196Y-60710646D01*
X91638042Y-60711572D01*
X91664856Y-60715819D01*
X91706265Y-60736919D01*
X93418489Y-62449144D01*
X93422922Y-62453981D01*
X93448740Y-62484750D01*
X93454436Y-62488039D01*
X93454439Y-62488041D01*
X93483521Y-62504831D01*
X93489055Y-62508356D01*
X93516569Y-62527622D01*
X93516572Y-62527623D01*
X93521957Y-62531394D01*
X93528308Y-62533096D01*
X93533324Y-62535435D01*
X93537863Y-62537315D01*
X93543063Y-62539207D01*
X93548761Y-62542497D01*
X93588336Y-62549475D01*
X93594713Y-62550890D01*
X93627159Y-62559584D01*
X93627161Y-62559584D01*
X93633516Y-62561287D01*
X93640067Y-62560714D01*
X93640069Y-62560714D01*
X93673528Y-62557786D01*
X93680083Y-62557500D01*
X97940698Y-62557500D01*
X97989036Y-62575093D01*
X97993872Y-62579526D01*
X98965581Y-63551236D01*
X98986681Y-63592645D01*
X98991854Y-63625304D01*
X99049450Y-63738342D01*
X99139158Y-63828050D01*
X99252196Y-63885646D01*
X99377500Y-63905492D01*
X99502804Y-63885646D01*
X99615842Y-63828050D01*
X99705550Y-63738342D01*
X99763146Y-63625304D01*
X99782992Y-63500000D01*
X99763146Y-63374696D01*
X99705550Y-63261658D01*
X99615842Y-63171950D01*
X99502804Y-63114354D01*
X99496958Y-63113428D01*
X99470145Y-63109181D01*
X99428736Y-63088081D01*
X98351516Y-62010862D01*
X98347083Y-62006025D01*
X98325489Y-61980290D01*
X98321260Y-61975250D01*
X98308502Y-61967884D01*
X98286472Y-61955165D01*
X98280939Y-61951640D01*
X98253434Y-61932380D01*
X98253430Y-61932378D01*
X98248043Y-61928606D01*
X98241689Y-61926903D01*
X98236666Y-61924561D01*
X98232137Y-61922685D01*
X98226937Y-61920793D01*
X98221239Y-61917503D01*
X98181664Y-61910525D01*
X98175287Y-61909110D01*
X98142841Y-61900416D01*
X98142839Y-61900416D01*
X98136484Y-61898713D01*
X98129933Y-61899286D01*
X98129931Y-61899286D01*
X98096472Y-61902214D01*
X98089917Y-61902500D01*
X93829303Y-61902500D01*
X93780965Y-61884907D01*
X93776129Y-61880474D01*
X92220654Y-60325000D01*
X97067008Y-60325000D01*
X97086854Y-60450304D01*
X97089541Y-60455577D01*
X97140421Y-60555434D01*
X97144450Y-60563342D01*
X97234158Y-60653050D01*
X97347196Y-60710646D01*
X97353042Y-60711572D01*
X97379856Y-60715819D01*
X97421265Y-60736919D01*
X99133489Y-62449144D01*
X99137922Y-62453981D01*
X99163740Y-62484750D01*
X99169436Y-62488039D01*
X99169439Y-62488041D01*
X99198521Y-62504831D01*
X99204055Y-62508356D01*
X99231569Y-62527622D01*
X99231572Y-62527623D01*
X99236957Y-62531394D01*
X99243308Y-62533096D01*
X99248324Y-62535435D01*
X99252863Y-62537315D01*
X99258063Y-62539207D01*
X99263761Y-62542497D01*
X99303336Y-62549475D01*
X99309713Y-62550890D01*
X99342159Y-62559584D01*
X99342161Y-62559584D01*
X99348516Y-62561287D01*
X99355067Y-62560714D01*
X99355069Y-62560714D01*
X99388528Y-62557786D01*
X99395083Y-62557500D01*
X103655698Y-62557500D01*
X103704036Y-62575093D01*
X103708872Y-62579526D01*
X104680581Y-63551236D01*
X104701681Y-63592645D01*
X104706854Y-63625304D01*
X104764450Y-63738342D01*
X104854158Y-63828050D01*
X104967196Y-63885646D01*
X105092500Y-63905492D01*
X105217804Y-63885646D01*
X105330842Y-63828050D01*
X105420550Y-63738342D01*
X105478146Y-63625304D01*
X105497992Y-63500000D01*
X105478146Y-63374696D01*
X105420550Y-63261658D01*
X105330842Y-63171950D01*
X105217804Y-63114354D01*
X105211958Y-63113428D01*
X105185145Y-63109181D01*
X105143736Y-63088081D01*
X104066516Y-62010862D01*
X104062083Y-62006025D01*
X104040489Y-61980290D01*
X104036260Y-61975250D01*
X104023502Y-61967884D01*
X104001472Y-61955165D01*
X103995939Y-61951640D01*
X103968434Y-61932380D01*
X103968430Y-61932378D01*
X103963043Y-61928606D01*
X103956689Y-61926903D01*
X103951666Y-61924561D01*
X103947137Y-61922685D01*
X103941937Y-61920793D01*
X103936239Y-61917503D01*
X103896664Y-61910525D01*
X103890287Y-61909110D01*
X103857841Y-61900416D01*
X103857839Y-61900416D01*
X103851484Y-61898713D01*
X103844933Y-61899286D01*
X103844931Y-61899286D01*
X103811472Y-61902214D01*
X103804917Y-61902500D01*
X99544303Y-61902500D01*
X99495965Y-61884907D01*
X99491129Y-61880474D01*
X97935654Y-60325000D01*
X102782008Y-60325000D01*
X102801854Y-60450304D01*
X102804541Y-60455577D01*
X102855421Y-60555434D01*
X102859450Y-60563342D01*
X102949158Y-60653050D01*
X103062196Y-60710646D01*
X103068042Y-60711572D01*
X103094856Y-60715819D01*
X103136265Y-60736919D01*
X104848489Y-62449144D01*
X104852922Y-62453981D01*
X104878740Y-62484750D01*
X104884436Y-62488039D01*
X104884439Y-62488041D01*
X104913521Y-62504831D01*
X104919055Y-62508356D01*
X104946569Y-62527622D01*
X104946572Y-62527623D01*
X104951957Y-62531394D01*
X104958308Y-62533096D01*
X104963324Y-62535435D01*
X104967863Y-62537315D01*
X104973063Y-62539207D01*
X104978761Y-62542497D01*
X105018336Y-62549475D01*
X105024713Y-62550890D01*
X105057159Y-62559584D01*
X105057161Y-62559584D01*
X105063516Y-62561287D01*
X105070067Y-62560714D01*
X105070069Y-62560714D01*
X105103528Y-62557786D01*
X105110083Y-62557500D01*
X109370698Y-62557500D01*
X109419036Y-62575093D01*
X109423872Y-62579526D01*
X110395581Y-63551236D01*
X110416681Y-63592645D01*
X110421854Y-63625304D01*
X110479450Y-63738342D01*
X110569158Y-63828050D01*
X110682196Y-63885646D01*
X110807500Y-63905492D01*
X110932804Y-63885646D01*
X111045842Y-63828050D01*
X111135550Y-63738342D01*
X111193146Y-63625304D01*
X111212992Y-63500000D01*
X111193146Y-63374696D01*
X111135550Y-63261658D01*
X111045842Y-63171950D01*
X110932804Y-63114354D01*
X110926958Y-63113428D01*
X110900145Y-63109181D01*
X110858736Y-63088081D01*
X109781516Y-62010862D01*
X109777083Y-62006025D01*
X109755489Y-61980290D01*
X109751260Y-61975250D01*
X109738502Y-61967884D01*
X109716472Y-61955165D01*
X109710939Y-61951640D01*
X109683434Y-61932380D01*
X109683430Y-61932378D01*
X109678043Y-61928606D01*
X109671689Y-61926903D01*
X109666666Y-61924561D01*
X109662137Y-61922685D01*
X109656937Y-61920793D01*
X109651239Y-61917503D01*
X109611664Y-61910525D01*
X109605287Y-61909110D01*
X109572841Y-61900416D01*
X109572839Y-61900416D01*
X109566484Y-61898713D01*
X109559933Y-61899286D01*
X109559931Y-61899286D01*
X109526472Y-61902214D01*
X109519917Y-61902500D01*
X105259303Y-61902500D01*
X105210965Y-61884907D01*
X105206129Y-61880474D01*
X103599419Y-60273765D01*
X103578319Y-60232356D01*
X103574072Y-60205542D01*
X103573146Y-60199696D01*
X103515550Y-60086658D01*
X103425842Y-59996950D01*
X103312804Y-59939354D01*
X103187500Y-59919508D01*
X103062196Y-59939354D01*
X102949158Y-59996950D01*
X102859450Y-60086658D01*
X102801854Y-60199696D01*
X102782008Y-60325000D01*
X97935654Y-60325000D01*
X97884419Y-60273765D01*
X97863319Y-60232356D01*
X97859072Y-60205542D01*
X97858146Y-60199696D01*
X97800550Y-60086658D01*
X97710842Y-59996950D01*
X97597804Y-59939354D01*
X97472500Y-59919508D01*
X97347196Y-59939354D01*
X97234158Y-59996950D01*
X97144450Y-60086658D01*
X97086854Y-60199696D01*
X97067008Y-60325000D01*
X92220654Y-60325000D01*
X92169419Y-60273765D01*
X92148319Y-60232356D01*
X92144072Y-60205542D01*
X92143146Y-60199696D01*
X92085550Y-60086658D01*
X91995842Y-59996950D01*
X91882804Y-59939354D01*
X91757500Y-59919508D01*
X91632196Y-59939354D01*
X91519158Y-59996950D01*
X91429450Y-60086658D01*
X91371854Y-60199696D01*
X91352008Y-60325000D01*
X84894018Y-60325000D01*
X84894018Y-60200802D01*
X84911611Y-60152464D01*
X84916044Y-60147628D01*
X85823147Y-59240526D01*
X85869767Y-59218786D01*
X85876321Y-59218500D01*
X109186935Y-59218500D01*
X109193490Y-59218786D01*
X109226949Y-59221714D01*
X109226951Y-59221714D01*
X109233502Y-59222287D01*
X109239857Y-59220584D01*
X109239859Y-59220584D01*
X109272305Y-59211890D01*
X109278682Y-59210475D01*
X109318257Y-59203497D01*
X109323955Y-59200207D01*
X109329155Y-59198315D01*
X109333684Y-59196439D01*
X109338707Y-59194097D01*
X109345061Y-59192394D01*
X109350448Y-59188622D01*
X109350452Y-59188620D01*
X109377957Y-59169360D01*
X109383490Y-59165835D01*
X109412581Y-59149039D01*
X109418278Y-59145750D01*
X109444101Y-59114974D01*
X109448534Y-59110138D01*
X110511284Y-58047388D01*
X110557904Y-58025648D01*
X110565745Y-58025922D01*
X110565745Y-58025566D01*
X110571663Y-58025566D01*
X110577509Y-58026492D01*
X110702813Y-58006646D01*
X110815851Y-57949050D01*
X110905559Y-57859342D01*
X110963155Y-57746304D01*
X110983001Y-57621000D01*
X110963155Y-57495696D01*
X110916988Y-57405088D01*
X110908248Y-57387935D01*
X110908247Y-57387934D01*
X110905559Y-57382658D01*
X110815851Y-57292950D01*
X110803087Y-57286446D01*
X110726735Y-57247543D01*
X110702813Y-57235354D01*
X110577509Y-57215508D01*
X110452205Y-57235354D01*
X110428283Y-57247543D01*
X110351932Y-57286446D01*
X110339167Y-57292950D01*
X110249459Y-57382658D01*
X110249289Y-57382991D01*
X110248804Y-57383559D01*
X109090890Y-58541474D01*
X109044270Y-58563214D01*
X109037716Y-58563500D01*
X85727101Y-58563500D01*
X85720546Y-58563214D01*
X85687087Y-58560286D01*
X85687085Y-58560286D01*
X85680534Y-58559713D01*
X85674179Y-58561416D01*
X85674177Y-58561416D01*
X85641731Y-58570110D01*
X85635354Y-58571525D01*
X85595779Y-58578503D01*
X85590081Y-58581793D01*
X85584881Y-58583685D01*
X85580352Y-58585561D01*
X85575329Y-58587903D01*
X85568975Y-58589606D01*
X85563586Y-58593380D01*
X85563585Y-58593380D01*
X85536076Y-58612642D01*
X85530544Y-58616166D01*
X85501456Y-58632960D01*
X85495758Y-58636250D01*
X85491529Y-58641290D01*
X85469940Y-58667019D01*
X85465507Y-58671856D01*
X84347380Y-59789984D01*
X84342544Y-59794417D01*
X84311768Y-59820240D01*
X84308479Y-59825937D01*
X84291683Y-59855028D01*
X84288158Y-59860561D01*
X84268898Y-59888066D01*
X84268896Y-59888070D01*
X84265124Y-59893457D01*
X84263421Y-59899811D01*
X84261079Y-59904834D01*
X84259203Y-59909363D01*
X84257311Y-59914563D01*
X84254021Y-59920261D01*
X84247043Y-59959836D01*
X84245628Y-59966213D01*
X84238113Y-59994261D01*
X84235231Y-60005016D01*
X84235804Y-60011567D01*
X84235804Y-60011569D01*
X84238732Y-60045028D01*
X84239018Y-60051583D01*
X84239018Y-63318417D01*
X84238732Y-63324971D01*
X84235231Y-63364984D01*
X82257009Y-63364984D01*
X82257009Y-50251960D01*
X82725043Y-50251960D01*
X82725435Y-50254182D01*
X82750538Y-50277755D01*
X82758139Y-50283278D01*
X82894290Y-50358128D01*
X82903019Y-50361584D01*
X82927666Y-50367912D01*
X82938423Y-50366858D01*
X82940077Y-50365169D01*
X82940509Y-50363171D01*
X82940509Y-50358229D01*
X83940509Y-50358229D01*
X83944160Y-50368261D01*
X83950212Y-50367646D01*
X84052904Y-50326988D01*
X84061131Y-50322465D01*
X84151519Y-50256794D01*
X84156359Y-50249619D01*
X84156106Y-50249375D01*
X84154343Y-50249000D01*
X83953768Y-50249000D01*
X83943611Y-50252697D01*
X83940509Y-50258069D01*
X83940509Y-50358229D01*
X82940509Y-50358229D01*
X82940509Y-50262259D01*
X82936812Y-50252102D01*
X82931440Y-50249000D01*
X82733176Y-50249000D01*
X82725043Y-50251960D01*
X82257009Y-50251960D01*
X82257009Y-49248381D01*
X82724659Y-49248381D01*
X82724912Y-49248625D01*
X82726675Y-49249000D01*
X82927250Y-49249000D01*
X82937407Y-49245303D01*
X82940509Y-49239931D01*
X82940509Y-49235741D01*
X83940509Y-49235741D01*
X83944206Y-49245898D01*
X83949578Y-49249000D01*
X84147842Y-49249000D01*
X84155975Y-49246040D01*
X84155583Y-49243818D01*
X84130480Y-49220245D01*
X84122879Y-49214722D01*
X83986728Y-49139872D01*
X83977999Y-49136416D01*
X83953352Y-49130088D01*
X83942595Y-49131142D01*
X83940941Y-49132831D01*
X83940509Y-49134829D01*
X83940509Y-49235741D01*
X82940509Y-49235741D01*
X82940509Y-49139771D01*
X82936858Y-49129739D01*
X82930806Y-49130354D01*
X82828114Y-49171012D01*
X82819887Y-49175535D01*
X82729499Y-49241206D01*
X82724659Y-49248381D01*
X82257009Y-49248381D01*
X82257009Y-42539000D01*
X86506009Y-42539000D01*
X86525925Y-42690280D01*
X86527810Y-42694832D01*
X86527811Y-42694834D01*
X86553708Y-42757354D01*
X86584317Y-42831250D01*
X86587315Y-42835157D01*
X86664352Y-42935553D01*
X86677205Y-42952304D01*
X86798259Y-43045192D01*
X86861012Y-43071185D01*
X86934675Y-43101698D01*
X86934677Y-43101699D01*
X86939229Y-43103584D01*
X87052529Y-43118500D01*
X87128489Y-43118500D01*
X87241789Y-43103584D01*
X87246341Y-43101699D01*
X87246343Y-43101698D01*
X87320006Y-43071185D01*
X87382759Y-43045192D01*
X87503813Y-42952304D01*
X87516667Y-42935553D01*
X87593703Y-42835157D01*
X87596701Y-42831250D01*
X87627310Y-42757354D01*
X87653207Y-42694834D01*
X87653208Y-42694832D01*
X87655093Y-42690280D01*
X87675009Y-42539000D01*
X87655093Y-42387720D01*
X87633549Y-42335707D01*
X87598585Y-42251299D01*
X87596701Y-42246750D01*
X87503813Y-42125696D01*
X87382759Y-42032808D01*
X87320006Y-42006815D01*
X87246343Y-41976302D01*
X87246341Y-41976301D01*
X87241789Y-41974416D01*
X87128489Y-41959500D01*
X87052529Y-41959500D01*
X86939229Y-41974416D01*
X86934677Y-41976301D01*
X86934675Y-41976302D01*
X86861012Y-42006815D01*
X86798259Y-42032808D01*
X86677205Y-42125696D01*
X86584317Y-42246750D01*
X86582433Y-42251299D01*
X86547470Y-42335707D01*
X86525925Y-42387720D01*
X86506009Y-42539000D01*
X82257009Y-42539000D01*
X82257009Y-41611960D01*
X82725043Y-41611960D01*
X82725435Y-41614182D01*
X82750538Y-41637755D01*
X82758139Y-41643278D01*
X82894290Y-41718128D01*
X82903019Y-41721584D01*
X82927666Y-41727912D01*
X82938423Y-41726858D01*
X82940077Y-41725169D01*
X82940509Y-41723171D01*
X82940509Y-41718229D01*
X83940509Y-41718229D01*
X83944160Y-41728261D01*
X83950212Y-41727646D01*
X84052904Y-41686988D01*
X84061131Y-41682465D01*
X84151519Y-41616794D01*
X84154780Y-41611960D01*
X86655043Y-41611960D01*
X86655435Y-41614182D01*
X86680538Y-41637755D01*
X86688139Y-41643278D01*
X86824290Y-41718128D01*
X86833019Y-41721584D01*
X86983506Y-41760222D01*
X86992826Y-41761400D01*
X87107250Y-41761400D01*
X87117407Y-41757703D01*
X87120509Y-41752331D01*
X87120509Y-41748141D01*
X88120509Y-41748141D01*
X88124206Y-41758298D01*
X88129578Y-41761400D01*
X88209183Y-41761400D01*
X88213904Y-41761103D01*
X88329352Y-41746519D01*
X88338442Y-41744185D01*
X88482904Y-41686988D01*
X88491131Y-41682465D01*
X88581519Y-41616794D01*
X88586359Y-41609619D01*
X88586106Y-41609375D01*
X88584343Y-41609000D01*
X88133768Y-41609000D01*
X88123611Y-41612697D01*
X88120509Y-41618069D01*
X88120509Y-41748141D01*
X87120509Y-41748141D01*
X87120509Y-41622259D01*
X87116812Y-41612102D01*
X87111440Y-41609000D01*
X86663176Y-41609000D01*
X86655043Y-41611960D01*
X84154780Y-41611960D01*
X84156359Y-41609619D01*
X84156106Y-41609375D01*
X84154343Y-41609000D01*
X83953768Y-41609000D01*
X83943611Y-41612697D01*
X83940509Y-41618069D01*
X83940509Y-41718229D01*
X82940509Y-41718229D01*
X82940509Y-41622259D01*
X82936812Y-41612102D01*
X82931440Y-41609000D01*
X82733176Y-41609000D01*
X82725043Y-41611960D01*
X82257009Y-41611960D01*
X82257009Y-41414006D01*
X82258051Y-41401530D01*
X82261602Y-41380420D01*
X82262085Y-41377552D01*
X82262167Y-41370798D01*
X82262203Y-41367902D01*
X82262203Y-41367897D01*
X82262238Y-41365000D01*
X82261827Y-41362128D01*
X82259762Y-41347705D01*
X82259164Y-41332129D01*
X82274067Y-41104756D01*
X82275351Y-41095003D01*
X82325270Y-40844042D01*
X82327816Y-40834541D01*
X82404587Y-40608381D01*
X82724659Y-40608381D01*
X82724912Y-40608625D01*
X82726675Y-40609000D01*
X82927250Y-40609000D01*
X82937407Y-40605303D01*
X82940509Y-40599931D01*
X82940509Y-40595741D01*
X83940509Y-40595741D01*
X83944206Y-40605898D01*
X83949578Y-40609000D01*
X84147842Y-40609000D01*
X84149543Y-40608381D01*
X86654659Y-40608381D01*
X86654912Y-40608625D01*
X86656675Y-40609000D01*
X87107250Y-40609000D01*
X87117407Y-40605303D01*
X87120509Y-40599931D01*
X87120509Y-40595741D01*
X88120509Y-40595741D01*
X88124206Y-40605898D01*
X88129578Y-40609000D01*
X88577842Y-40609000D01*
X88585975Y-40606040D01*
X88585583Y-40603818D01*
X88560480Y-40580245D01*
X88552879Y-40574722D01*
X88416728Y-40499872D01*
X88407999Y-40496416D01*
X88257512Y-40457778D01*
X88248192Y-40456600D01*
X88133768Y-40456600D01*
X88123611Y-40460297D01*
X88120509Y-40465669D01*
X88120509Y-40595741D01*
X87120509Y-40595741D01*
X87120509Y-40469859D01*
X87116812Y-40459702D01*
X87111440Y-40456600D01*
X87031835Y-40456600D01*
X87027114Y-40456897D01*
X86911666Y-40471481D01*
X86902576Y-40473815D01*
X86758114Y-40531012D01*
X86749887Y-40535535D01*
X86659499Y-40601206D01*
X86654659Y-40608381D01*
X84149543Y-40608381D01*
X84155975Y-40606040D01*
X84155583Y-40603818D01*
X84130480Y-40580245D01*
X84122879Y-40574722D01*
X83986728Y-40499872D01*
X83977999Y-40496416D01*
X83953352Y-40490088D01*
X83942595Y-40491142D01*
X83940941Y-40492831D01*
X83940509Y-40494829D01*
X83940509Y-40595741D01*
X82940509Y-40595741D01*
X82940509Y-40499771D01*
X82936858Y-40489739D01*
X82930806Y-40490354D01*
X82828114Y-40531012D01*
X82819887Y-40535535D01*
X82729499Y-40601206D01*
X82724659Y-40608381D01*
X82404587Y-40608381D01*
X82410063Y-40592250D01*
X82413827Y-40583162D01*
X82475659Y-40457778D01*
X82527001Y-40353667D01*
X82531918Y-40345151D01*
X82534771Y-40340882D01*
X82651624Y-40166000D01*
X91376017Y-40166000D01*
X91376943Y-40171847D01*
X91379291Y-40186674D01*
X91395863Y-40291304D01*
X91453459Y-40404342D01*
X91543167Y-40494050D01*
X91548443Y-40496738D01*
X91548444Y-40496739D01*
X91650934Y-40548961D01*
X91650938Y-40548962D01*
X91656205Y-40551646D01*
X91661530Y-40552489D01*
X91691168Y-40570651D01*
X92913450Y-41792933D01*
X92916996Y-41797041D01*
X92919063Y-41801269D01*
X92924152Y-41805990D01*
X92924153Y-41805991D01*
X92955669Y-41835226D01*
X92957701Y-41837184D01*
X92971765Y-41851248D01*
X92974617Y-41853205D01*
X92977191Y-41855344D01*
X92980266Y-41858044D01*
X92996044Y-41872680D01*
X92996046Y-41872681D01*
X93001134Y-41877401D01*
X93007581Y-41879973D01*
X93013451Y-41883684D01*
X93013051Y-41884316D01*
X93030049Y-41895512D01*
X93045976Y-41911439D01*
X93049519Y-41915543D01*
X93051584Y-41919769D01*
X93056673Y-41924490D01*
X93056674Y-41924491D01*
X93088177Y-41953714D01*
X93090209Y-41955672D01*
X93104285Y-41969748D01*
X93107142Y-41971708D01*
X93109726Y-41973855D01*
X93112806Y-41976560D01*
X93128565Y-41991180D01*
X93128568Y-41991182D01*
X93133655Y-41995901D01*
X93146809Y-42001149D01*
X93161477Y-42008981D01*
X93173155Y-42016992D01*
X93179912Y-42018595D01*
X93179913Y-42018596D01*
X93192380Y-42021554D01*
X93200772Y-42023546D01*
X93211264Y-42026864D01*
X93237631Y-42037383D01*
X93243924Y-42038000D01*
X93252879Y-42038000D01*
X93270237Y-42040031D01*
X93271666Y-42040370D01*
X93303508Y-42058147D01*
X93303697Y-42057887D01*
X93305865Y-42059462D01*
X93307482Y-42060365D01*
X93312667Y-42065550D01*
X93425705Y-42123146D01*
X93551009Y-42142992D01*
X93676313Y-42123146D01*
X93789351Y-42065550D01*
X93879059Y-41975842D01*
X93883415Y-41967294D01*
X93933968Y-41868077D01*
X93936655Y-41862804D01*
X93950421Y-41775887D01*
X93955575Y-41743347D01*
X93956501Y-41737500D01*
X93955678Y-41732303D01*
X93973168Y-41684247D01*
X94017717Y-41658527D01*
X94068375Y-41667460D01*
X94083949Y-41679411D01*
X97698144Y-45293607D01*
X101309474Y-48904937D01*
X101313018Y-48909042D01*
X101315084Y-48913269D01*
X101320173Y-48917990D01*
X101320174Y-48917991D01*
X101351676Y-48947213D01*
X101353708Y-48949171D01*
X101367785Y-48963248D01*
X101370642Y-48965208D01*
X101373226Y-48967355D01*
X101376306Y-48970060D01*
X101392065Y-48984680D01*
X101392068Y-48984682D01*
X101397155Y-48989401D01*
X101410309Y-48994649D01*
X101424977Y-49002481D01*
X101436655Y-49010492D01*
X101443412Y-49012095D01*
X101443413Y-49012096D01*
X101455880Y-49015054D01*
X101464272Y-49017046D01*
X101474764Y-49020364D01*
X101501131Y-49030883D01*
X101507424Y-49031500D01*
X101516379Y-49031500D01*
X101533742Y-49033532D01*
X101545575Y-49036340D01*
X101552453Y-49035404D01*
X101552454Y-49035404D01*
X101576091Y-49032187D01*
X101586232Y-49031500D01*
X102787469Y-49031500D01*
X102835807Y-49049093D01*
X102840643Y-49053526D01*
X102846167Y-49059050D01*
X102959205Y-49116646D01*
X103084509Y-49136492D01*
X103209813Y-49116646D01*
X103322851Y-49059050D01*
X103412559Y-48969342D01*
X103416915Y-48960794D01*
X103448655Y-48898500D01*
X103470155Y-48856304D01*
X103490001Y-48731000D01*
X103470155Y-48605696D01*
X103412559Y-48492658D01*
X103346725Y-48426824D01*
X103324985Y-48380204D01*
X103338299Y-48330517D01*
X103346725Y-48320476D01*
X103412559Y-48254642D01*
X103416915Y-48246094D01*
X103456848Y-48167720D01*
X103470155Y-48141604D01*
X103490001Y-48016300D01*
X103470155Y-47890996D01*
X103412559Y-47777958D01*
X103322851Y-47688250D01*
X103209813Y-47630654D01*
X103084509Y-47610808D01*
X102959205Y-47630654D01*
X102846167Y-47688250D01*
X102840643Y-47693774D01*
X102839241Y-47694428D01*
X102837197Y-47695913D01*
X102836908Y-47695516D01*
X102794023Y-47715514D01*
X102787469Y-47715800D01*
X102271428Y-47715800D01*
X102223090Y-47698207D01*
X102218254Y-47693774D01*
X97667480Y-43143000D01*
X98107017Y-43143000D01*
X98126863Y-43268304D01*
X98184459Y-43381342D01*
X98274167Y-43471050D01*
X98279443Y-43473738D01*
X98279444Y-43473739D01*
X98323874Y-43496377D01*
X98387205Y-43528646D01*
X98512509Y-43548492D01*
X98637813Y-43528646D01*
X98701144Y-43496377D01*
X98745574Y-43473739D01*
X98745575Y-43473738D01*
X98750851Y-43471050D01*
X98840559Y-43381342D01*
X98898155Y-43268304D01*
X98910513Y-43190277D01*
X98931613Y-43148867D01*
X99122954Y-42957526D01*
X99169574Y-42935786D01*
X99176128Y-42935500D01*
X100235993Y-42935500D01*
X100241400Y-42935897D01*
X100245851Y-42937425D01*
X100295723Y-42935553D01*
X100298544Y-42935500D01*
X100318457Y-42935500D01*
X100321853Y-42934868D01*
X100325200Y-42934559D01*
X100329284Y-42934294D01*
X100350779Y-42933487D01*
X100350782Y-42933486D01*
X100357717Y-42933226D01*
X100370730Y-42927635D01*
X100386640Y-42922802D01*
X100390736Y-42922039D01*
X100400562Y-42920209D01*
X100406474Y-42916565D01*
X100424725Y-42905316D01*
X100434497Y-42900240D01*
X100455686Y-42891136D01*
X100455690Y-42891133D01*
X100460572Y-42889036D01*
X100465458Y-42885022D01*
X100471788Y-42878692D01*
X100485502Y-42867851D01*
X100489946Y-42865112D01*
X100489947Y-42865111D01*
X100495857Y-42861468D01*
X100514507Y-42836942D01*
X100521185Y-42829295D01*
X102074376Y-41276104D01*
X102115786Y-41255004D01*
X102187966Y-41243572D01*
X102193813Y-41242646D01*
X102299199Y-41188949D01*
X102301574Y-41187739D01*
X102301575Y-41187738D01*
X102306851Y-41185050D01*
X102396559Y-41095342D01*
X102412495Y-41064067D01*
X102434527Y-41020825D01*
X102454155Y-40982304D01*
X102474001Y-40857000D01*
X102454155Y-40731696D01*
X102396559Y-40618658D01*
X102306851Y-40528950D01*
X102193813Y-40471354D01*
X102068509Y-40451508D01*
X101943205Y-40471354D01*
X101830167Y-40528950D01*
X101740459Y-40618658D01*
X101682863Y-40731696D01*
X101681937Y-40737543D01*
X101670505Y-40809722D01*
X101649405Y-40851132D01*
X101421283Y-41079254D01*
X101374663Y-41100994D01*
X101324976Y-41087680D01*
X101295471Y-41045543D01*
X101292909Y-41026080D01*
X101292909Y-41022259D01*
X101289212Y-41012102D01*
X101283840Y-41009000D01*
X100811768Y-41009000D01*
X100801611Y-41012697D01*
X100798509Y-41018069D01*
X100798509Y-41490141D01*
X100802206Y-41500298D01*
X100807578Y-41503400D01*
X100815589Y-41503400D01*
X100863927Y-41520993D01*
X100889647Y-41565542D01*
X100880714Y-41616200D01*
X100868763Y-41631774D01*
X100188064Y-42312474D01*
X100141444Y-42334214D01*
X100134890Y-42334500D01*
X99075025Y-42334500D01*
X99069618Y-42334103D01*
X99065167Y-42332575D01*
X99015307Y-42334447D01*
X99012486Y-42334500D01*
X98992561Y-42334500D01*
X98989150Y-42335135D01*
X98985825Y-42335442D01*
X98981735Y-42335707D01*
X98960238Y-42336514D01*
X98960235Y-42336515D01*
X98953300Y-42336775D01*
X98941310Y-42341927D01*
X98940296Y-42342362D01*
X98924379Y-42347198D01*
X98921832Y-42347672D01*
X98910456Y-42349791D01*
X98886294Y-42364685D01*
X98876520Y-42369762D01*
X98850446Y-42380964D01*
X98845560Y-42384978D01*
X98839230Y-42391308D01*
X98825516Y-42402149D01*
X98821072Y-42404888D01*
X98821071Y-42404889D01*
X98815161Y-42408532D01*
X98796511Y-42433058D01*
X98789833Y-42440705D01*
X98506642Y-42723896D01*
X98465232Y-42744996D01*
X98387205Y-42757354D01*
X98274167Y-42814950D01*
X98184459Y-42904658D01*
X98181771Y-42909934D01*
X98181770Y-42909935D01*
X98172750Y-42927638D01*
X98126863Y-43017696D01*
X98107017Y-43143000D01*
X97667480Y-43143000D01*
X94842561Y-40318081D01*
X94839015Y-40313973D01*
X94836948Y-40309745D01*
X94826052Y-40299637D01*
X94800342Y-40275788D01*
X94798310Y-40273830D01*
X94784246Y-40259766D01*
X94781394Y-40257809D01*
X94778820Y-40255670D01*
X94775745Y-40252970D01*
X94765817Y-40243761D01*
X94754877Y-40233613D01*
X94748431Y-40231041D01*
X94748429Y-40231040D01*
X94741728Y-40228367D01*
X94727055Y-40220533D01*
X94726720Y-40220303D01*
X94715377Y-40212522D01*
X94687760Y-40205968D01*
X94677268Y-40202650D01*
X94650901Y-40192131D01*
X94644608Y-40191514D01*
X94635653Y-40191514D01*
X94618289Y-40189482D01*
X94606457Y-40186674D01*
X94599579Y-40187610D01*
X94599578Y-40187610D01*
X94575941Y-40190827D01*
X94565800Y-40191514D01*
X93972614Y-40191514D01*
X93924276Y-40173921D01*
X93919440Y-40169488D01*
X93913916Y-40163964D01*
X93800878Y-40106368D01*
X93717201Y-40093115D01*
X93681421Y-40087448D01*
X93675574Y-40086522D01*
X93669727Y-40087448D01*
X93633947Y-40093115D01*
X93550270Y-40106368D01*
X93437232Y-40163964D01*
X93347524Y-40253672D01*
X93344836Y-40258948D01*
X93344835Y-40258949D01*
X93331465Y-40285189D01*
X93289928Y-40366710D01*
X93289002Y-40372557D01*
X93279428Y-40433004D01*
X93254490Y-40477994D01*
X93206466Y-40496429D01*
X93157829Y-40479681D01*
X93151980Y-40474414D01*
X93018448Y-40340882D01*
X92997348Y-40299472D01*
X92989983Y-40252970D01*
X92984990Y-40221445D01*
X92935015Y-40123364D01*
X92930083Y-40113684D01*
X92930082Y-40113683D01*
X92927394Y-40108407D01*
X92837686Y-40018699D01*
X92724648Y-39961103D01*
X92599344Y-39941257D01*
X92474040Y-39961103D01*
X92361002Y-40018699D01*
X92295012Y-40084689D01*
X92248392Y-40106429D01*
X92198705Y-40093115D01*
X92170011Y-40052136D01*
X92169909Y-40052169D01*
X92169801Y-40051836D01*
X92169200Y-40050978D01*
X92168591Y-40048112D01*
X92168081Y-40046542D01*
X92167155Y-40040696D01*
X92109559Y-39927658D01*
X92019851Y-39837950D01*
X91906813Y-39780354D01*
X91781509Y-39760508D01*
X91656205Y-39780354D01*
X91543167Y-39837950D01*
X91453459Y-39927658D01*
X91395863Y-40040696D01*
X91376017Y-40166000D01*
X82651624Y-40166000D01*
X82674074Y-40132402D01*
X82680061Y-40124599D01*
X82848768Y-39932226D01*
X82855723Y-39925271D01*
X83048105Y-39756557D01*
X83055909Y-39750568D01*
X83268663Y-39608412D01*
X83277182Y-39603494D01*
X83506669Y-39490324D01*
X83515757Y-39486560D01*
X83758048Y-39404314D01*
X83767550Y-39401768D01*
X84018510Y-39351850D01*
X84028262Y-39350566D01*
X84252384Y-39335877D01*
X84268870Y-39336611D01*
X84272337Y-39337151D01*
X84282231Y-39338691D01*
X84287538Y-39337997D01*
X84287541Y-39337997D01*
X84317072Y-39334135D01*
X84326823Y-39333500D01*
X97474650Y-39333500D01*
X97522988Y-39351093D01*
G37*
%TD.AperFunction*%
%TD*%
%TA.AperFunction,NonConductor*%
G36*
X112893086Y-42675293D02*
G01*
X112897922Y-42679726D01*
X113066383Y-42848187D01*
X113088123Y-42894807D01*
X113088409Y-42901361D01*
X113088409Y-42922039D01*
X113070816Y-42970377D01*
X113026267Y-42996097D01*
X112975609Y-42987164D01*
X112960035Y-42975213D01*
X112770896Y-42786074D01*
X112749156Y-42739454D01*
X112762470Y-42689767D01*
X112804607Y-42660262D01*
X112824070Y-42657700D01*
X112844748Y-42657700D01*
X112893086Y-42675293D01*
G37*
%TD.AperFunction*%
%TA.AperFunction,NonConductor*%
G36*
X102963806Y-43050102D02*
G01*
X102983485Y-43074403D01*
X102998354Y-43103584D01*
X103010459Y-43127342D01*
X103100167Y-43217050D01*
X103105443Y-43219738D01*
X103105444Y-43219739D01*
X103121347Y-43227842D01*
X103213205Y-43274646D01*
X103338509Y-43294492D01*
X103463813Y-43274646D01*
X103555671Y-43227842D01*
X103571574Y-43219739D01*
X103571575Y-43219738D01*
X103576851Y-43217050D01*
X103598585Y-43195316D01*
X103645205Y-43173576D01*
X103694892Y-43186890D01*
X103704933Y-43195316D01*
X103726667Y-43217050D01*
X103731943Y-43219738D01*
X103731944Y-43219739D01*
X103747847Y-43227842D01*
X103839705Y-43274646D01*
X103965009Y-43294492D01*
X104090313Y-43274646D01*
X104182171Y-43227842D01*
X104198074Y-43219739D01*
X104198075Y-43219738D01*
X104203351Y-43217050D01*
X104233585Y-43186816D01*
X104280205Y-43165076D01*
X104329892Y-43178390D01*
X104339933Y-43186816D01*
X104370167Y-43217050D01*
X104375443Y-43219738D01*
X104375444Y-43219739D01*
X104391347Y-43227842D01*
X104483205Y-43274646D01*
X104608509Y-43294492D01*
X104733813Y-43274646D01*
X104825671Y-43227842D01*
X104841574Y-43219739D01*
X104841575Y-43219738D01*
X104846851Y-43217050D01*
X104876175Y-43187726D01*
X104922795Y-43165986D01*
X104929349Y-43165700D01*
X108572021Y-43165700D01*
X108620359Y-43183293D01*
X108646079Y-43227842D01*
X108637146Y-43278500D01*
X108600799Y-43310376D01*
X108562450Y-43326261D01*
X108558546Y-43329257D01*
X108558542Y-43329259D01*
X108458797Y-43405796D01*
X108440978Y-43419469D01*
X108437980Y-43423376D01*
X108434492Y-43426864D01*
X108433000Y-43425372D01*
X108396371Y-43448715D01*
X108380083Y-43450500D01*
X102861968Y-43450500D01*
X102853130Y-43449979D01*
X102851431Y-43449778D01*
X102816071Y-43445593D01*
X102810541Y-43446603D01*
X102810539Y-43446603D01*
X102772115Y-43453621D01*
X102721403Y-43444999D01*
X102688098Y-43405796D01*
X102687783Y-43354358D01*
X102705430Y-43326471D01*
X102777559Y-43254342D01*
X102780953Y-43247682D01*
X102816259Y-43178390D01*
X102835155Y-43141304D01*
X102842207Y-43096779D01*
X102867145Y-43051789D01*
X102915168Y-43033354D01*
X102963806Y-43050102D01*
G37*
%TD.AperFunction*%
%TA.AperFunction,NonConductor*%
G36*
X112385086Y-43183293D02*
G01*
X112389922Y-43187726D01*
X112713983Y-43511787D01*
X112735723Y-43558407D01*
X112736009Y-43564961D01*
X112736009Y-44223192D01*
X112718416Y-44271530D01*
X112673867Y-44297250D01*
X112623209Y-44288317D01*
X112607635Y-44276366D01*
X111937140Y-43605871D01*
X111931258Y-43599253D01*
X111911628Y-43574353D01*
X111908150Y-43569941D01*
X111858768Y-43535811D01*
X111856846Y-43534437D01*
X111813107Y-43502131D01*
X111808585Y-43498791D01*
X111803469Y-43496994D01*
X111803196Y-43496828D01*
X111802885Y-43496676D01*
X111800791Y-43495609D01*
X111800482Y-43495445D01*
X111800182Y-43495319D01*
X111795720Y-43492236D01*
X111738503Y-43474141D01*
X111736262Y-43473393D01*
X111684938Y-43455369D01*
X111684936Y-43455369D01*
X111679635Y-43453507D01*
X111674218Y-43453294D01*
X111673220Y-43453042D01*
X111669497Y-43452317D01*
X111665412Y-43451025D01*
X111660782Y-43450661D01*
X111660219Y-43450616D01*
X111660211Y-43450616D01*
X111658741Y-43450500D01*
X111604570Y-43450500D01*
X111601618Y-43450442D01*
X111598769Y-43450330D01*
X111543072Y-43448142D01*
X111537635Y-43449584D01*
X111533447Y-43450046D01*
X111525194Y-43450500D01*
X109331335Y-43450500D01*
X109282997Y-43432907D01*
X109277073Y-43426717D01*
X109276926Y-43426864D01*
X109273438Y-43423376D01*
X109270440Y-43419469D01*
X109252621Y-43405796D01*
X109152876Y-43329259D01*
X109152872Y-43329257D01*
X109148968Y-43326261D01*
X109110619Y-43310376D01*
X109072694Y-43275623D01*
X109065980Y-43224623D01*
X109093619Y-43181239D01*
X109139397Y-43165700D01*
X112336748Y-43165700D01*
X112385086Y-43183293D01*
G37*
%TD.AperFunction*%
%TA.AperFunction,NonConductor*%
G36*
X107988394Y-55121293D02*
G01*
X108014114Y-55165842D01*
X108005181Y-55216500D01*
X107974196Y-55245903D01*
X107949949Y-55258258D01*
X107949946Y-55258260D01*
X107944667Y-55260950D01*
X107915343Y-55290274D01*
X107868723Y-55312014D01*
X107862169Y-55312300D01*
X104421349Y-55312300D01*
X104373011Y-55294707D01*
X104368175Y-55290274D01*
X104338851Y-55260950D01*
X104333572Y-55258260D01*
X104333569Y-55258258D01*
X104309322Y-55245903D01*
X104274240Y-55208283D01*
X104271548Y-55156913D01*
X104302506Y-55115832D01*
X104343462Y-55103700D01*
X107940056Y-55103700D01*
X107988394Y-55121293D01*
G37*
%TD.AperFunction*%
%TA.AperFunction,NonConductor*%
G36*
X110919286Y-55121293D02*
G01*
X110945006Y-55165842D01*
X110936073Y-55216500D01*
X110924122Y-55232074D01*
X110865922Y-55290274D01*
X110819302Y-55312014D01*
X110812748Y-55312300D01*
X108503849Y-55312300D01*
X108455511Y-55294707D01*
X108450675Y-55290274D01*
X108421351Y-55260950D01*
X108416072Y-55258260D01*
X108416069Y-55258258D01*
X108391822Y-55245903D01*
X108356740Y-55208283D01*
X108354048Y-55156913D01*
X108385006Y-55115832D01*
X108425962Y-55103700D01*
X110870948Y-55103700D01*
X110919286Y-55121293D01*
G37*
%TD.AperFunction*%
%TA.AperFunction,NonConductor*%
G36*
X94484242Y-40810107D02*
G01*
X94489078Y-40814540D01*
X98214537Y-44540000D01*
X101864774Y-48190237D01*
X101868318Y-48194342D01*
X101870384Y-48198569D01*
X101875473Y-48203290D01*
X101875474Y-48203291D01*
X101906976Y-48232513D01*
X101909008Y-48234471D01*
X101923085Y-48248548D01*
X101925942Y-48250508D01*
X101928526Y-48252655D01*
X101931606Y-48255360D01*
X101947365Y-48269980D01*
X101947368Y-48269982D01*
X101952455Y-48274701D01*
X101965609Y-48279949D01*
X101980285Y-48287786D01*
X101988310Y-48293292D01*
X102018215Y-48335146D01*
X102014220Y-48386430D01*
X101978195Y-48423149D01*
X101945766Y-48430500D01*
X101716128Y-48430500D01*
X101667790Y-48412907D01*
X101662954Y-48408474D01*
X94318547Y-41064067D01*
X94315001Y-41059959D01*
X94312934Y-41055731D01*
X94301952Y-41045543D01*
X94276328Y-41021774D01*
X94274296Y-41019816D01*
X94260232Y-41005752D01*
X94257380Y-41003795D01*
X94254806Y-41001656D01*
X94251731Y-40998956D01*
X94241803Y-40989747D01*
X94230863Y-40979599D01*
X94224417Y-40977027D01*
X94224415Y-40977026D01*
X94217714Y-40974353D01*
X94203041Y-40966519D01*
X94202706Y-40966289D01*
X94191363Y-40958508D01*
X94163746Y-40951954D01*
X94153254Y-40948636D01*
X94126887Y-40938117D01*
X94126886Y-40938117D01*
X94127684Y-40936117D01*
X94091877Y-40912258D01*
X94077419Y-40862892D01*
X94098075Y-40815782D01*
X94144181Y-40792972D01*
X94152464Y-40792514D01*
X94435904Y-40792514D01*
X94484242Y-40810107D01*
G37*
%TD.AperFunction*%
M02*
