M48
; DRILL file {KiCad (6.0.11)} date Wed 01 Feb 2023 09:23:00 PM PST
; FORMAT={-:-/ absolute / inch / decimal}
; #@! TF.CreationDate,2023-02-01T21:23:00-08:00
; #@! TF.GenerationSoftware,Kicad,Pcbnew,(6.0.11)
; #@! TF.FileFunction,Plated,1,2,PTH
FMAT,2
INCH
; #@! TA.AperFunction,Plated,PTH,ViaDrill
T1C0.0079
; #@! TA.AperFunction,Plated,PTH,ViaDrill
T2C0.0200
; #@! TA.AperFunction,Plated,PTH,ComponentDrill
T3C0.0236
; #@! TA.AperFunction,Plated,PTH,ComponentDrill
T4C0.0394
%
G90
G05
T1
X5.37Y-2.46
X5.39Y-2.34
X5.4191Y-3.5715
X5.4218Y-3.2715
X5.4231Y-2.6715
X5.4231Y-2.9715
X5.4698Y-2.0709
X5.47Y-2.04
X5.47Y-2.46
X5.485Y-3.66
X5.49Y-2.8
X5.4941Y-3.3665
X5.5041Y-3.0715
X5.55Y-2.33
X5.6441Y-3.5465
X5.645Y-1.8528
X5.6468Y-3.2465
X5.6481Y-2.6465
X5.6481Y-2.9465
X5.6772Y-1.8599
X5.68Y-2.46
X5.7013Y-3.6537
X5.7147Y-1.9147
X5.7196Y-1.8656
X5.7218Y-3.3715
X5.7231Y-2.7715
X5.7231Y-3.0715
X5.8Y-2.46
X5.82Y-2.24
X5.82Y-2.33
X5.8691Y-3.5465
X5.8718Y-3.2465
X5.8731Y-2.6465
X5.8731Y-2.9465
X5.91Y-1.97
X5.9263Y-3.6537
X5.9468Y-3.3715
X5.9481Y-2.7715
X5.9481Y-3.0715
X5.965Y-2.46
X5.985Y-2.3307
X6.05Y-1.88
X6.065Y-1.965
X6.09Y-2.1619
X6.09Y-2.19
X6.0941Y-3.5465
X6.0968Y-3.2465
X6.0978Y-2.1072
X6.0981Y-2.6465
X6.0981Y-2.9465
X6.1Y-1.96
X6.1247Y-1.96
X6.13Y-2.46
X6.15Y-1.96
X6.1538Y-3.6562
X6.1718Y-3.3715
X6.1731Y-2.7715
X6.1731Y-3.0715
X6.1743Y-1.9022
X6.2Y-2.14
X6.2Y-2.2
X6.233Y-2.1717
X6.27Y-2.14
X6.27Y-2.2
X6.2907Y-2.46
X6.3091Y-3.2415
X6.3141Y-2.6415
X6.3141Y-2.9465
X6.33Y-2.31
X6.358Y-2.247
X6.363Y-2.222
X6.385Y-2.54
X6.3941Y-3.6715
X6.3968Y-3.3715
X6.3981Y-2.7715
X6.3981Y-3.0715
X6.435Y-2.53
X6.46Y-2.31
X6.4961Y-2.4289
T2
X6.06Y-2.05
X6.1908Y-2.36
X6.3172Y-1.9972
T4
X5.88Y-1.866
X5.98Y-1.866
T3
G00X5.3284Y-1.8899
M15
G01X5.3048Y-1.8899
M16
G05
G00X5.3284Y-2.2301
M15
G01X5.3048Y-2.2301
M16
G05
G00X5.5028Y-1.8899
M15
G01X5.4595Y-1.8899
M16
G05
G00X5.5028Y-2.2301
M15
G01X5.4595Y-2.2301
M16
G05
T0
M30
