%TF.GenerationSoftware,KiCad,Pcbnew,(6.0.11)*%
%TF.CreationDate,2023-02-01T21:23:03-08:00*%
%TF.ProjectId,Luzy,4c757a79-2e6b-4696-9361-645f70636258,rev?*%
%TF.SameCoordinates,Original*%
%TF.FileFunction,Soldermask,Top*%
%TF.FilePolarity,Negative*%
%FSLAX46Y46*%
G04 Gerber Fmt 4.6, Leading zero omitted, Abs format (unit mm)*
G04 Created by KiCad (PCBNEW (6.0.11)) date 2023-02-01 21:23:03*
%MOMM*%
%LPD*%
G01*
G04 APERTURE LIST*
G04 Aperture macros list*
%AMRoundRect*
0 Rectangle with rounded corners*
0 $1 Rounding radius*
0 $2 $3 $4 $5 $6 $7 $8 $9 X,Y pos of 4 corners*
0 Add a 4 corners polygon primitive as box body*
4,1,4,$2,$3,$4,$5,$6,$7,$8,$9,$2,$3,0*
0 Add four circle primitives for the rounded corners*
1,1,$1+$1,$2,$3*
1,1,$1+$1,$4,$5*
1,1,$1+$1,$6,$7*
1,1,$1+$1,$8,$9*
0 Add four rect primitives between the rounded corners*
20,1,$1+$1,$2,$3,$4,$5,0*
20,1,$1+$1,$4,$5,$6,$7,0*
20,1,$1+$1,$6,$7,$8,$9,0*
20,1,$1+$1,$8,$9,$2,$3,0*%
%AMFreePoly0*
4,1,6,1.000000,0.000000,0.500000,-0.750000,-0.500000,-0.750000,-0.500000,0.750000,0.500000,0.750000,1.000000,0.000000,1.000000,0.000000,$1*%
%AMFreePoly1*
4,1,6,0.500000,-0.750000,-0.650000,-0.750000,-0.150000,0.000000,-0.650000,0.750000,0.500000,0.750000,0.500000,-0.750000,0.500000,-0.750000,$1*%
G04 Aperture macros list end*
%ADD10RoundRect,0.140000X-0.170000X0.140000X-0.170000X-0.140000X0.170000X-0.140000X0.170000X0.140000X0*%
%ADD11FreePoly0,90.000000*%
%ADD12FreePoly1,90.000000*%
%ADD13RoundRect,0.225000X-0.250000X0.225000X-0.250000X-0.225000X0.250000X-0.225000X0.250000X0.225000X0*%
%ADD14R,0.900000X1.500000*%
%ADD15R,1.700000X1.700000*%
%ADD16O,1.700000X1.700000*%
%ADD17R,0.900000X1.000000*%
%ADD18RoundRect,0.150000X-0.512500X-0.150000X0.512500X-0.150000X0.512500X0.150000X-0.512500X0.150000X0*%
%ADD19RoundRect,0.225000X0.250000X-0.225000X0.250000X0.225000X-0.250000X0.225000X-0.250000X-0.225000X0*%
%ADD20RoundRect,0.200000X0.275000X-0.200000X0.275000X0.200000X-0.275000X0.200000X-0.275000X-0.200000X0*%
%ADD21R,1.200000X1.400000*%
%ADD22RoundRect,0.225000X-0.225000X-0.250000X0.225000X-0.250000X0.225000X0.250000X-0.225000X0.250000X0*%
%ADD23RoundRect,0.200000X-0.200000X-0.275000X0.200000X-0.275000X0.200000X0.275000X-0.200000X0.275000X0*%
%ADD24RoundRect,0.200000X-0.275000X0.200000X-0.275000X-0.200000X0.275000X-0.200000X0.275000X0.200000X0*%
%ADD25R,0.600000X1.100000*%
%ADD26RoundRect,0.150000X0.150000X-0.512500X0.150000X0.512500X-0.150000X0.512500X-0.150000X-0.512500X0*%
%ADD27RoundRect,0.062500X-0.062500X0.375000X-0.062500X-0.375000X0.062500X-0.375000X0.062500X0.375000X0*%
%ADD28RoundRect,0.062500X-0.375000X0.062500X-0.375000X-0.062500X0.375000X-0.062500X0.375000X0.062500X0*%
%ADD29R,3.450000X3.450000*%
%ADD30C,0.750000*%
%ADD31R,1.000000X1.450000*%
%ADD32C,0.650000*%
%ADD33R,1.450000X0.600000*%
%ADD34R,1.450000X0.300000*%
%ADD35O,2.100000X1.000000*%
%ADD36O,1.600000X1.000000*%
%ADD37RoundRect,0.150000X-0.150000X0.512500X-0.150000X-0.512500X0.150000X-0.512500X0.150000X0.512500X0*%
%ADD38RoundRect,0.225000X0.225000X0.250000X-0.225000X0.250000X-0.225000X-0.250000X0.225000X-0.250000X0*%
%ADD39R,0.250000X0.500000*%
%ADD40R,1.600000X0.900000*%
%ADD41RoundRect,0.218750X-0.381250X0.218750X-0.381250X-0.218750X0.381250X-0.218750X0.381250X0.218750X0*%
%ADD42RoundRect,0.250000X-1.075000X0.375000X-1.075000X-0.375000X1.075000X-0.375000X1.075000X0.375000X0*%
G04 APERTURE END LIST*
D10*
%TO.C,C8*%
X157607000Y-48034000D03*
X157607000Y-48994000D03*
%TD*%
%TO.C,C7*%
X159004000Y-48034000D03*
X159004000Y-48994000D03*
%TD*%
D11*
%TO.C,JP1*%
X154178000Y-62484000D03*
D12*
X154178000Y-61034000D03*
%TD*%
D13*
%TO.C,C1*%
X142621000Y-51273000D03*
X142621000Y-52823000D03*
%TD*%
D14*
%TO.C,D3*%
X151612991Y-66130000D03*
X148312991Y-66130000D03*
X148312991Y-71030000D03*
X151612991Y-71030000D03*
%TD*%
%TO.C,D20*%
X162686000Y-88990000D03*
X159386000Y-88990000D03*
X159386000Y-93890000D03*
X162686000Y-93890000D03*
%TD*%
D15*
%TO.C,J1*%
X151892000Y-47396000D03*
D16*
X149352000Y-47396000D03*
%TD*%
D17*
%TO.C,SW1*%
X152037000Y-60922000D03*
X147937000Y-60922000D03*
X147937000Y-62522000D03*
X152037000Y-62522000D03*
%TD*%
D18*
%TO.C,U2*%
X149789300Y-51094600D03*
X149789300Y-52044600D03*
X149789300Y-52994600D03*
X152064300Y-52994600D03*
X152064300Y-51094600D03*
%TD*%
D14*
%TO.C,D9*%
X157200991Y-73750000D03*
X153900991Y-73750000D03*
X153900991Y-78650000D03*
X157200991Y-78650000D03*
%TD*%
D13*
%TO.C,C14*%
X161036000Y-47180200D03*
X161036000Y-48730200D03*
%TD*%
D19*
%TO.C,C2*%
X147193000Y-49797000D03*
X147193000Y-48247000D03*
%TD*%
D20*
%TO.C,R3*%
X145669000Y-49825000D03*
X145669000Y-48175000D03*
%TD*%
D14*
%TO.C,D11*%
X140402680Y-81370000D03*
X137102680Y-81370000D03*
X137102680Y-86270000D03*
X140402680Y-86270000D03*
%TD*%
D21*
%TO.C,Y2*%
X162890200Y-53771800D03*
X162890200Y-55971800D03*
X164590200Y-55971800D03*
X164590200Y-53771800D03*
%TD*%
D14*
%TO.C,D5*%
X162876500Y-66130000D03*
X159576500Y-66130000D03*
X159576500Y-71030000D03*
X162876500Y-71030000D03*
%TD*%
D22*
%TO.C,C12*%
X162928000Y-59309000D03*
X164478000Y-59309000D03*
%TD*%
D13*
%TO.C,C15*%
X145796000Y-61201000D03*
X145796000Y-62751000D03*
%TD*%
D23*
%TO.C,R9*%
X139129000Y-58420000D03*
X140779000Y-58420000D03*
%TD*%
D14*
%TO.C,D12*%
X145990680Y-81370000D03*
X142690680Y-81370000D03*
X142690680Y-86270000D03*
X145990680Y-86270000D03*
%TD*%
%TO.C,D8*%
X151612991Y-73750000D03*
X148312991Y-73750000D03*
X148312991Y-78650000D03*
X151612991Y-78650000D03*
%TD*%
%TO.C,D1*%
X140436991Y-66130000D03*
X137136991Y-66130000D03*
X137136991Y-71030000D03*
X140436991Y-71030000D03*
%TD*%
D24*
%TO.C,R1*%
X144145000Y-51212000D03*
X144145000Y-52862000D03*
%TD*%
D22*
%TO.C,C5*%
X149593000Y-49570600D03*
X151143000Y-49570600D03*
%TD*%
D14*
%TO.C,D15*%
X162754680Y-81370000D03*
X159454680Y-81370000D03*
X159454680Y-86270000D03*
X162754680Y-86270000D03*
%TD*%
%TO.C,D14*%
X157166680Y-81370000D03*
X153866680Y-81370000D03*
X153866680Y-86270000D03*
X157166680Y-86270000D03*
%TD*%
%TO.C,D19*%
X157098000Y-88990000D03*
X153798000Y-88990000D03*
X153798000Y-93890000D03*
X157098000Y-93890000D03*
%TD*%
D25*
%TO.C,Y1*%
X157561000Y-50589000D03*
X158961000Y-50589000D03*
%TD*%
D26*
%TO.C,U1*%
X145862000Y-58287500D03*
X146812000Y-58287500D03*
X147762000Y-58287500D03*
X147762000Y-56012500D03*
X146812000Y-56012500D03*
X145862000Y-56012500D03*
%TD*%
D27*
%TO.C,U3*%
X160068200Y-52724300D03*
X159568200Y-52724300D03*
X159068200Y-52724300D03*
X158568200Y-52724300D03*
X158068200Y-52724300D03*
X157568200Y-52724300D03*
X157068200Y-52724300D03*
X156568200Y-52724300D03*
D28*
X155880700Y-53411800D03*
X155880700Y-53911800D03*
X155880700Y-54411800D03*
X155880700Y-54911800D03*
X155880700Y-55411800D03*
X155880700Y-55911800D03*
X155880700Y-56411800D03*
X155880700Y-56911800D03*
D27*
X156568200Y-57599300D03*
X157068200Y-57599300D03*
X157568200Y-57599300D03*
X158068200Y-57599300D03*
X158568200Y-57599300D03*
X159068200Y-57599300D03*
X159568200Y-57599300D03*
X160068200Y-57599300D03*
D28*
X160755700Y-56911800D03*
X160755700Y-56411800D03*
X160755700Y-55911800D03*
X160755700Y-55411800D03*
X160755700Y-54911800D03*
X160755700Y-54411800D03*
X160755700Y-53911800D03*
X160755700Y-53411800D03*
D29*
X158318200Y-55161800D03*
%TD*%
D14*
%TO.C,D4*%
X157200991Y-66130000D03*
X153900991Y-66130000D03*
X153900991Y-71030000D03*
X157200991Y-71030000D03*
%TD*%
%TO.C,D2*%
X146024991Y-66130000D03*
X142724991Y-66130000D03*
X142724991Y-71030000D03*
X146024991Y-71030000D03*
%TD*%
D13*
%TO.C,C4*%
X149352000Y-56121000D03*
X149352000Y-57671000D03*
%TD*%
D30*
%TO.C,SW4*%
X137511000Y-61341000D03*
X134761000Y-61341000D03*
D31*
X135286000Y-58766000D03*
X135286000Y-63916000D03*
X136986000Y-58766000D03*
X136986000Y-63916000D03*
%TD*%
D14*
%TO.C,D13*%
X151578680Y-81370000D03*
X148278680Y-81370000D03*
X148278680Y-86270000D03*
X151578680Y-86270000D03*
%TD*%
%TO.C,D17*%
X145922000Y-88990000D03*
X142622000Y-88990000D03*
X142622000Y-93890000D03*
X145922000Y-93890000D03*
%TD*%
%TO.C,D7*%
X146024991Y-73750000D03*
X142724991Y-73750000D03*
X142724991Y-78650000D03*
X146024991Y-78650000D03*
%TD*%
D24*
%TO.C,R4*%
X152146000Y-56071000D03*
X152146000Y-57721000D03*
%TD*%
D17*
%TO.C,SW3*%
X160419000Y-60922000D03*
X156319000Y-60922000D03*
X160419000Y-62522000D03*
X156319000Y-62522000D03*
%TD*%
D32*
%TO.C,P1*%
X138692000Y-49434000D03*
X138692000Y-55214000D03*
D33*
X140137000Y-49074000D03*
X140137000Y-49874000D03*
D34*
X140137000Y-51074000D03*
X140137000Y-52074000D03*
X140137000Y-52574000D03*
X140137000Y-53574000D03*
D33*
X140137000Y-54774000D03*
X140137000Y-55574000D03*
X140137000Y-55574000D03*
X140137000Y-54774000D03*
D34*
X140137000Y-54074000D03*
X140137000Y-53074000D03*
X140137000Y-51574000D03*
X140137000Y-50574000D03*
D33*
X140137000Y-49874000D03*
X140137000Y-49074000D03*
D35*
X139222000Y-48004000D03*
D36*
X135042000Y-48004000D03*
D35*
X139222000Y-56644000D03*
D36*
X135042000Y-56644000D03*
%TD*%
D37*
%TO.C,U4*%
X164399000Y-61092500D03*
X163449000Y-61092500D03*
X162499000Y-61092500D03*
X162499000Y-63367500D03*
X163449000Y-63367500D03*
X164399000Y-63367500D03*
%TD*%
D38*
%TO.C,C6*%
X153683000Y-54610000D03*
X152133000Y-54610000D03*
%TD*%
D39*
%TO.C,U5*%
X142887000Y-49823000D03*
X143387000Y-49823000D03*
X143887000Y-49823000D03*
X144387000Y-49823000D03*
X144387000Y-47923000D03*
X143887000Y-47923000D03*
X143387000Y-47923000D03*
X142887000Y-47923000D03*
D40*
X143637000Y-48873000D03*
%TD*%
D38*
%TO.C,C10*%
X164515200Y-51933300D03*
X162965200Y-51933300D03*
%TD*%
D23*
%TO.C,R8*%
X162878000Y-48895000D03*
X164528000Y-48895000D03*
%TD*%
%TO.C,R10*%
X153607000Y-59182000D03*
X155257000Y-59182000D03*
%TD*%
D24*
%TO.C,R2*%
X145669000Y-51212000D03*
X145669000Y-52862000D03*
%TD*%
D14*
%TO.C,D18*%
X151510000Y-88990000D03*
X148210000Y-88990000D03*
X148210000Y-93890000D03*
X151510000Y-93890000D03*
%TD*%
D41*
%TO.C,L2*%
X153898600Y-50982100D03*
X153898600Y-53107100D03*
%TD*%
D24*
%TO.C,R6*%
X154432000Y-47181000D03*
X154432000Y-48831000D03*
%TD*%
D14*
%TO.C,D6*%
X140436991Y-73750000D03*
X137136991Y-73750000D03*
X137136991Y-78650000D03*
X140436991Y-78650000D03*
%TD*%
D38*
%TO.C,C11*%
X158255000Y-59182000D03*
X156705000Y-59182000D03*
%TD*%
D17*
%TO.C,SW2*%
X139555000Y-60922000D03*
X143655000Y-60922000D03*
X143655000Y-62522000D03*
X139555000Y-62522000D03*
%TD*%
D22*
%TO.C,C13*%
X162953400Y-50444400D03*
X164503400Y-50444400D03*
%TD*%
D42*
%TO.C,L1*%
X143510000Y-56004000D03*
X143510000Y-58804000D03*
%TD*%
D38*
%TO.C,C3*%
X144158000Y-54356000D03*
X142608000Y-54356000D03*
%TD*%
D22*
%TO.C,C9*%
X162965200Y-57775300D03*
X164515200Y-57775300D03*
%TD*%
D24*
%TO.C,R5*%
X153670000Y-56071000D03*
X153670000Y-57721000D03*
%TD*%
D14*
%TO.C,D16*%
X140334000Y-88990000D03*
X137034000Y-88990000D03*
X137034000Y-93890000D03*
X140334000Y-93890000D03*
%TD*%
D20*
%TO.C,R7*%
X155956000Y-48831000D03*
X155956000Y-47181000D03*
%TD*%
D14*
%TO.C,D10*%
X162876500Y-73750000D03*
X159576500Y-73750000D03*
X159576500Y-78650000D03*
X162876500Y-78650000D03*
%TD*%
M02*
