M48
; DRILL file {KiCad (6.0.11)} date Thu 02 Feb 2023 02:22:04 PM PST
; FORMAT={-:-/ absolute / inch / decimal}
; #@! TF.CreationDate,2023-02-02T14:22:04-08:00
; #@! TF.GenerationSoftware,Kicad,Pcbnew,(6.0.11)
; #@! TF.FileFunction,Plated,1,2,PTH
FMAT,2
INCH
; #@! TA.AperFunction,Plated,PTH,ViaDrill
T1C0.0079
; #@! TA.AperFunction,Plated,PTH,ViaDrill
T2C0.0120
; #@! TA.AperFunction,Plated,PTH,ViaDrill
T3C0.0200
; #@! TA.AperFunction,Plated,PTH,ComponentDrill
T4C0.0236
; #@! TA.AperFunction,Plated,PTH,ComponentDrill
T5C0.0394
%
G90
G05
T1
X3.3384Y-2.1885
X3.3584Y-2.0685
X3.3875Y-2.4
X3.3875Y-2.7
X3.3875Y-3.3
X3.3881Y-3.0
X3.4383Y-1.7994
X3.4384Y-1.7385
X3.4384Y-1.7685
X3.4384Y-2.1885
X3.4534Y-3.3885
X3.4544Y-2.5285
X3.4604Y-3.095
X3.4684Y-2.8
X3.5184Y-2.0585
X3.5484Y-2.2478
X3.6125Y-2.375
X3.6125Y-2.675
X3.6125Y-3.275
X3.6131Y-2.975
X3.6134Y-1.5813
X3.6234Y-1.6527
X3.6456Y-1.5885
X3.6484Y-2.1885
X3.6697Y-3.3822
X3.6831Y-1.6432
X3.6875Y-2.5
X3.6875Y-2.8
X3.688Y-1.5942
X3.6881Y-3.1
X3.7684Y-2.1885
X3.7884Y-1.9685
X3.7884Y-2.0585
X3.8375Y-2.375
X3.8375Y-2.675
X3.8375Y-3.275
X3.8381Y-2.975
X3.8784Y-1.6985
X3.8947Y-3.3822
X3.9125Y-2.5
X3.9125Y-2.8
X3.9131Y-3.1
X3.9334Y-2.1885
X3.9534Y-2.0593
X4.0184Y-1.6085
X4.0334Y-1.6935
X4.0584Y-1.8904
X4.0584Y-1.9185
X4.0625Y-2.375
X4.0625Y-2.675
X4.0625Y-3.275
X4.0631Y-2.975
X4.0663Y-1.8357
X4.0684Y-1.6885
X4.0931Y-1.6885
X4.0984Y-2.1885
X4.1184Y-1.6885
X4.1222Y-3.3847
X4.1375Y-2.5
X4.1375Y-2.8
X4.1381Y-3.1
X4.1427Y-1.6308
X4.1684Y-1.8685
X4.1684Y-1.9285
X4.2014Y-1.9003
X4.2384Y-1.8685
X4.2384Y-1.9285
X4.2592Y-2.1885
X4.2754Y-2.97
X4.2784Y-2.37
X4.2784Y-2.675
X4.2984Y-2.0385
X4.3264Y-1.9755
X4.3314Y-1.9505
X4.3534Y-2.2685
X4.3625Y-2.5
X4.3625Y-2.8
X4.3625Y-3.4
X4.3631Y-3.1
X4.4034Y-2.2585
X4.4284Y-2.0385
X4.4645Y-2.1575
T2
X3.2684Y-2.3285
X3.2684Y-2.3785
X3.2684Y-2.4285
X3.2684Y-2.4785
X3.2684Y-2.5285
X3.2684Y-2.5785
X3.2684Y-2.6285
X3.2684Y-2.6785
X3.2684Y-2.7285
X3.2684Y-2.7785
X3.2684Y-2.8285
X3.2684Y-2.8785
X3.2684Y-2.9285
X3.2684Y-2.9785
X3.2684Y-3.0285
X3.2684Y-3.0785
X3.2684Y-3.1285
X3.2684Y-3.1785
X3.2684Y-3.2285
X3.2684Y-3.2785
X3.2684Y-3.3285
X3.2684Y-3.3785
X3.2684Y-3.4285
X3.3103Y-2.5785
X3.3144Y-2.3285
X3.3144Y-2.5285
X3.3144Y-2.6285
X3.3144Y-2.7785
X3.3144Y-2.8285
X3.3164Y-2.8785
X3.3164Y-3.0785
X3.3164Y-3.1285
X3.3184Y-3.1785
X3.3184Y-3.4285
X3.3184Y-3.4785
X3.3644Y-2.4785
X3.3684Y-3.4785
X3.4144Y-2.4785
X3.4144Y-2.8285
X3.4184Y-3.1285
X3.4184Y-3.4285
X3.4184Y-3.4785
X3.4644Y-2.4785
X3.4684Y-3.4785
X3.5184Y-3.4785
X3.5644Y-2.4785
X3.5644Y-2.7785
X3.5684Y-3.0785
X3.5684Y-3.3785
X3.5684Y-3.4785
X3.6144Y-2.4785
X3.6144Y-2.5285
X3.6144Y-2.7785
X3.6144Y-2.8285
X3.6184Y-3.0785
X3.6184Y-3.1285
X3.6184Y-3.3785
X3.6184Y-3.4285
X3.6184Y-3.4785
X3.6284Y-2.2585
X3.6684Y-3.4785
X3.7184Y-3.4785
X3.7644Y-2.4785
X3.7644Y-2.7785
X3.7684Y-3.0785
X3.7684Y-3.3785
X3.7684Y-3.4785
X3.8144Y-2.4785
X3.8144Y-2.7785
X3.8184Y-3.0785
X3.8184Y-3.3785
X3.8184Y-3.4785
X3.8184Y-3.4785
X3.8484Y-2.2585
X3.8644Y-2.5285
X3.8644Y-2.8285
X3.8684Y-3.1285
X3.8684Y-3.4285
X3.8684Y-3.4785
X3.9184Y-3.4785
X3.9684Y-2.2585
X3.9684Y-3.0785
X3.9684Y-3.3785
X3.9684Y-3.4785
X4.0144Y-2.4785
X4.0144Y-2.7785
X4.0184Y-3.0785
X4.0184Y-3.3785
X4.0184Y-3.4785
X4.0644Y-2.4785
X4.0644Y-2.5285
X4.0644Y-2.7785
X4.0644Y-2.8285
X4.0684Y-3.0785
X4.0684Y-3.1285
X4.0684Y-3.3785
X4.0684Y-3.4285
X4.0684Y-3.4785
X4.0884Y-2.2585
X4.1184Y-3.4785
X4.1684Y-3.4785
X4.2084Y-2.2585
X4.2144Y-2.4785
X4.2184Y-2.7785
X4.2184Y-3.0785
X4.2184Y-3.3785
X4.2184Y-3.4785
X4.2644Y-2.4785
X4.2684Y-2.5285
X4.2684Y-2.7785
X4.2684Y-2.8285
X4.2684Y-3.0785
X4.2684Y-3.3785
X4.2684Y-3.4785
X4.2884Y-2.2585
X4.3184Y-3.4285
X4.3184Y-3.4785
X4.3684Y-3.4785
X4.4184Y-3.4285
X4.4184Y-3.4785
T3
X4.0284Y-1.7785
X4.1592Y-2.0885
X4.2857Y-1.7258
T5
X3.8484Y-1.5945
X3.9484Y-1.5945
T4
G00X3.2969Y-1.6185
M15
G01X3.2732Y-1.6185
M16
G05
G00X3.2969Y-1.9586
M15
G01X3.2732Y-1.9586
M16
G05
G00X3.4713Y-1.6185
M15
G01X3.428Y-1.6185
M16
G05
G00X3.4713Y-1.9586
M15
G01X3.428Y-1.9586
M16
G05
T0
M30
